<?xml version="1.0" ?>
<!DOCTYPE svg  PUBLIC '-//W3C//DTD SVG 1.1//EN'  'http://www.w3.org/Graphics/SVG/1.1/DTD/svg11.dtd'>
<!-- Uploaded to: SVG Repo, www.svgrepo.com, Generator: SVG Repo Mixer Tools -->
<svg fill="#000000" width="800px" height="800px" viewBox="0 0 512 512" enable-background="new 0 0 512 512" id="Daily_x5F_active_x5F_user" version="1.1" xml:space="preserve" xmlns="http://www.w3.org/2000/svg" xmlns:xlink="http://www.w3.org/1999/xlink">
<g>
<path d="M151.762,370.541c-3.488-1.346-7.412,0.385-8.762,3.874s0.385,7.413,3.874,8.763   c32.244,12.471,35.709,55.182,35.834,71.343H63.563c0.126-16.167,3.593-58.872,35.835-71.343c3.489-1.35,5.223-5.273,3.874-8.763   c-1.349-3.489-5.271-5.226-8.761-3.874c-49.245,19.048-44.546,88.328-44.322,91.268c0.27,3.533,3.213,6.26,6.754,6.26h132.385   c3.541,0,6.485-2.727,6.754-6.258C196.306,458.869,201.007,389.589,151.762,370.541z"/>
<path d="M370.538,391.494c3.74,0,6.774-3.033,6.774-6.773c0-3.741-3.034-6.775-6.774-6.775h-53.607   c-3.74,0-6.774,3.034-6.774,6.775v76.574c0,3.74,3.034,6.773,6.774,6.773h53.607c3.74,0,6.774-3.033,6.774-6.773v-50.916   c0-3.741-3.034-6.774-6.774-6.774s-6.774,3.033-6.774,6.774v44.142h-40.059v-63.026H370.538z"/>
<path d="M280.767,300.421c3.741,0,6.774-3.034,6.774-6.774s-3.033-6.774-6.774-6.774H227.16c-3.742,0-6.774,3.034-6.774,6.774   v167.648c0,3.74,3.032,6.773,6.774,6.773h53.607c3.741,0,6.774-3.033,6.774-6.773V319.864c0-3.74-3.033-6.774-6.774-6.774   c-3.74,0-6.774,3.034-6.774,6.774v134.656h-40.059v-154.1H280.767z"/>
<path d="M123.135,362.84c38.155,0,69.196-31.039,69.196-69.193s-31.041-69.195-69.196-69.195   c-38.154,0-69.194,31.041-69.194,69.195S84.981,362.84,123.135,362.84z M123.135,238c30.685,0,55.647,24.963,55.647,55.646   c0,30.682-24.963,55.646-55.647,55.646c-30.683,0-55.646-24.964-55.646-55.646C67.489,262.963,92.452,238,123.135,238z"/>
<path d="M329.528,199.951V65.823c0-3.741-3.034-6.774-6.774-6.774h-44.913v-8.343c0-3.741-3.033-6.774-6.774-6.774   c-3.74,0-6.773,3.033-6.773,6.774v28.087c0,3.74,3.033,6.774,6.773,6.774c3.741,0,6.774-3.034,6.774-6.774v-6.196h38.139v38.207   h-20.26c-3.74,0-6.774,3.034-6.774,6.774s3.034,6.774,6.774,6.774h20.26v75.599c0,10.193-8.294,18.485-18.487,18.485H182.847   c-3.741,0-6.774,3.034-6.774,6.774s3.033,6.774,6.774,6.774h114.646C315.157,231.985,329.528,217.614,329.528,199.951z"/>
<path d="M110.372,201.824c3.742,0,6.774-3.033,6.774-6.773v-70.698h144.341c3.741,0,6.774-3.034,6.774-6.774   s-3.033-6.774-6.774-6.774H117.146V72.597h19.091c3.742,0,6.774-3.033,6.774-6.773c0-3.741-3.033-6.774-6.774-6.774h-25.865   c-3.742,0-6.774,3.033-6.774,6.774v129.228C103.598,198.791,106.63,201.824,110.372,201.824z"/>
<path d="M216.563,85.567c3.741,0,6.774-3.034,6.774-6.774v-6.196h22.077c3.742,0,6.774-3.033,6.774-6.773   c0-3.741-3.033-6.774-6.774-6.774h-22.077v-8.343c0-3.741-3.033-6.774-6.774-6.774c-3.742,0-6.774,3.033-6.774,6.774v28.087   C209.789,82.533,212.821,85.567,216.563,85.567z"/>
<path d="M162.058,85.567c3.742,0,6.774-3.034,6.774-6.774v-6.196h21.942c3.741,0,6.774-3.033,6.774-6.773   c0-3.741-3.033-6.774-6.774-6.774h-21.942v-8.343c0-3.741-3.033-6.774-6.774-6.774c-3.741,0-6.774,3.033-6.774,6.774v28.087   C155.284,82.533,158.317,85.567,162.058,85.567z"/>
<path d="M162.84,167.837c-3.742,0-6.774,3.033-6.774,6.773v11.561c0,3.74,3.032,6.774,6.774,6.774h34.73   c3.742,0,6.774-3.034,6.774-6.774v-34.731c0-3.74-3.033-6.774-6.774-6.774h-34.73c-3.742,0-6.774,3.034-6.774,6.774   c0,3.741,3.032,6.774,6.774,6.774h27.956v21.183h-21.182v-4.786C169.614,170.87,166.581,167.837,162.84,167.837z"/>
<path d="M235.556,167.837c-3.742,0-6.774,3.033-6.774,6.773v11.561c0,3.74,3.032,6.774,6.774,6.774h34.73   c3.74,0,6.774-3.034,6.774-6.774v-34.731c0-3.74-3.034-6.774-6.774-6.774h-34.73c-3.742,0-6.774,3.034-6.774,6.774   c0,3.741,3.032,6.774,6.774,6.774h27.956v21.183H242.33v-4.786C242.33,170.87,239.297,167.837,235.556,167.837z"/>
<path d="M455.254,144.665c-3.741,0-6.774,3.034-6.774,6.774v303.081h-40.06V133.183h46.834c3.74,0,6.773-3.033,6.773-6.773   c0-3.741-3.033-6.774-6.773-6.774h-53.608c-3.74,0-6.774,3.033-6.774,6.774v334.886c0,3.74,3.034,6.773,6.774,6.773h53.608   c3.74,0,6.773-3.033,6.773-6.773V151.439C462.027,147.699,458.994,144.665,455.254,144.665z"/>
</g>
</svg>