<?xml version="1.0" encoding="UTF-8"?>
<!-- Uploaded to: SVG Repo, www.svgrepo.com, Generator: SVG Repo Mixer Tools -->
<svg width="800px" height="800px" viewBox="0 -7.5 41 41" version="1.1" xmlns="http://www.w3.org/2000/svg" xmlns:xlink="http://www.w3.org/1999/xlink">
    
    <title>deposit</title>
    <desc>Created with Sketch.</desc>
    <g id="icons" stroke="none" stroke-width="1" fill="none" fill-rule="evenodd">
        <g id="ui-gambling-website-lined-icnos-casinoshunter" transform="translate(-2029.000000, -547.000000)" fill="#1C1C1F" fill-rule="nonzero">
            <g id="1" transform="translate(1350.000000, 120.000000)">
                <path d="M702.091152,449.325161 L702.112873,449.298379 C702.720153,449.830372 703.475626,450.197346 704.309295,450.329302 L704.561671,450.361768 L704.5615,452.999971 C703.007391,452.904099 701.590231,452.302109 700.47282,451.356801 L700.253382,451.16321 L702.091152,449.325161 L702.112873,449.298379 Z M708.00819,449.188288 L709.799724,450.98129 C709.823092,451.004659 709.848443,451.024838 709.875806,451.041346 C708.780288,452.101112 707.340345,452.807021 705.740187,452.974862 L705.438325,452.999982 L705.438251,450.361776 C706.429097,450.263419 707.322885,449.835116 708.00819,449.188288 Z M700.61659,446.438341 L700.638025,446.436239 C700.711262,447.177501 700.969154,447.864498 701.365066,448.450598 L701.519912,448.665565 L701.471244,448.705254 L699.646191,450.530714 C698.762263,449.487249 698.177908,448.181949 698.02592,446.74761 L698.000018,446.438325 L700.61659,446.438341 L700.638025,446.436239 Z M709.361975,446.436239 L709.38341,446.438341 L711.999982,446.438325 C711.913714,447.837318 711.417318,449.125341 710.629548,450.183642 L710.456324,450.406861 L710.419631,450.361383 L708.583448,448.525146 C709.008477,447.923089 709.285609,447.209163 709.361975,446.436239 Z M705,442.493272 C706.936713,442.493272 708.506728,444.063287 708.506728,446 C708.506728,447.936713 706.936713,449.506728 705,449.506728 C703.063287,449.506728 701.493272,447.936713 701.493272,446 C701.493272,444.063287 703.063287,442.493272 705,442.493272 Z M708.440202,427 C709.918327,427 711.116584,428.2042 711.116584,429.689655 L711.116,430.538 L701.303155,430.539036 C700.367036,430.539036 699.599279,431.263563 699.524843,432.185078 L699.518929,432.33214 L699.518929,436.191856 C699.518929,437.132644 700.23988,437.90421 701.156847,437.979015 L701.303183,437.984959 L703.291913,437.983538 C699.630259,438.716937 696.871693,441.950113 696.871693,445.827586 C696.871693,446.771503 697.035168,447.677238 697.335352,448.518023 L681.676382,448.517241 C680.198257,448.517241 679,447.313042 679,445.827586 L679,429.689655 C679,428.2042 680.198257,427 681.676382,427 L708.440202,427 Z M699.645682,441.469887 L701.471244,443.294746 L701.519912,443.334435 C701.090235,443.894567 700.792742,444.561419 700.674063,445.288363 L700.638031,445.563692 L700.61659,445.561659 L698.000029,445.5615 C698.095985,444.006031 698.698945,442.587751 699.645682,441.469887 Z M708.408847,443.244037 L710.274142,441.376873 C711.20077,442.433138 711.815157,443.770129 711.973153,445.243698 L711.999971,445.5615 L709.38341,445.561659 L709.361969,445.563692 C709.284222,444.776922 708.998452,444.051286 708.560421,443.442545 L708.408847,443.244037 L710.274142,441.376873 Z M688.481441,442.241379 L683.396096,442.241379 C682.939032,442.241379 682.568509,442.611902 682.568509,443.068966 C682.568509,443.49087 682.884221,443.839036 683.292285,443.890104 L683.396096,443.896552 L688.481441,443.896552 C688.938504,443.896552 689.309027,443.526029 689.309027,443.068966 C689.309027,442.611902 688.938504,442.241379 688.481441,442.241379 Z M696.114086,442.241379 L691.02874,442.241379 C690.571677,442.241379 690.201154,442.611902 690.201154,443.068966 C690.201154,443.49087 690.516866,443.839036 690.92493,443.890104 L691.02874,443.896552 L696.114086,443.896552 C696.571149,443.896552 696.941672,443.526029 696.941672,443.068966 C696.941672,442.611902 696.571149,442.241379 696.114086,442.241379 Z M704.5615,439.000029 L704.561984,441.627681 L704.563692,441.638031 C703.629426,441.730353 702.781363,442.116006 702.11588,442.701681 L702.103846,442.688065 L702.103846,442.688065 L702.091152,442.674839 L700.252388,440.837706 C701.401017,439.780797 702.903305,439.102322 704.5615,439.000029 Z M705.438341,441.61659 L705.438325,439.000018 C706.95211,439.093365 708.335968,439.666905 709.439448,440.57019 L709.656361,440.755198 L707.791582,442.620295 C707.203919,442.134345 706.487393,441.798719 705.70091,441.672326 L705.436239,441.638025 L705.438341,441.61659 L705.438325,439.000018 Z M706.45003,437.983249 L711.117,437.984 L711.117373,440.827973 C709.964782,439.389982 708.325863,438.358603 706.45003,437.983249 Z M713.049767,430.256336 L719.215532,434.261998 L713.049767,438.26766 L713.048297,436.191415 L701.303167,436.191856 L701.303167,432.33214 L713.048297,432.331765 L713.049767,430.256336 Z M687.029146,430.586207 C686.495948,430.586207 686.017376,430.821249 685.690423,431.193857 C685.364534,430.821249 684.885962,430.586207 684.352764,430.586207 C683.367347,430.586207 682.568509,431.389007 682.568509,432.37931 C682.568509,433.369614 683.367347,434.172414 684.352764,434.172414 C684.885962,434.172414 685.364534,433.937372 685.691487,433.564763 C686.017376,433.937372 686.495948,434.172414 687.029146,434.172414 C688.014563,434.172414 688.813401,433.369614 688.813401,432.37931 C688.813401,431.389007 688.014563,430.586207 687.029146,430.586207 Z" id="deposit">
</path>
            </g>
        </g>
    </g>
</svg>