<?xml version="1.0" encoding="utf-8"?>
<!-- Uploaded to: SVG Repo, www.svgrepo.com, Generator: SVG Repo Mixer Tools -->
<svg width="800px" height="800px" viewBox="0 -32.97 380.668 380.668" xmlns="http://www.w3.org/2000/svg"><defs><style>.a{fill:#cfcfcf;}.b{fill:#211715;}.c{fill:#ffffff;}</style></defs><path class="a" d="M237.856,217.206v95.1c-6.874,0-84.576-.034-94.042.014V217.206"/><path class="b" d="M235.456,217.206v95.1l2.4-2.4-32.209-.01q-23.6,0-47.209,0c-4.874,0-9.749,0-14.624.021l2.4,2.4V217.206c0-3.089-4.8-3.094-4.8,0V312.32a2.434,2.434,0,0,0,2.4,2.4c11.353-.057,22.708-.026,34.061-.026q23.344,0,46.689.008l13.292,0a2.434,2.434,0,0,0,2.4-2.4v-95.1c0-3.089-4.8-3.094-4.8,0Z"/><path class="b" d="M154.225,303.381h73.22c3.088,0,3.093-4.8,0-4.8h-73.22c-3.088,0-3.093,4.8,0,4.8Z"/><path class="b" d="M380.6,217.191V25.345c0-7.432.163-14.884,0-22.315,0-.21,0-.42,0-.63A2.435,2.435,0,0,0,378.2,0H2.4A2.435,2.435,0,0,0,0,2.4V217.206a2.435,2.435,0,0,0,2.4,2.4H232.47l46.456,0,41.131,0,32.94,0,21.882,0H378.2c3.088,0,3.094-4.8,0-4.8l-18.77,0-30.522,0-39.409,0-45.428,0H2.4l2.4,2.4V2.4L2.4,4.8H378.2l-2.4-2.4V217.191C375.8,220.28,380.6,220.285,380.6,217.191Z"/><path class="b" d="M378.2,217.191V2.4H2.4V217.206C41.082,217.206,337.436,217.206,378.2,217.191Z"/><path class="c" d="M366.864,205.853V13.739H13.746V205.867C52.427,205.867,326.105,205.867,366.864,205.853Z"/><path class="c" d="M369.264,205.853V33.909c0-6.515.132-13.046,0-19.56,0-.2,0-.407,0-.61a2.434,2.434,0,0,0-2.4-2.4H13.746a2.434,2.434,0,0,0-2.4,2.4V205.867a2.434,2.434,0,0,0,2.4,2.4H183.868l45.606,0h43.379l38.54,0,31.209,0,20.92,0h3.342c3.089,0,3.094-4.8,0-4.8q-9.076,0-18.154,0l-28.854,0-36.945,0-42.428,0H13.746l2.4,2.4V13.739l-2.4,2.4H366.864l-2.4-2.4V205.853C364.464,208.941,369.264,208.946,369.264,205.853Z"/></svg>