<?xml version="1.0" encoding="utf-8"?>

<!-- Uploaded to: SVG Repo, www.svgrepo.com, Generator: SVG Repo Mixer Tools -->
<svg version="1.1" id="Icons" xmlns="http://www.w3.org/2000/svg" xmlns:xlink="http://www.w3.org/1999/xlink" 
	 viewBox="0 0 32 32" xml:space="preserve">
<style type="text/css">
	.st0{fill:none;stroke:#000000;stroke-width:2;stroke-linecap:round;stroke-linejoin:round;stroke-miterlimit:10;}
</style>
<path d="M8,16c-4.4,0-8,3.6-8,8s3.6,8,8,8s8-3.6,8-8S12.4,16,8,16z M13.9,23H12c-0.1-1.5-0.4-2.9-0.8-4.1
	C12.6,19.8,13.6,21.3,13.9,23z M8,30c-0.6,0-1.8-1.9-2-5H10C9.8,28.1,8.6,30,8,30z M6,23c0.2-3.1,1.3-5,2-5s1.8,1.9,2,5H6z
	 M4.9,18.9C4.4,20.1,4.1,21.5,4,23H2.1C2.4,21.3,3.4,19.8,4.9,18.9z M2.1,25H4c0.1,1.5,0.4,2.9,0.8,4.1C3.4,28.2,2.4,26.7,2.1,25z
	 M11.1,29.1c0.5-1.2,0.7-2.6,0.8-4.1h1.9C13.6,26.7,12.6,28.2,11.1,29.1z"/>
<path d="M29,8h-8.9l-2.3-3.5C17.7,4.2,17.3,4,17,4H7C5.3,4,4,5.3,4,7v7.8C5.2,14.3,6.6,14,8,14c5.5,0,10,4.5,10,10
	c0,1.4-0.3,2.8-0.8,4H29c1.7,0,3-1.3,3-3V11C32,9.3,30.7,8,29,8z M30,23.6L21.4,10H29c0.6,0,1,0.4,1,1V23.6z"/>
</svg>