<?xml version="1.0" ?>
<!-- Uploaded to: SVG Repo, www.svgrepo.com, Generator: SVG Repo Mixer Tools -->
<svg fill="#000000" width="800px" height="800px" viewBox="0 0 32 32" id="Camada_1" version="1.1" xml:space="preserve" xmlns="http://www.w3.org/2000/svg" xmlns:xlink="http://www.w3.org/1999/xlink">
<g>
<path d="M26.9,17c0,1.9,0,3.7,0,5.6c0,0.7-0.3,1.2-0.7,1.7c-0.9,1-2.1,1.1-3.3,0.6c-0.3-0.1-0.6-0.3-0.9-0.5   c-0.3-0.2-0.4-0.6-0.2-0.9c0.2-0.3,0.6-0.4,0.9-0.2c0.4,0.2,0.8,0.4,1.3,0.4c0.6,0,1.3-0.4,1.4-1c0-0.1,0.1-0.2,0.1-0.3   c0-2.1,0-4.1,0-6.1c0-1.5,0-3.1,0-4.6c0-0.6-0.3-1-0.9-1.2C20.2,9,15.7,7.6,11.3,6.2C10.5,6,9.8,5.8,9,5.5C8.8,5.5,8.7,5.4,8.5,5.4   C7.8,5.3,7.2,5.8,7.2,6.6c0,2.5,0,5,0,7.5c0,0.1,0,0.2-0.1,0.3c-0.4,0.5-1.1,0.5-1.4,0c-0.1-0.1-0.1-0.1-0.1-0.2c0-2.6,0-5.3,0-7.9   c0-1,0.8-2,2-2.2C8,3.9,8.5,4,8.9,4.2c0.6,0.2,1.2,0.4,1.9,0.6c2.8,0.8,5.7,1.7,8.5,2.5c2,0.6,4,1.2,6,1.8c0.6,0.2,1,0.6,1.3,1.2   c0.2,0.5,0.2,1,0.2,1.4c0,0.1,0,0.1,0,0.2C26.9,13.5,26.9,15.2,26.9,17L26.9,17z"/>
<g>
<path d="M17.5,19.3c0-2.3,0-4.6,0-7c0-0.6,0.4-1,1-1c0.4,0,0.7,0,1.1,0c0.6,0,0.9,0.4,0.9,0.9c0,4.7,0,9.3,0,14    c0,0.6-0.4,0.9-0.9,0.9c-0.4,0-0.7,0-1.1,0c-0.6,0-0.9-0.4-0.9-0.9C17.5,23.9,17.5,21.6,17.5,19.3L17.5,19.3z"/>
<path d="M13.3,19.7c0-1.7,0-3.4,0-5.1c0-0.6,0.4-1,1-1c0.3,0,0.6,0,0.9,0c0.5,0,0.9,0.4,0.9,0.9c0,2.5,0,4.9,0,7.4    c0,0.9,0,1.9,0,2.8c0,0.6-0.4,1-1,1c-0.3,0-0.6,0-0.9,0c-0.5,0-0.9-0.4-0.9-0.9C13.3,23.1,13.3,21.4,13.3,19.7L13.3,19.7z"/>
<path d="M12,19.6c0,1.3,0,2.6,0,3.9c0,0.6-0.4,1-1,1c-0.3,0-0.6,0-0.8,0c-0.5,0-0.9-0.4-0.9-0.9c0-0.1,0-0.2,0-0.4    c0-2.5,0-4.9,0-7.4c0-0.5,0.3-0.8,0.7-0.9c0.1,0,0.2,0,0.3,0c0.3,0,0.6,0,0.9,0c0.6,0,0.9,0.4,0.9,0.9C12,17,12,18.3,12,19.6z"/>
<path d="M7.9,19.6c0,0.8,0,1.7,0,2.5c0,0.5-0.4,0.9-0.9,0.9c-0.3,0-0.6,0-0.9,0c-0.5,0-0.9-0.4-0.9-0.9c0-1.7,0-3.4,0-5    c0-0.5,0.4-0.9,0.9-0.9c0.3,0,0.6,0,1,0c0.5,0,0.9,0.4,0.9,0.9C7.8,17.9,7.8,18.8,7.9,19.6L7.9,19.6z"/>
</g>
</g>
</svg>