<?xml version="1.0" encoding="iso-8859-1"?>
<!-- Uploaded to: SVG Repo, www.svgrepo.com, Generator: SVG Repo Mixer Tools -->
<svg fill="#000000" height="800px" width="800px" version="1.1" id="Layer_1" xmlns="http://www.w3.org/2000/svg" xmlns:xlink="http://www.w3.org/1999/xlink" 
	 viewBox="0 0 508.025 508.025" xml:space="preserve">
<g>
	<g>
		<path d="M487.725,173.213h-114.9c-7.8,0-14.1,6.3-14.1,14.1v306.6c0,7.8,6.3,14.1,14.1,14.1h114.9c7.8,0,14.1-6.3,14.1-14.1
			v-306.6C501.825,179.513,495.525,173.213,487.725,173.213z M473.625,479.813h-86.7v-33.1h86.7V479.813z M473.625,418.513h-86.7
			v-33.1h86.7V418.513z M473.625,357.213h-86.7v-33.1h86.7V357.213z M473.625,295.813h-86.7v-33.1h86.7V295.813z M473.625,234.513
			h-86.7v-33.1h86.7V234.513z"/>
	</g>
</g>
<g>
	<g>
		<path d="M311.525,295.813h-115c-7.8,0-14.1,6.3-14.1,14.1v183.9c0,7.8,6.3,14.1,14.1,14.1h114.9c7.8,0,14.1-6.3,14.1-14.1v-183.8
			C325.625,302.213,319.325,295.813,311.525,295.813z M297.425,479.813h-86.7v-33.1h86.7V479.813z M297.425,418.513h-86.7v-33.1
			h86.7V418.513z M297.425,357.213h-86.7v-33.1h86.7V357.213z"/>
	</g>
</g>
<g>
	<g>
		<path d="M135.225,418.513h-114.9c-7.8,0-14.1,6.3-14.1,14.1v61.3c0,7.8,6.3,14.1,14.1,14.1h114.9c7.8,0,14.1-6.3,14.1-14.1v-61.3
			C149.325,424.813,143.025,418.513,135.225,418.513z M121.125,479.813h-86.7v-33.1h86.7V479.813z"/>
	</g>
</g>
<g>
	<g>
		<path d="M493.925,0.013h-75.6c-7.8,0-14.1,6.3-14.1,14.1c0,7.8,6.3,14.1,14.1,14.1h41.5l-62.7,62.8l-37.5-37.5
			c-5.3-5.3-14.7-5.3-20,0l-118.1,118.1l-34.5-34.5c-5.3-5.3-14.7-5.3-20,0l-162.9,162.9c-5.5,5.5-5.5,14.4,0,20c5,5,16.2,3.7,20,0
			l152.9-153l34.5,34.5c2.6,2.6,6.2,4.1,10,4.1c3.7,0,7.3-1.5,10-4.1l118.1-118.1l37.5,37.5c5.3,5.3,14.7,5.3,20,0l72.7-72.7v41.5
			c0,7.8,6.3,14.1,14.1,14.1c7.8,0,14.1-6.3,14.1-14.1v-75.6C508.025,6.313,501.725,0.013,493.925,0.013z"/>
	</g>
</g>
</svg>