<?xml version="1.0" encoding="utf-8"?>

<!DOCTYPE svg PUBLIC "-//W3C//DTD SVG 1.0//EN" "http://www.w3.org/TR/2001/REC-SVG-20010904/DTD/svg10.dtd">
<!-- Uploaded to: SVG Repo, www.svgrepo.com, Generator: SVG Repo Mixer Tools -->
<svg version="1.0" id="Layer_1" xmlns="http://www.w3.org/2000/svg" xmlns:xlink="http://www.w3.org/1999/xlink" 
	 width="800px" height="800px" viewBox="0 0 64 64" enable-background="new 0 0 64 64" xml:space="preserve">
<g>
	<path fill="#231F20" d="M8,60c0,2.211,1.789,4,4,4h40c2.211,0,4-1.789,4-4v-2H8V60z"/>
	<path fill="#231F20" d="M36,36c-0.553,0-1.053,0.224-1.414,0.586l-1.879,1.871c-0.391,0.391-1.023,0.391-1.414,0l-1.879-1.871
		C29.053,36.224,28.553,36,28,36c-1.104,0-2,0.896-2,2c0,0.553,0.481,1.076,0.844,1.438L32,44.594l5.156-5.156
		C37.519,39.076,38,38.553,38,38C38,36.896,37.104,36,36,36z"/>
	<path fill="#231F20" d="M54,20H44v-8c0-6.627-5.373-12-12-12S20,5.373,20,12v8H10c-1.105,0-2,0.895-2,2v34h48V22
		C56,20.895,55.105,20,54,20z M38.547,40.875l-5.84,5.841c-0.391,0.391-1.023,0.391-1.414,0l-5.855-5.856
		C24.713,40.136,24,39.104,24,38c0-2.209,1.791-4,4-4c1.104,0,2.104,0.448,2.828,1.172L32,36.336l1.172-1.164
		C33.896,34.448,34.896,34,36,34c2.209,0,4,1.791,4,4C40,39.104,39.271,40.151,38.547,40.875z M26,20v-8c0-3.313,2.687-6,6-6
		s6,2.687,6,6v8H26z M42,23c0,0.553-0.447,1-1,1s-1-0.447-1-1V12c0-4.418-3.582-8-8-8s-8,3.582-8,8v11c0,0.553-0.447,1-1,1
		s-1-0.447-1-1V12c0-5.522,4.478-10,10-10s10,4.478,10,10V23z"/>
</g>
</svg>