<?xml version="1.0" encoding="iso-8859-1"?>
<!-- Uploaded to: SVG Repo, www.svgrepo.com, Generator: SVG Repo Mixer Tools -->
<!DOCTYPE svg PUBLIC "-//W3C//DTD SVG 1.1//EN" "http://www.w3.org/Graphics/SVG/1.1/DTD/svg11.dtd">
<svg fill="#000000" version="1.1" id="Capa_1" xmlns="http://www.w3.org/2000/svg" xmlns:xlink="http://www.w3.org/1999/xlink" 
	 width="800px" height="800px" viewBox="0 0 124.953 124.953"
	 xml:space="preserve">
<g>
	<g>
		<path d="M101.597,90.602v4.693c3.883,0,7.041-3.158,7.041-7.041v-8.763c0-3.884-3.158-7.042-7.041-7.042H27.113
			c-3.883,0-7.041,3.158-7.041,7.042v8.763c0,3.883,3.158,7.041,7.041,7.041v-4.693c-1.294,0-2.347-1.054-2.347-2.348v-8.763
			c0-1.294,1.053-2.347,2.347-2.347h74.483c1.294,0,2.347,1.053,2.347,2.347v8.763C103.943,89.548,102.891,90.602,101.597,90.602z"
			/>
		<path d="M112.079,0H12.874c-4.4,0-7.98,3.58-7.98,7.98v99.206c0,4.4,3.58,7.98,7.98,7.98h14.005v-4.07v-1.498v-1.004H12.874
			c-0.777,0-1.409-0.632-1.409-1.408V7.981c0-0.777,0.632-1.409,1.409-1.409h99.206c0.777,0,1.41,0.632,1.41,1.409v99.207
			c0,0.776-0.633,1.408-1.41,1.408h-10.248v1.004v1.498v4.07h10.248c4.4,0,7.98-3.58,7.98-7.98V7.981
			C120.06,3.581,116.479,0,112.079,0z"/>
		<rect x="19.29" y="16.9" width="71.042" height="42.249"/>
		<rect x="95.023" y="16.9" width="11.267" height="11.266"/>
		<rect x="95.023" y="32.391" width="11.267" height="11.266"/>
		<rect x="95.023" y="47.882" width="11.267" height="11.266"/>
		<path d="M28.755,110.863h71.197V82.305H28.755V110.863z M32.742,89.271c2.607-0.418,4.693-1.928,5.424-3.887h52.908
			c0.68,1.824,2.538,3.256,4.896,3.783v14.833c-2.356,0.526-4.214,1.958-4.896,3.78H38.167c-0.731-1.959-2.817-3.475-5.425-3.891
			V89.271z"/>
		<ellipse cx="64.354" cy="96.583" rx="9.83" ry="9.708"/>
		<path d="M91.073,114.699H38.167c-0.213-0.571-0.554-1.098-0.977-1.578h-8.434v4.66h71.197v-4.66h-7.899
			C91.628,113.6,91.288,114.127,91.073,114.699z"/>
		<path d="M91.073,121.872H38.167c-0.213-0.571-0.554-1.099-0.977-1.579h-8.434v4.66h71.197v-4.66h-7.899
			C91.628,120.771,91.288,121.301,91.073,121.872z"/>
	</g>
</g>
</svg>