<?xml version="1.0" encoding="UTF-8"?>
<svg xmlns="http://www.w3.org/2000/svg" xmlns:xlink="http://www.w3.org/1999/xlink" fill="none" height="50" viewBox="0 0 64 50" width="64">
  <clipPath id="a">
    <path d="m.420898 0h63.1579v50h-63.1579z"></path>
  </clipPath>
  <g clip-path="url(#a)" stroke="#fff" stroke-miterlimit="10" stroke-width="2">
    <path d="m54.3682 11.8419c0 .7807.2315 1.5439.6652 2.193.4338.6492 1.0503 1.1551 1.7715 1.4539.7213.2988 1.515.3769 2.2807.2246s1.4691-.5282 2.0211-1.0803c.5521-.552.928-1.2554 1.0804-2.0211.1523-.7657.0741-1.5594-.2247-2.2807-.2987-.72128-.8047-1.33777-1.4538-1.77152-.6492-.43374-1.4124-.66525-2.1931-.66525-1.0469 0-2.0509.41588-2.7912 1.15616-.7403.74027-1.1561 1.74431-1.1561 2.79121z"></path>
    <path d="m54.3682 25.0001c0 .7807.2315 1.5439.6652 2.193.4338.6492 1.0503 1.1551 1.7715 1.4539.7213.2988 1.515.3769 2.2807.2246s1.4691-.5282 2.0211-1.0803c.5521-.552.928-1.2554 1.0804-2.0211.1523-.7657.0741-1.5594-.2247-2.2807-.2987-.7213-.8047-1.3378-1.4538-1.7715-.6492-.4338-1.4124-.6653-2.1931-.6653-1.0469 0-2.0509.4159-2.7912 1.1562s-1.1561 1.7443-1.1561 2.7912z"></path>
    <path d="m58.3155 34.2109c.7807 0 1.5439.2315 2.1931.6653.6491.4337 1.1551 1.0502 1.4538 1.7715.2988.7213.377 1.515.2247 2.2807-.1524.7657-.5283 1.4691-1.0804 2.0211-.552.5521-1.2554.928-2.0211 1.0803s-1.5594.0742-2.2807-.2246c-.7212-.2988-1.3377-.8047-1.7715-1.4539-.4337-.6491-.6652-1.4123-.6652-2.193 0-1.0469.4158-2.0509 1.1561-2.7912s1.7443-1.1562 2.7912-1.1562z"></path>
    <path d="m41.2104 18.4207h5.2632l3.9474-6.5789h3.9473"></path>
    <path d="m54.3683 38.158h-3.9473l-3.9474-6.5789h-5.2632"></path>
    <path d="m9.63155 11.8419c0 .7807-.23151 1.5439-.66525 2.193-.43374.6492-1.05023 1.1551-1.77152 1.4539s-1.51497.3769-2.28069.2246c-.76571-.1523-1.46907-.5282-2.02111-1.0803-.55205-.552-.928-1.2554-1.08031-2.0211s-.07414-1.5594.22462-2.2807c.29877-.72128.80471-1.33777 1.45386-1.77152.64914-.43374 1.41232-.66525 2.19304-.66525 1.0469 0 2.05093.41588 2.79121 1.15616.74027.74027 1.15615 1.74431 1.15615 2.79121z"></path>
    <path d="m9.63155 25.0001c0 .7807-.23151 1.5439-.66525 2.193-.43374.6492-1.05023 1.1551-1.77152 1.4539s-1.51497.3769-2.28069.2246c-.76571-.1523-1.46907-.5282-2.02111-1.0803-.55205-.552-.928-1.2554-1.08031-2.0211s-.07414-1.5594.22462-2.2807c.29877-.7213.80471-1.3378 1.45386-1.7715.64914-.4338 1.41232-.6653 2.19304-.6653 1.0469 0 2.05093.4159 2.79121 1.1562.74027.7403 1.15615 1.7443 1.15615 2.7912z"></path>
    <path d="m5.68419 34.2109c-.78072 0-1.5439.2315-2.19304.6653-.64915.4337-1.15509 1.0502-1.45386 1.7715-.29876.7213-.37693 1.515-.22462 2.2807s.52826 1.4691 1.08031 2.0211c.55204.5521 1.2554.928 2.02111 1.0803.76572.1523 1.5594.0742 2.28069-.2246s1.33778-.8047 1.77152-1.4539c.43374-.6491.66525-1.4123.66525-2.193 0-1.0469-.41588-2.0509-1.15615-2.7912-.74028-.7403-1.74431-1.1562-2.79121-1.1562"></path>
    <path d="m22.7892 18.4207h-5.2631l-3.9474-6.5789h-3.94735"></path>
    <path d="m9.63135 38.158h3.94735l3.9474-6.5789h5.2631"></path>
    <path d="m9.63135 25h2.63155"></path>
    <path d="m20.1577 25h2.6316"></path>
    <path d="m14.8945 25h2.6316"></path>
    <path d="m41.2104 25h2.6316"></path>
    <path d="m51.7368 25h2.6316"></path>
    <path d="m46.4736 25h2.6316"></path>
    <path d="m20.0654 12.7366c3.1793-3.09362 7.4362-4.83115 11.8722-4.84588 4.4361-.01473 8.7044 1.69449 11.9041 4.76698"></path>
    <path d="m44.1709 37.0127c-3.157 3.1982-7.4457 5.0256-11.9392 5.0871-4.4934.0616-8.8306-1.6476-12.074-4.7582"></path>
    <path d="m15.3813 8.13188c4.3892-4.32419 10.2907-6.76771 16.452-6.81193s12.0973 2.31435 16.548 6.57509"></path>
    <path d="m15.3813 42.1055c4.4614 4.1864 10.3383 6.5351 16.4562 6.5765 6.1179.0415 12.0261-2.2273 16.5438-6.3528"></path>
    <path d="m28.0522 27.6314v1.3158c0 .698.2773 1.3673.7708 1.8608s1.1629.7708 1.8608.7708h2.6316c.6979 0 1.3673-.2773 1.8608-.7708s.7708-1.1628.7708-1.8608v-.7368c.0005-.5533-.1734-1.0927-.497-1.5415-.3237-.4488-.7805-.7842-1.3056-.9585l-4.2895-1.4211c-.5252-.1743-.982-.5097-1.3056-.9585s-.4976-.9882-.4971-1.5415v-.7368c0-.698.2773-1.3673.7708-1.8608s1.1629-.7708 1.8608-.7708h2.6316c.6979 0 1.3673.2773 1.8608.7708s.7708 1.1628.7708 1.8608v1.3158"></path>
    <path d="m32 18.421v-3.9474"></path>
    <path d="m32 31.5791v3.9474"></path>
  </g>
</svg>
