<!DOCTYPE svg PUBLIC "-//W3C//DTD SVG 1.1//EN" "http://www.w3.org/Graphics/SVG/1.1/DTD/svg11.dtd">
<!-- Uploaded to: SVG Repo, www.svgrepo.com, Transformed by: SVG Repo Mixer Tools -->
<svg fill="#C2C8E1" width="800px" height="800px" viewBox="0 0 64 64" xmlns="http://www.w3.org/2000/svg">
<g id="SVGRepo_bgCarrier" stroke-width="0"/>
<g id="SVGRepo_tracerCarrier" stroke-linecap="round" stroke-linejoin="round"/>
<g id="SVGRepo_iconCarrier"> <g id="Outline"> <g data-name="Outline" id="Outline-2"> <path d="M34,47a1,1,0,0,0,1-1V43h3a6,6,0,0,0,.184-11.991A5.986,5.986,0,0,0,35,21.137V18a1,1,0,0,0-2,0v3H31V18a1,1,0,0,0-2,0v3H23a1,1,0,0,0,0,2h3V41H23a1,1,0,0,0,0,2h6v3a1,1,0,0,0,2,0V43h2v3A1,1,0,0,0,34,47Zm3.733-20a4,4,0,0,1-4,4H28V23h5.733A4,4,0,0,1,37.733,27ZM28,33H38a4,4,0,0,1,0,8H28Z"/> <path d="M32,2A30,30,0,1,0,62,32,30.034,30.034,0,0,0,32,2Zm0,58A28,28,0,1,1,60,32,28.032,28.032,0,0,1,32,60Z"/> <path d="M49.655,16.793a3.172,3.172,0,1,0-3.172,3.172,3.137,3.137,0,0,0,1.263-.266A19.994,19.994,0,0,1,22.692,49.707a1,1,0,0,0-.933,1.769,21.986,21.986,0,0,0,27.47-33.124A3.141,3.141,0,0,0,49.655,16.793Zm-4.344,0a1.172,1.172,0,1,1,1.172,1.172A1.172,1.172,0,0,1,45.311,16.793Z"/> <path d="M16.793,44.035a3.164,3.164,0,0,0-.692.081A19.779,19.779,0,0,1,12,32,20.023,20.023,0,0,1,32,12a19.811,19.811,0,0,1,8.463,1.874,1,1,0,0,0,.848-1.812A21.989,21.989,0,0,0,14.39,45.16a3.141,3.141,0,0,0-.769,2.047,3.172,3.172,0,1,0,3.172-3.172Zm0,4.344a1.172,1.172,0,1,1,1.172-1.172A1.172,1.172,0,0,1,16.793,48.379Z"/> </g> </g> </g>
</svg>