<!DOCTYPE svg PUBLIC "-//W3C//DTD SVG 1.1//EN" "http://www.w3.org/Graphics/SVG/1.1/DTD/svg11.dtd">
<!-- Uploaded to: SVG Repo, www.svgrepo.com, Transformed by: SVG Repo Mixer Tools -->
<svg fill="#C2C8E1" version="1.1" id="Capa_1" xmlns="http://www.w3.org/2000/svg" xmlns:xlink="http://www.w3.org/1999/xlink" width="800px" height="800px" viewBox="0 0 35.36 35.36" xml:space="preserve">
<g id="SVGRepo_bgCarrier" stroke-width="0"/>
<g id="SVGRepo_tracerCarrier" stroke-linecap="round" stroke-linejoin="round"/>
<g id="SVGRepo_iconCarrier"> <g> <path d="M12.584,13.605H11.98v-1.345h0.604c0.354,0,0.599,0.022,0.736,0.066c0.137,0.043,0.241,0.116,0.314,0.219 c0.072,0.103,0.108,0.226,0.108,0.372c0,0.139-0.038,0.263-0.115,0.369c-0.076,0.106-0.19,0.187-0.342,0.239 C13.133,13.578,12.902,13.605,12.584,13.605z M13.392,14.505c-0.152-0.058-0.386-0.087-0.698-0.087H11.98v1.195 c0.003,0.169,0.009,0.268,0.02,0.296c0.014,0.037,0.034,0.063,0.065,0.077c0.029,0.014,0.112,0.022,0.246,0.022h0.402 c0.234,0,0.428-0.022,0.582-0.065c0.154-0.043,0.285-0.134,0.393-0.271c0.108-0.137,0.162-0.302,0.162-0.494 c0-0.164-0.038-0.301-0.114-0.416C13.659,14.647,13.545,14.562,13.392,14.505z M19.217,14.132c0,3.642-2.953,6.595-6.596,6.595 c-3.642,0-6.594-2.954-6.594-6.595c0-3.643,2.952-6.595,6.594-6.595C16.264,7.536,19.217,10.489,19.217,14.132z M15.282,15.324 c0-0.246-0.058-0.468-0.174-0.666c-0.115-0.2-0.271-0.354-0.471-0.466c-0.137-0.079-0.334-0.151-0.593-0.217 c0.241-0.082,0.435-0.186,0.582-0.311c0.146-0.125,0.258-0.27,0.337-0.433c0.077-0.163,0.116-0.336,0.116-0.519 c0-0.25-0.073-0.48-0.221-0.69c-0.147-0.209-0.358-0.371-0.632-0.482c-0.107-0.043-0.233-0.076-0.37-0.102v-0.974h-0.935v0.908 h-0.6v-0.908h-0.935v0.908H9.96v0.763h0.22c0.146,0,0.243,0.014,0.295,0.04c0.052,0.026,0.087,0.063,0.108,0.106 c0.021,0.045,0.032,0.149,0.032,0.313v3.077c0,0.161-0.011,0.264-0.032,0.31c-0.021,0.047-0.057,0.083-0.108,0.107 c-0.052,0.025-0.149,0.038-0.295,0.038H9.962v0.763h1.426v0.908h0.935v-0.908h0.53c0.024,0,0.047,0,0.069,0v0.909h0.935V16.81 c0.156-0.029,0.294-0.068,0.412-0.115c0.322-0.129,0.571-0.316,0.748-0.563C15.193,15.886,15.282,15.616,15.282,15.324z M35.36,20.844c0,3.856-3.14,6.996-6.996,6.996h-7.222v3.223h-5.625V27.84H6.997C3.139,27.84,0,24.7,0,20.844 c0-2.22,1.078-4.318,2.854-5.629c-0.043-0.37-0.064-0.729-0.064-1.083c0-5.422,4.411-9.834,9.832-9.834 c4.13,0,7.751,2.55,9.183,6.333c0.785-0.297,1.619-0.451,2.459-0.451c2.711,0,5.195,1.604,6.338,4.041 C33.428,15.173,35.36,17.826,35.36,20.844z M33.36,20.844c0-2.274-1.539-4.262-3.744-4.832c-0.313-0.081-0.567-0.309-0.685-0.612 c-0.735-1.926-2.61-3.221-4.668-3.221c-0.896,0-1.778,0.246-2.559,0.71c-0.271,0.163-0.605,0.187-0.898,0.064 s-0.51-0.377-0.584-0.685c-0.858-3.516-3.984-5.972-7.602-5.972c-4.318,0-7.832,3.514-7.832,7.834c0,0.44,0.043,0.894,0.131,1.388 c0.073,0.41-0.115,0.822-0.473,1.035C2.915,17.466,2,19.069,2,20.842c0,2.756,2.242,4.998,4.997,4.998h8.521v-0.537h-2.089 l4.901-4.899l4.898,4.901h-2.088v0.535h7.223C31.118,25.84,33.36,23.598,33.36,20.844z M32.36,20.344c-0.275,0-0.5,0.224-0.5,0.5 c0,1.928-1.568,3.496-3.496,3.496h-3.017c-0.276,0-0.5,0.225-0.5,0.5c0,0.276,0.224,0.5,0.5,0.5h3.017 c2.479,0,4.496-2.019,4.496-4.496C32.86,20.567,32.637,20.344,32.36,20.344z M27.53,15.935l0.368,0.965 c0.058,0.151,0.185,0.265,0.343,0.306l1,0.259c0.517,0.133,1.002,0.388,1.405,0.735c0.097,0.081,0.212,0.122,0.328,0.122 c0.14,0,0.279-0.061,0.379-0.174c0.181-0.209,0.156-0.525-0.053-0.706c-0.52-0.447-1.145-0.774-1.811-0.946l-0.75-0.194 l-0.275-0.724c-0.662-1.733-2.351-2.898-4.201-2.898c-0.805,0-1.602,0.221-2.301,0.64c-0.236,0.142-0.313,0.448-0.174,0.686 c0.143,0.237,0.449,0.313,0.688,0.173c0.545-0.327,1.164-0.499,1.787-0.499C25.701,13.68,27.016,14.587,27.53,15.935z"/> </g> </g>
</svg>