<?xml version="1.0" encoding="UTF-8"?>
<svg xmlns="http://www.w3.org/2000/svg" id="Layer_1" viewBox="0 0 124.43 124.43">
  <defs>
    <style>.cls-1{fill:#fff;}.cls-2{fill:#8b9aff;}</style>
  </defs>
  <circle class="cls-2" cx="62.22" cy="62.22" r="62.22"></circle>
  <g>
    <path class="cls-1" d="M78.26,59.96c3.62-3.21,5.68-7.82,5.65-12.66,0-5.44-2.12-12.36-11.91-15.28v-8.21c0-1.1-.89-1.99-1.99-1.99h-9.27c-1.1,0-1.99,.89-1.99,1.99v6.74h-2.74v-6.75c0-1.1-.89-1.99-1.99-1.99h-9.27c-1.1,0-1.99,.89-1.99,1.99v6.74h-3.18c-1.1,0-1.99,.89-1.99,1.99v59.57c0,1.1,.89,1.99,1.99,1.99h3.18v6.54c0,1.1,.89,1.99,1.99,1.99h9.27c1.1,0,1.99-.89,1.99-1.99v-6.58h2.65v6.54c0,1.1,.89,1.99,1.99,1.99h9.27c1.1,0,1.99-.89,1.99-1.99v-7.84c9.5-2.65,14.91-9.19,14.91-18.23,.04-6.72-2.99-11.91-8.55-14.56Zm-9.27,29.43c-.99,.21-1.67,1.13-1.58,2.14,.05,.46,.25,.9,.58,1.23v5.85h-5.36v-6.55c0-1.1-.89-1.99-1.99-1.99h-6.62c-1.1,0-1.99,.89-1.99,1.99v6.54h-5.29v-6.54c0-1.1-.89-1.99-1.99-1.99h-3.18V34.48h3.22c1.1,0,1.99-.89,1.99-1.99v-6.7h5.29v6.74c0,1.1,.89,1.99,1.99,1.99h6.62c.53,0,1.03-.21,1.42-.57,.35-.38,.54-.89,.53-1.4v-6.75h5.29v7.69c0,.92,.64,1.72,1.54,1.93,7.12,1.68,10.43,5.43,10.43,11.82,0,4.87-2.82,9.6-6.55,11-.79,.28-1.32,1.02-1.32,1.85v.37c0,.9,.61,1.69,1.48,1.92,5.66,1.17,9.6,6.32,9.27,12.09,.11,10.01-7.45,13.62-13.81,14.91h.03Z"></path>
    <path class="cls-1" d="M60.57,64.33h-7.52c-1.1,0-1.99,.89-1.99,1.99v15.37c0,1.1,.89,1.99,1.99,1.99h7.52c10.84,0,13.12-5.45,13.12-10.01,0-9.33-9.88-9.33-13.12-9.33Zm0,15.37h-5.53v-11.4h5.53c8.04,0,9.15,2.57,9.15,5.3s-1.05,6.1-9.15,6.1Z"></path>
    <path class="cls-1" d="M53.06,58.36h6.3c10.29,0,11.4-6.34,11.4-9.07,0-8.37-8.51-8.37-11.3-8.37h-6.39c-1.1,0-1.99,.89-1.99,1.99v13.46c0,1.1,.89,1.99,1.99,1.99Zm1.99-13.46h4.41c6.78,0,7.33,2.17,7.33,4.39,0,1.32,0,5.1-7.43,5.1h-4.32v-9.49Z"></path>
  </g>
</svg>
