<?xml version="1.0" encoding="UTF-8"?>
<svg xmlns="http://www.w3.org/2000/svg" id="Layer_1" viewBox="0 0 345.25 356.77">
  <defs>
    <style>.cls-1{fill:#8c9bff;}</style>
  </defs>
  <path class="cls-1" d="M170.39,163.02c0,1.15,.77,1.92,1.92,1.92s1.92-1.15,1.92-1.92c0-1.15-.77-1.92-1.92-1.92-.77-.38-1.92,.38-1.92,1.92Z"></path>
  <path class="cls-1" d="M170.39,170.68c0,1.15,.77,1.92,1.92,1.92s1.92-1.15,1.92-1.92c0-1.15-.77-1.92-1.92-1.92-.77-.38-1.92,.38-1.92,1.92Z"></path>
  <path class="cls-1" d="M172.31,157.28c1.15,0,1.92-.77,1.92-1.92s-.77-1.92-1.92-1.92-1.92,.77-1.92,1.92,1.15,1.92,1.92,1.92Z"></path>
  <path class="cls-1" d="M50.54,236.92l-23.74-16.46c-.77-.38-1.53-.38-2.3,0L.77,236.92c-.77,.38-.77,1.15-.77,1.53v25.65c0,.77,.38,1.15,.77,1.53l23.74,16.46c.38,.38,.77,.38,1.15,.38s.77,0,1.15-.38l23.74-16.46c.38-.38,.77-.77,.77-1.53v-25.65s0-.76-.77-1.53Zm-24.89-12.64l20.68,14.17-20.68,14.17-20.68-14.17,20.68-14.17ZM3.45,242.29l19.91,13.78v21.06l-19.91-13.78v-21.06Zm24.12,34.85v-21.06l19.91-13.78v21.06l-19.91,13.78Z"></path>
  <path class="cls-1" d="M27.57,309.29c0,2.55-3.83,2.55-3.83,0s3.83-2.55,3.83,0"></path>
  <path class="cls-1" d="M27.57,301.64c0,2.55-3.83,2.55-3.83,0s3.83-2.55,3.83,0"></path>
  <path class="cls-1" d="M27.57,316.57c0,2.55-3.83,2.55-3.83,0s3.83-2.55,3.83,0"></path>
  <path class="cls-1" d="M27.57,324.23c0,2.55-3.83,2.55-3.83,0s3.83-2.55,3.83,0"></path>
  <path class="cls-1" d="M35.61,324.23c0,2.55-3.83,2.55-3.83,0s3.83-2.55,3.83,0"></path>
  <path class="cls-1" d="M43.27,324.23c0,2.55-3.83,2.55-3.83,0s3.83-2.55,3.83,0"></path>
  <path class="cls-1" d="M51.31,324.23c0,2.55-3.83,2.55-3.83,0s3.83-2.55,3.83,0"></path>
  <path class="cls-1" d="M58.97,324.23c0,2.55-3.83,2.55-3.83,0s3.83-2.55,3.83,0"></path>
  <path class="cls-1" d="M174.61,308.91c0,2.55-3.83,2.55-3.83,0s3.83-2.55,3.83,0"></path>
  <path class="cls-1" d="M174.61,301.25c0,2.55-3.83,2.55-3.83,0s3.83-2.55,3.83,0"></path>
  <path class="cls-1" d="M174.61,316.57c0,2.55-3.83,2.55-3.83,0s3.83-2.55,3.83,0"></path>
  <path class="cls-1" d="M174.61,324.23c0,2.55-3.83,2.55-3.83,0s3.83-2.55,3.83,0"></path>
  <path class="cls-1" d="M166.56,324.23c0,2.55-3.83,2.55-3.83,0s3.83-2.55,3.83,0"></path>
  <path class="cls-1" d="M158.91,324.23c0,2.55-3.83,2.55-3.83,0s3.83-2.55,3.83,0"></path>
  <path class="cls-1" d="M150.87,324.23c0,2.55-3.83,2.55-3.83,0s3.83-2.55,3.83,0"></path>
  <path class="cls-1" d="M143.21,324.23c0,2.55-3.83,2.55-3.83,0s3.83-2.55,3.83,0"></path>
  <path class="cls-1" d="M27.57,193.27c0,2.55-3.83,2.55-3.83,0s3.83-2.55,3.83,0"></path>
  <path class="cls-1" d="M27.57,200.93c0,2.55-3.83,2.55-3.83,0s3.83-2.55,3.83,0"></path>
  <path class="cls-1" d="M27.57,185.61c0,2.55-3.83,2.55-3.83,0s3.83-2.55,3.83,0"></path>
  <path class="cls-1" d="M27.57,177.96c0,2.55-3.83,2.55-3.83,0s3.83-2.55,3.83,0"></path>
  <path class="cls-1" d="M35.61,177.96c0,2.55-3.83,2.55-3.83,0s3.83-2.55,3.83,0"></path>
  <path class="cls-1" d="M43.27,177.96c0,2.55-3.83,2.55-3.83,0s3.83-2.55,3.83,0"></path>
  <path class="cls-1" d="M51.31,177.96c0,2.55-3.83,2.55-3.83,0s3.83-2.55,3.83,0"></path>
  <path class="cls-1" d="M58.97,177.96c0,2.55-3.83,2.55-3.83,0s3.83-2.55,3.83,0"></path>
  <path class="cls-1" d="M174.61,193.66c0,2.55-3.83,2.55-3.83,0s3.83-2.55,3.83,0"></path>
  <path class="cls-1" d="M174.61,200.93c0,2.55-3.83,2.55-3.83,0s3.83-2.55,3.83,0"></path>
  <path class="cls-1" d="M174.61,186c0,2.55-3.83,2.55-3.83,0s3.83-2.55,3.83,0"></path>
  <path class="cls-1" d="M174.22,178.34c0,2.55-3.83,2.55-3.83,0s3.83-2.55,3.83,0"></path>
  <path class="cls-1" d="M166.56,178.34c0,2.55-3.83,2.55-3.83,0s3.83-2.55,3.83,0"></path>
  <path class="cls-1" d="M158.52,178.34c0,2.55-3.83,2.55-3.83,0s3.83-2.55,3.83,0"></path>
  <path class="cls-1" d="M150.87,178.34c0,2.55-3.83,2.55-3.83,0s3.83-2.55,3.83,0"></path>
  <path class="cls-1" d="M143.21,178.34c0,2.55-3.83,2.55-3.83,0s3.83-2.55,3.83,0"></path>
  <path class="cls-1" d="M174.22,163.02c0,2.55-3.83,2.55-3.83,0s3.83-2.55,3.83,0"></path>
  <path class="cls-1" d="M174.22,155.36c0,2.55-3.83,2.55-3.83,0s3.83-2.55,3.83,0"></path>
  <path class="cls-1" d="M174.22,170.68c0,2.55-3.83,2.55-3.83,0s3.83-2.55,3.83,0"></path>
  <path class="cls-1" d="M182.26,178.34c0,2.55-3.83,2.55-3.83,0s3.83-2.55,3.83,0"></path>
  <path class="cls-1" d="M189.92,178.34c0,2.55-3.83,2.55-3.83,0s3.83-2.55,3.83,0"></path>
  <path class="cls-1" d="M197.96,178.34c0,2.55-3.83,2.55-3.83,0s3.83-2.55,3.83,0"></path>
  <path class="cls-1" d="M205.62,178.34c0,2.55-3.83,2.55-3.83,0s3.83-2.55,3.83,0"></path>
  <path class="cls-1" d="M321.26,163.02c0,2.55-3.83,2.55-3.83,0s3.83-2.55,3.83,0"></path>
  <path class="cls-1" d="M321.26,155.36c0,2.55-3.83,2.55-3.83,0s3.83-2.55,3.83,0"></path>
  <path class="cls-1" d="M321.26,170.3c0,2.55-3.83,2.55-3.83,0s3.83-2.55,3.83,0"></path>
  <path class="cls-1" d="M321.26,177.96c0,2.55-3.83,2.55-3.83,0s3.83-2.55,3.83,0"></path>
  <path class="cls-1" d="M313.22,177.96c0,2.55-3.83,2.55-3.83,0s3.83-2.55,3.83,0"></path>
  <path class="cls-1" d="M305.56,177.96c0,2.55-3.83,2.55-3.83,0s3.83-2.55,3.83,0"></path>
  <path class="cls-1" d="M297.52,177.96c0,2.55-3.83,2.55-3.83,0s3.83-2.55,3.83,0"></path>
  <path class="cls-1" d="M289.86,177.96c0,2.55-3.83,2.55-3.83,0s3.83-2.55,3.83,0"></path>
  <path class="cls-1" d="M174.22,47.38c0,2.55-3.83,2.55-3.83,0s3.83-2.55,3.83,0"></path>
  <path class="cls-1" d="M174.22,55.04c0,2.55-3.83,2.55-3.83,0s3.83-2.55,3.83,0"></path>
  <path class="cls-1" d="M174.22,39.73c0,2.55-3.83,2.55-3.83,0s3.83-2.55,3.83,0"></path>
  <path class="cls-1" d="M174.22,32.07c0,2.55-3.83,2.55-3.83,0s3.83-2.55,3.83,0"></path>
  <path class="cls-1" d="M182.26,32.07c0,2.55-3.83,2.55-3.83,0s3.83-2.55,3.83,0"></path>
  <path class="cls-1" d="M189.92,32.07c0,2.55-3.83,2.55-3.83,0s3.83-2.55,3.83,0"></path>
  <path class="cls-1" d="M197.96,32.07c0,2.55-3.83,2.55-3.83,0s3.83-2.55,3.83,0"></path>
  <path class="cls-1" d="M205.62,32.07c0,2.55-3.83,2.55-3.83,0s3.83-2.55,3.83,0"></path>
  <path class="cls-1" d="M321.26,47.38c0,2.55-3.83,2.55-3.83,0s3.83-2.55,3.83,0"></path>
  <path class="cls-1" d="M320.88,55.04c0,2.55-3.83,2.55-3.83,0s3.83-2.55,3.83,0"></path>
  <path class="cls-1" d="M320.88,40.11c0,2.55-3.83,2.55-3.83,0s3.83-2.55,3.83,0"></path>
  <path class="cls-1" d="M320.88,32.45c0,2.55-3.83,2.55-3.83,0s3.83-2.55,3.83,0"></path>
  <path class="cls-1" d="M313.22,32.45c0,2.55-3.83,2.55-3.83,0s3.83-2.55,3.83,0"></path>
  <path class="cls-1" d="M305.18,32.45c0,2.55-3.83,2.55-3.83,0s3.83-2.55,3.83,0"></path>
  <path class="cls-1" d="M297.52,32.45c0,2.55-3.83,2.55-3.83,0s3.83-2.55,3.83,0"></path>
  <path class="cls-1" d="M289.86,32.45c0,2.55-3.83,2.55-3.83,0s3.83-2.55,3.83,0"></path>
  <path class="cls-1" d="M125.21,163.02l-23.74-16.47c-.77-.38-1.53-.38-2.3,0l-23.74,16.46c-.77,.38-.77,1.15-.77,1.53v25.65c0,.77,.38,1.15,.77,1.53l23.74,16.46c.38,.38,.77,.38,1.15,.38s.77,0,1.15-.38l23.74-16.46c.38-.38,.77-.77,.77-1.53v-25.65c0-.38,0-1.15-.76-1.53h0Zm-24.89-12.64l20.68,14.17-20.68,14.17-20.68-14.17,20.68-14.17Zm-21.82,18l19.91,13.78v21.06l-19.91-14.17v-20.68Zm23.74,34.85v-21.06l19.91-13.78v21.06l-19.91,13.78Z"></path>
  <path class="cls-1" d="M197.96,236.92l-23.74-16.46c-.77-.38-1.53-.38-2.3,0l-23.74,16.46c-.77,.38-.77,1.15-.77,1.53v25.65c0,.77,.38,1.15,.77,1.53l23.74,16.46c.38,.38,.77,.38,1.15,.38s.77,0,1.15-.38l23.74-16.46c.38-.38,.77-.77,.77-1.53v-25.65s0-.76-.77-1.53h0Zm-25.27-12.64l20.68,14.17-20.68,14.17-20.68-14.17,20.68-14.17Zm-21.82,18l19.91,13.78v21.06l-19.91-13.78v-21.06Zm23.74,34.85v-21.06l19.91-13.78v21.06l-19.91,13.78Z"></path>
  <path class="cls-1" d="M125.21,311.21l-23.74-16.85c-.77-.38-1.53-.38-2.3,0l-23.74,16.46c-.77,.77-.77,1.53-.77,1.92v25.66c0,.77,.38,1.15,.77,1.53l23.74,16.46c.38,.38,.77,.38,1.15,.38s.77,0,1.15-.38l23.74-16.46c.38-.38,.77-.77,.77-1.53v-25.65c0-.38,0-1.15-.76-1.53h0Zm-24.89-12.64l20.68,14.17-20.68,14.17-20.68-14.16,20.68-14.17Zm-21.82,17.62l19.91,13.78v21.06s-19.91-13.78-19.91-13.78v-21.06Zm23.74,34.85v-21.06l19.91-13.78v21.06l-19.91,13.78Z"></path>
  <path class="cls-1" d="M271.87,164.94l-23.74-16.85c-.77-.38-1.53-.38-2.3,0l-23.74,16.46c-.77,.38-.77,1.15-.77,1.53v25.65c0,.77,.38,1.15,.77,1.53l23.74,16.46c.38,.38,.77,.38,1.15,.38s.77,0,1.15-.38l23.74-16.46c.38-.38,.77-.77,.77-1.53v-25.65s0-.76-.77-1.15h0Zm-24.89-12.64l20.68,14.17-20.68,14.17-20.68-14.17,20.68-14.17Zm-22.21,17.61l19.91,13.78v21.06l-19.91-13.78v-21.06Zm24.12,35.23v-21.06l19.91-13.78v21.06l-19.91,13.78Z"></path>
  <path class="cls-1" d="M197.2,90.65l-23.74-16.46c-.77-.38-1.53-.38-2.3,0l-24.12,16.46c-.77,.38-.77,1.15-.77,1.53v25.65c0,.77,.38,1.15,.77,1.53l23.74,16.46c.38,.38,.77,.38,1.15,.38s.77,0,1.15-.38l23.74-16.46c.38-.38,.77-.77,.77-1.53v-25.65c.38,0,.38-.76-.38-1.53h0Zm-24.89-12.64l20.68,14.17-20.68,14.17-20.68-14.17,20.68-14.17Zm-22.21,18l20.29,13.78v21.06l-19.91-13.78v-21.06h-.38Zm24.12,34.85v-21.06l19.91-13.78v21.06l-19.91,13.78Z"></path>
  <path class="cls-1" d="M344.62,90.65l-23.74-16.46c-.77-.38-1.53-.38-2.3,0l-24.12,16.46c-.77,.38-.77,1.15-.77,1.53v25.65c0,.77,.38,1.15,.77,1.53l23.74,16.46c.38,.38,.77,.38,1.15,.38s.77,0,1.15-.38l23.74-16.46c.38-.38,.77-.77,.77-1.53v-25.65c.38,0,.38-.76-.38-1.53h0Zm-25.27-12.64l20.68,14.17-20.68,14.17-20.68-14.17,20.68-14.17Zm-21.82,18l19.91,13.78v21.06l-19.91-13.78v-21.06Zm23.74,34.85v-21.06l19.91-13.78v21.06l-19.91,13.78Z"></path>
  <path class="cls-1" d="M271.87,16.75L248.13,.29c-.77-.38-1.53-.38-2.3,0l-23.74,16.46c-.77,.38-.77,1.15-.77,1.53v25.65c0,.77,.38,1.15,.77,1.53l23.74,16.46c.38,.38,.77,.38,1.15,.38s.77,0,1.15-.38l23.74-16.46c.38-.38,.77-.77,.77-1.53V18.28c0-.38,0-1.15-.77-1.53h0Zm-24.89-12.64l20.68,14.17-20.68,14.17-20.68-14.17,20.68-14.17Zm-22.21,18l19.91,13.78v21.06l-19.91-13.78V22.11Zm24.12,34.85v-21.06l19.91-13.78v21.06l-19.91,13.78Z"></path>
</svg>
