<?xml version="1.0" encoding="UTF-8"?>
<svg xmlns="http://www.w3.org/2000/svg" id="Layer_1" viewBox="0 0 124.43 124.43">
  <defs>
    <style>.cls-1{fill:#8b9aff;}.cls-2{fill:#fff;stroke:#fff;stroke-miterlimit:10;stroke-width:.5px;}</style>
  </defs>
  <circle class="cls-1" cx="62.22" cy="62.22" r="62.22"></circle>
  <path class="cls-2" d="M101.65,38.62c.07-.56-.21-1.1-.72-1.36l-19.12-9.86h-.11c-.08-.04-.17-.07-.26-.08-.16-.04-.34-.04-.5,0-.09,0-.18,.03-.26,.08h-.11l-18.38,9.48-18.38-9.48h-.11c-.08-.04-.17-.06-.26-.08-.16-.04-.34-.04-.5,0-.09,.01-.19,.04-.27,.08h-.1l-19.12,9.86c-.5,.26-.78,.8-.72,1.36v22.15c0,.5,.27,.96,.71,1.19l17.75,9.67v21.71c0,.5,.27,.96,.71,1.19l19.12,10.42,.21,.08h.1c.23,.06,.47,.06,.69,0h.1l.21-.08,19.12-10.42c.44-.24,.71-.7,.71-1.19v-21.12l18.84-10.27c.44-.24,.71-.7,.71-1.19v-22.02s-.02-.09-.04-.13Zm-40,41.58l-16.07-8.76,14.69-8.01,1.38-.73,16.49,8.5-16.49,9ZM43.2,30.13l16.49,8.5-16.49,9-16.49-8.99,16.49-8.51Zm1.36,38.32v-18.46l16.17-8.82v18.9l-1.73,.94-14.44,7.43Zm35.28,.45l-16.17-8.82v-18.91l16.17,8.82v18.91Zm1.36-21.28l-16.49-8.98,16.49-8.51,16.49,8.5-16.49,8.99Zm-55.76-6.58l16.4,8.95v18.92l-16.4-8.95v-18.92Zm18.46,32.57l16.4,8.95v18.92l-16.4-8.95v-18.92Zm35.52,18.92l-16.4,8.95v-18.92l16.4-8.95v18.92Zm19.54-32.57l-16.4,8.95v-18.92l16.4-8.95v18.92Z"></path>
</svg>
