<?xml version="1.0" encoding="UTF-8"?>
<svg xmlns="http://www.w3.org/2000/svg" xmlns:xlink="http://www.w3.org/1999/xlink" fill="none" height="50" viewBox="0 0 80 50" width="80">
  <clipPath id="a">
    <path d="m0 0h80v50h-80z"></path>
  </clipPath>
  <g clip-path="url(#a)" stroke="#fff" stroke-miterlimit="10" stroke-width="2">
    <path d="m3.33325 11.667h3.33334c.92047 0 1.66666-.7462 1.66666-1.6667v-6.66664c0-.92048-.74619-1.66667-1.66666-1.66667h-3.33334c-.92047 0-1.66666.74619-1.66666 1.66667v6.66664c0 .9205.74619 1.6667 1.66666 1.6667z"></path>
    <path d="m54.9999 10.0003v-6.66664c0-.44203-.1756-.86595-.4881-1.17851-.3126-.31256-.7365-.48816-1.1785-.48816h-3.3334c-.442 0-.8659.1756-1.1785.48816s-.4881.73648-.4881 1.17851v3.33333"></path>
    <path d="m31.6667 6.66699v-3.33333c0-.44203-.1756-.86595-.4882-1.17851-.3125-.31256-.7365-.48816-1.1785-.48816h-3.3333c-.4421 0-.866.1756-1.1785.48816-.3126.31256-.4882.73648-.4882 1.17851v6.66664"></path>
    <path d="m68.3333 20h-3.3334c-.9205 0-1.6666.7462-1.6666 1.6667v6.6666c0 .9205.7461 1.6667 1.6666 1.6667h3.3334c.9204 0 1.6666-.7462 1.6666-1.6667v-6.6666c0-.9205-.7462-1.6667-1.6666-1.6667z"></path>
    <path d="m68.3333 38.333h-3.3334c-.9205 0-1.6666.7462-1.6666 1.6667v6.6666c0 .9205.7461 1.6667 1.6666 1.6667h3.3334c.9204 0 1.6666-.7462 1.6666-1.6667v-6.6666c0-.9205-.7462-1.6667-1.6666-1.6667z"></path>
    <path d="m16.6667 0v13.3333"></path>
    <path d="m40 0v5"></path>
    <path d="m78.3333 18.333v13.3333"></path>
    <path d="m78.3333 36.667v13.3333"></path>
    <path d="m73.3333 11.667h3.3333c.9205 0 1.6667-.7462 1.6667-1.6667v-6.66664c0-.92048-.7462-1.66667-1.6667-1.66667h-3.3333c-.9205 0-1.6667.74619-1.6667 1.66667v6.66664c0 .9205.7462 1.6667 1.6667 1.6667z"></path>
    <path d="m63.3333 0v13.3333"></path>
    <path d="m11.6667 30h3.3334c.9205 0 1.6666-.7462 1.6666-1.6667v-6.6666c0-.9205-.7461-1.6667-1.6666-1.6667h-3.3334c-.9204 0-1.6666.7462-1.6666 1.6667v6.6666c0 .9205.7462 1.6667 1.6666 1.6667z"></path>
    <path d="m1.66675 18.333v13.3333"></path>
    <path d="m6.66675 38.333h-3.33334c-.92047 0-1.66666.7462-1.66666 1.6667v6.6666c0 .9205.74619 1.6667 1.66666 1.6667h3.33334c.92047 0 1.66666-.7462 1.66666-1.6667v-6.6666c0-.9205-.74619-1.6667-1.66666-1.6667z"></path>
    <path d="m54.9999 40v6.6667c0 .442-.1756.8659-.4881 1.1785-.3126.3125-.7365.4881-1.1785.4881h-3.3334c-.442 0-.8659-.1756-1.1785-.4881-.3126-.3126-.4881-.7365-.4881-1.1785v-3.3334"></path>
    <path d="m33.3333 45v1.6667c0 .442.1755.8659.4881 1.1785.3126.3125.7365.4881 1.1785.4881h3.3334c.442 0 .8659-.1756 1.1785-.4881.3125-.3126.4881-.7365.4881-1.1785v-1.6667"></path>
    <path d="m16.6667 36.667v13.3333"></path>
    <path d="m25 40v10"></path>
    <path d="m39.9999 41.6663c9.2048 0 16.6667-7.4619 16.6667-16.6666 0-9.2048-7.4619-16.66669-16.6667-16.66669-9.2047 0-16.6666 7.46189-16.6666 16.66669 0 9.2047 7.4619 16.6666 16.6666 16.6666z"></path>
    <path d="m35 28.3332v.6667c.1003.7904.5044 1.5107 1.1265 2.0085.6222.4977 1.4137.7337 2.2068.6581h3.3334c.7931.0756 1.5846-.1604 2.2068-.6581.6221-.4978 1.0262-1.2181 1.1265-2.0085v-.6667c-.0465-.6137-.2962-1.1944-.7098-1.6502-.4135-.4558-.9672-.7607-1.5735-.8665l-5.4334-1.4666c-.6194-.1093-1.1832-.4264-1.5983-.899-.415-.4727-.6567-1.0727-.685-1.701v-.75c.1003-.7905.5044-1.5108 1.1265-2.0086.6222-.4977 1.4137-.7337 2.2068-.6581h3.3334c.7931-.0756 1.5846.1604 2.2068.6581.6221.4978 1.0262 1.2181 1.1265 2.0086v.6666"></path>
    <path d="m40 18.333v-5"></path>
    <path d="m40 31.667v5"></path>
  </g>
</svg>
