<?xml version="1.0" encoding="UTF-8"?>
<svg xmlns="http://www.w3.org/2000/svg" xmlns:xlink="http://www.w3.org/1999/xlink" fill="none" height="70" viewBox="0 0 71 70" width="71">
  <clipPath id="a">
    <path d="m.1875 0h70v70h-70z"></path>
  </clipPath>
  <g clip-path="url(#a)" fill="#383593">
    <path d="m13.3119 37.9162c-.2737.0001-.5419-.0773-.7735-.2232l-11.667121-7.2913c-.211173-.1306-.385441-.3131-.50631-.5301-.120868-.2169-.184305-.4611-.184305-.7095 0-.2483.063437-.4925.184305-.7095.120869-.2169.295137-.3994.50631-.5301l11.667121-7.2913c.2317-.1457.4998-.223.7735-.223s.5418.0773.7735.223l11.6671 7.2913c.2112.1307.3854.3132.5063.5301.1209.217.1843.4612.1843.7095 0 .2484-.0634.4926-.1843.7095-.1209.217-.2951.3995-.5063.5301l-11.6621 7.2913c-.2333.1464-.5031.2238-.7785.2232zm-8.92508-8.7516 8.92508 5.5733 8.9251-5.5733-8.9251-5.5707z"></path>
    <path d="m13.3124 49.584c-.2737.0002-.5419-.0772-.7735-.2231l-11.667135-7.2913c-.209988-.1315-.383015-.3142-.502739-.5311-.119723-.2169-.182195-.4608-.181521-.7085v-11.6671c-.000711-.2606.068471-.5167.200345-.7415s.321621-.4102.549466-.5368c.227844-.1266.485504-.1897.746054-.1829.26056.0068.51448.0833.73541.2216l10.89362 6.8079 10.8936-6.8079c.2209-.1383.4749-.2148.7354-.2216.2606-.0068.5182.0563.746.1829.2279.1266.4176.312.5495.5368s.201.4809.2003.7415v11.6671c0 .2476-.0628.4912-.1825.708-.1196.2167-.2922.3996-.5017.5316l-11.6622 7.2913c-.2332.1464-.503.2238-.7784.2231zm-10.20936-9.5597 10.20936 6.3814 10.2093-6.3814v-8.226l-9.4309 5.8955c-.2316.1457-.4998.2231-.7735.2231s-.5418-.0774-.7735-.2231l-9.4358-5.8955z"></path>
    <path d="m14.7715 36.459h-2.918v11.6671h2.918z"></path>
    <path d="m57.0619 37.9162c-.2737.0001-.5419-.0773-.7735-.2231l-11.6671-7.2914c-.2112-.1306-.3855-.3131-.5063-.5301-.1209-.2169-.1843-.4611-.1843-.7095 0-.2483.0634-.4925.1843-.7095.1208-.2169.2951-.3994.5063-.53l11.6671-7.2914c.2317-.1457.4998-.223.7735-.223s.5418.0773.7735.223l11.6671 7.2914c.2112.1306.3854.3131.5063.53.1209.217.1843.4612.1843.7095 0 .2484-.0634.4926-.1843.7095-.1209.217-.2951.3995-.5063.5301l-11.6671 7.2914c-.2316.1458-.4998.2232-.7735.2231zm-8.9251-8.7516 8.9251 5.5733 8.9251-5.5733-8.9251-5.5707z"></path>
    <path d="m57.0624 49.584c-.2737.0002-.5419-.0772-.7735-.2231l-11.6671-7.2913c-.21-.1315-.3831-.3142-.5028-.5311s-.1822-.4608-.1815-.7085v-11.6671c-.0007-.2606.0685-.5167.2004-.7415.1318-.2248.3216-.4102.5494-.5368.2279-.1266.4855-.1897.7461-.1829.2605.0068.5145.0833.7354.2216l10.8936 6.8079 10.8936-6.8079c.2209-.1383.4749-.2148.7354-.2216.2606-.0068.5182.0563.746.1829.2279.1266.4176.312.5495.5368s.201.4809.2003.7415v11.6671c0 .2476-.0627.4912-.1824.708-.1197.2167-.2923.3996-.5018.5316l-11.6671 7.2913c-.2316.1459-.4998.2233-.7735.2231zm-10.2094-9.5597 10.2094 6.3814 10.2093-6.3814v-8.226l-9.4358 5.8955c-.2317.1457-.4998.2231-.7735.2231s-.5419-.0774-.7735-.2231l-9.4359-5.8955z"></path>
    <path d="m58.522 36.459h-2.9156v11.6671h2.9156z"></path>
    <path d="m35.1879 17.5008c-.2736-.0003-.5417-.0776-.7735-.2231l-11.6522-7.29129c-.2118-.13023-.3866-.31255-.5079-.52955s-.185-.46144-.185-.71004.0637-.49306.185-.71006.2961-.3993.5079-.52954l11.6522-7.293791c.2321-.1446029.5001-.2212415.7735-.2212415.2735 0 .5414.0766386.7735.2212415l11.6671 7.293791c.2118.13024.3866.31254.5079.52954s.185.46146.185.71006-.0637.49304-.185.71004-.2961.39932-.5079.52955l-11.6671 7.29129c-.2316.1459-.4997.2233-.7735.2231zm-8.9251-8.7515 8.9251 5.5707 8.9251-5.5707-8.9251-5.57075z"></path>
    <path d="m35.1848 29.165c-.2735.0006-.5416-.0759-.7736-.2207l-11.6522-7.2913c-.2103-.1313-.3837-.314-.5038-.5309-.1202-.2168-.1831-.4607-.1829-.7086v-11.66465c-.0007-.26064.0684-.51672.2003-.74155.1319-.22482.3216-.41017.5495-.53675.2278-.12658.4854-.18975.746-.18294.2605.0068.5145.08334.7354.22165l10.8936 6.80534 10.8738-6.80039c.2209-.13831.4749-.21485.7354-.22166.2606-.0068.5182.05638.746.18296.2279.12658.4176.31194.5495.53676s.201.48089.2003.74153v11.6671c.0002.2479-.0627.4918-.1829.7087-.1201.2169-.2935.3995-.5038.5309l-11.6671 7.2913c-.2297.1407-.4941.2146-.7635.2132zm-10.2069-9.5573 10.2069 6.379 10.2093-6.379v-8.2259l-9.4359 5.8955c-.2321.1446-.5.2212-.7734.2212-.2735 0-.5415-.0766-.7736-.2212l-9.4209-5.8955z"></path>
    <path d="m36.6441 16.043h-2.9156v11.6671h2.9156z"></path>
    <path d="m35.1879 58.3332c-.2732-.0012-.5408-.0775-.7735-.2207l-11.6522-7.2938c-.2118-.1302-.3866-.3125-.5079-.5295s-.185-.4615-.185-.7101c0-.2485.0637-.493.185-.71s.2961-.3993.5079-.5295l11.6522-7.2914c.2317-.1457.4998-.223.7735-.223s.5418.0773.7735.223l11.6671 7.2914c.2118.1302.3866.3125.5079.5295s.185.4615.185.71c0 .2486-.0637.4931-.185.7101s-.2961.3993-.5079.5295l-11.6671 7.2938c-.2323.144-.5001.2205-.7735.2207zm-8.9251-8.7491 8.9251 5.5708 8.9251-5.5708-8.9251-5.5732z"></path>
    <path d="m35.1848 69.9999c-.2737-.0003-.5418-.0776-.7736-.2231l-11.6522-7.2913c-.2104-.1312-.384-.3138-.5041-.5307-.1202-.2169-.183-.4609-.1826-.7089v-11.6621c-.0007-.2606.0684-.5167.2003-.7415.1319-.2249.3216-.4102.5495-.5368.2278-.1266.4854-.1897.746-.1829.2605.0068.5145.0833.7354.2216l10.8936 6.8079 10.8936-6.8079c.2211-.1374.4749-.2133.7351-.2197.2603-.0064.5175.0569.7451.1833s.4172.3114.5492.5358c.1321.2243.2018.4799.2019.7402v11.6671c.0004.2479-.0624.4919-.1826.7088s-.2937.3996-.5041.5308l-11.6671 7.2913c-.235.1459-.5068.2216-.7834.2181zm-10.2069-9.5597 10.2069 6.3814 10.2093-6.3814v-8.226l-9.4359 5.898c-.2321.1446-.5.2213-.7734.2213-.2735 0-.5415-.0767-.7736-.2213l-9.4209-5.898z"></path>
    <path d="m36.6441 56.875h-2.9156v11.6671h2.9156z"></path>
    <path d="m41.8286 19.225-1.5454 2.4723 9.1868 5.7427 1.5454-2.4722z"></path>
    <path d="m19.94 38.1655-1.5455 2.4722 10.3536 6.4721 1.5454-2.4722z"></path>
    <path d="m28.5744 19.1476-9.1848 5.746 1.5463 2.4717 9.1848-5.746z"></path>
    <path d="m50.4509 38.1063-10.3513 6.4757 1.5463 2.4717 10.3513-6.4757z"></path>
  </g>
</svg>
