<?xml version="1.0" encoding="UTF-8"?>
<svg xmlns="http://www.w3.org/2000/svg" xmlns:xlink="http://www.w3.org/1999/xlink" fill="none" height="70" viewBox="0 0 71 70" width="71">
  <clipPath id="a">
    <path d="m.1875 0h70v70h-70z"></path>
  </clipPath>
  <g clip-path="url(#a)" fill="#383593">
    <path d="m48.3145 70.003h-26.2571c-.1917 0-.3814-.0378-.5584-.1112-.1771-.0734-.3379-.181-.4733-.3166-.1354-.1357-.2427-.2967-.3158-.4738-.0732-.1772-.1106-.367-.1103-.5586v-8.7491c0-.3866.1536-.7574.427-1.0308s.6442-.427 1.0308-.427h26.2497c.3866 0 .7574.1536 1.0308.427.2733.2734.4269.6442.4269 1.0308v8.7491c.0007.3857-.1516.756-.4235 1.0297-.2718.2737-.641.4285-1.0268.4305zm-24.7919-2.918h23.3267v-5.8335h-23.3342z"></path>
    <path d="m64.3564 61.2509h-58.33539c-1.54674-.0013-3.02975-.6163-4.12347-1.71-1.093713-1.0937-1.708727-2.5767-1.71004-4.1235v-49.58386c.001968-1.54655.617195-3.02919 1.71077-4.12276 1.09357-1.093577 2.5762-1.70881196 4.12274-1.71078h58.33539c1.5465.00196804 3.0292.617203 4.1228 1.71078 1.0935 1.09357 1.7088 2.57621 1.7107 4.12276v49.58386c-.0019 1.5466-.6172 3.0292-1.7107 4.1228-1.0936 1.0936-2.5763 1.7088-4.1228 1.7107zm-58.33539-58.33289c-.77284.00131-1.51364.3089-2.06013.85538-.54648.54649-.85406 1.28731-.85537 2.06015v49.58386c.00066.7733.30794 1.5147.85449 2.0617.54656.5471 1.28774.855 2.06101.8563h58.33539c.7733-.0013 1.5144-.3092 2.061-.8563.5466-.547.8539-1.2884.8545-2.0617v-49.58386c-.0013-.77284-.3089-1.51366-.8554-2.06015-.5465-.54648-1.2873-.85407-2.0601-.85538z"></path>
    <path d="m30.815 37.9166h-1.4578c-1.1599-.0007-2.2721-.4616-3.0925-1.2815s-1.2819-1.9319-1.2833-3.0918v-5.8335c.0014-1.1602.4628-2.2724 1.2831-3.0927.8204-.8204 1.9326-1.2818 3.0927-1.2831h1.4578c1.1614-.0007 2.2755.4599 3.0975 1.2804.8219.8206 1.2844 1.9339 1.2857 3.0954v5.8335c-.0007.575-.1145 1.1442-.3352 1.6751-.2206.5309-.5437 1.0132-.9507 1.4193s-.89.7281-1.4215.9475c-.5314.2194-1.1009.332-1.6758.3314zm-1.4578-11.6522c-.3866 0-.7574.1536-1.0308.427-.2734.2733-.4269.6441-.4269 1.0307v5.8336c0 .3866.1535.7574.4269 1.0308s.6442.427 1.0308.427h1.4578c.1914 0 .381-.0378.5578-.111.1769-.0733.3376-.1807.473-.316.1353-.1354.2427-.2961.316-.4729.0732-.1769.1109-.3665.1109-.5579v-5.8459c0-.1915-.0377-.381-.1109-.5579-.0733-.1769-.1807-.3376-.316-.4729-.1354-.1354-.2961-.2428-.473-.316-.1768-.0733-.3664-.111-.5578-.111z"></path>
    <path d="m55.605 37.9166h-1.4578c-1.1599-.0007-2.2721-.4616-3.0925-1.2815s-1.2819-1.9319-1.2832-3.0918v-5.8335c.0013-1.1602.4627-2.2724 1.2831-3.0927.8203-.8204 1.9325-1.2818 3.0926-1.2831h1.4578c1.1614-.0007 2.2756.4599 3.0975 1.2804.822.8206 1.2844 1.9339 1.2857 3.0954v5.8335c-.0006.575-.1145 1.1442-.3351 1.6751-.2207.5309-.5437 1.0132-.9507 1.4193-.4071.4061-.8901.7281-1.4215.9475-.5315.2194-1.1009.332-1.6759.3314zm-1.4578-11.6522c-.3866 0-.7574.1536-1.0307.427-.2734.2733-.427.6441-.427 1.0307v5.8336c0 .3866.1536.7574.427 1.0308.2733.2734.6441.427 1.0307.427h1.4578c.1914 0 .381-.0378.5579-.111.1768-.0733.3375-.1807.4729-.316.1354-.1354.2428-.2961.316-.4729.0733-.1769.111-.3665.111-.5579v-5.8459c0-.1915-.0377-.381-.111-.5579-.0732-.1769-.1806-.3376-.316-.4729-.1354-.1354-.2961-.2428-.4729-.316-.1769-.0733-.3665-.111-.5579-.111z"></path>
    <path d="m59.9878 20.4191h-1.4577c-1.1601-.0013-2.2724-.4628-3.0927-1.2831-.8204-.8203-1.2818-1.9326-1.2831-3.0927v-5.8335c.0013-1.16017.4627-2.2724 1.2831-3.09273.8203-.82033 1.9326-1.28177 3.0927-1.28309h1.4577c1.1602.00132 2.2724.46276 3.0927 1.28309.8204.82033 1.2818 1.93256 1.2831 3.09273v5.8335c-.0013 1.1601-.4627 2.2724-1.2831 3.0927-.8203.8203-1.9325 1.2818-3.0927 1.2831zm-1.4577-11.66711c-.3869 0-.7579.15351-1.0317.42682-.2738.27332-.4279.6441-.4286 1.03099v5.8335c.0007.3868.1548.7576.4286 1.0309.2738.2734.6448.4269 1.0317.4269h1.4577c.3865-.0007.7569-.1545 1.0301-.4277.2733-.2733.4271-.6437.4277-1.0301v-5.8335c0-.38667-.1536-.75745-.4269-1.03084-.2734-.27338-.6442-.42697-1.0309-.42697z"></path>
    <path d="m46.8492 20.4191h-1.4578c-1.1601-.0013-2.2724-.4628-3.0927-1.2831s-1.2818-1.9326-1.2831-3.0927v-5.8335c.0013-1.16017.4628-2.2724 1.2831-3.09273s1.9326-1.28177 3.0927-1.28309h1.4578c1.1599.00132 2.2719.46284 3.0918 1.28324s1.2808 1.93264 1.2815 3.09258v5.8335c-.0007 1.1599-.4616 2.2721-1.2815 3.0925s-1.9319 1.282-3.0918 1.2833zm-1.4578-11.66711c-.3868 0-.7579.15351-1.0317.42682-.2738.27332-.4279.6441-.4285 1.03099v5.8335c.0006.3868.1547.7576.4285 1.0309.2738.2734.6449.4269 1.0317.4269h1.4578c.3864-.0007.7568-.1545 1.0301-.4277.2732-.2733.427-.6437.4276-1.0301v-5.8335c0-.38667-.1535-.75745-.4269-1.03084-.2734-.27338-.6442-.42697-1.0308-.42697z"></path>
    <path d="m27.8967 20.4191h-1.4603c-.575.0003-1.1444-.1126-1.6757-.3324-.5313-.2197-1.0141-.5419-1.4209-.9482-.4068-.4064-.7296-.8888-.9499-1.4199s-.3339-1.1003-.3342-1.6753v-5.8335c.0006-1.15994.4615-2.27218 1.2814-3.09258.82-.8204 1.932-1.28192 3.0919-1.28324h1.4602c1.1599.00132 2.2719.46284 3.0918 1.28324.82.8204 1.2809 1.93264 1.2815 3.09258v5.8335c-.0006 1.1586-.4605 2.2697-1.2788 3.0899-.8184.8202-1.9284 1.2826-3.087 1.2859zm-1.4603-11.66711c-.3866 0-.7574.15359-1.0308.42697-.2734.27339-.427.64417-.427 1.03084v5.8335c.0007.3864.1545.7568.4277 1.0301.2733.2732.6437.427 1.0301.4277h1.4603c.3864-.0007.7568-.1545 1.03-.4277.2732-.2733.427-.6437.4277-1.0301v-5.8335c0-.1915-.0377-.38104-.111-.55791-.0732-.17686-.1806-.33756-.316-.47293-.1353-.13536-.296-.24274-.4729-.316s-.3664-.11097-.5578-.11097z"></path>
    <path d="m59.9804 67.084h-49.5839v2.9155h49.5839z"></path>
    <path d="m41.019 23.334h-2.9155v14.5826h2.9155z"></path>
    <path d="m54.146 55.4166h-1.4577c-1.1599-.0007-2.2722-.4616-3.0926-1.2815s-1.2819-1.9319-1.2832-3.0918v-5.8335c.0013-1.1602.4628-2.2724 1.2831-3.0927.8203-.8204 1.9326-1.2818 3.0927-1.2831h1.4577c1.1601.0013 2.2724.4627 3.0927 1.2831.8203.8203 1.2818 1.9325 1.2831 3.0927v5.8335c-.0013 1.1599-.4628 2.2719-1.2832 3.0918s-1.9327 1.2808-3.0926 1.2815zm-1.4577-11.6671c-.3873 0-.7587.1539-1.0326.4277-.2738.2739-.4277.6453-.4277 1.0326v5.8335c.0007.3868.1548.7576.4286 1.0309s.6448.4268 1.0317.4268h1.4577c.3864-.0006.7569-.1544 1.0301-.4276.2732-.2733.427-.6437.4277-1.0301v-5.8335c0-.3869-.1535-.7579-.4268-1.0317s-.6441-.4279-1.031-.4286z"></path>
    <path d="m64.3555 40.834h-2.918v14.5826h2.918z"></path>
    <path d="m35.1968 55.4166h-1.4577c-1.1599-.0007-2.2722-.4616-3.0926-1.2815s-1.2819-1.9319-1.2832-3.0918v-5.8335c.0013-1.1602.4627-2.2724 1.2831-3.0927.8203-.8204 1.9325-1.2818 3.0927-1.2831h1.4577c1.1601.0013 2.2724.4627 3.0927 1.2831.8203.8203 1.2818 1.9325 1.2831 3.0927v5.8335c-.0013 1.1599-.4628 2.2719-1.2832 3.0918s-1.9327 1.2808-3.0926 1.2815zm-1.4577-11.6671c-.3873 0-.7587.1539-1.0326.4277-.2738.2739-.4277.6453-.4277 1.0326v5.8335c.0007.3868.1548.7576.4286 1.0309s.6448.4268 1.0317.4268h1.4577c.3864-.0006.7569-.1544 1.0301-.4276.2732-.2733.427-.6437.4277-1.0301v-5.8335c0-.3869-.1535-.7579-.4268-1.0317s-.6441-.4279-1.031-.4286z"></path>
    <path d="m22.0582 55.4176h-1.4578c-1.1599-.0007-2.2721-.4616-3.0926-1.2815-.8204-.82-1.2819-1.9319-1.2832-3.0918v-5.8336c.0013-1.1601.4628-2.2723 1.2831-3.0927.8203-.8203 1.9326-1.2817 3.0927-1.283h1.4578c1.1599.0013 2.2718.4628 3.0918 1.2832.8199.8204 1.2808 1.9326 1.2815 3.0925v5.8336c-.0014 1.1594-.4625 2.271-1.2824 3.0909s-1.9315 1.281-3.0909 1.2824zm-1.4578-11.6671c-.3873 0-.7587.1538-1.0325.4277-.2739.2738-.4278.6453-.4278 1.0325v5.8336c.0007.3868.1548.7576.4286 1.0309s.6448.4268 1.0317.4268h1.4578c.3864-.0006.7568-.1544 1.03-.4277.2733-.2732.4271-.6436.4277-1.03v-5.8336c0-.3868-.1535-.7579-.4268-1.0316-.2733-.2738-.6441-.428-1.0309-.4286z"></path>
    <path d="m45.397 40.834h-2.9156v14.5826h2.9156z"></path>
    <path d="m13.312 40.835h-2.9155v14.5826h2.9155z"></path>
    <path d="m22.062 23.334h-2.9155v14.5826h2.9155z"></path>
    <path d="m38.103 5.83398h-2.9155v14.58262h2.9155z"></path>
    <path d="m19.147 5.83398h-2.9156v14.58262h2.9156z"></path>
    <path d="m13.312 5.83398h-2.9155v14.58262h2.9155z"></path>
    <path d="m11.8554 37.9166h-1.4503c-1.15992-.0007-2.27216-.4616-3.09257-1.2815-.8204-.8199-1.28192-1.9319-1.28323-3.0918v-5.8335c.00131-1.1602.46275-2.2724 1.28308-3.0927.82033-.8204 1.93257-1.2818 3.09272-1.2831h1.4577c1.1602.0013 2.2724.4627 3.0927 1.2831.8204.8203 1.2818 1.9325 1.2831 3.0927v5.8335c-.0006.575-.1145 1.1442-.3351 1.6751-.2207.5309-.5437 1.0132-.9507 1.4193-.4071.4061-.8901.7281-1.4215.9475-.5315.2194-1.1009.332-1.6759.3314zm-1.4578-11.6522c-.3866 0-.75736.1536-1.03075.427-.27338.2733-.42698.6441-.42698 1.0307v5.8336c0 .3866.1536.7574.42698 1.0308.27339.2734.64415.427 1.03075.427h1.4578c.3866 0 .7574-.1536 1.0308-.427s.427-.6442.427-1.0308v-5.8459c0-.3867-.1536-.7575-.427-1.0308-.2734-.2734-.6442-.427-1.0308-.427z"></path>
    <path d="m46.853 23.334h-2.9155v14.5826h2.9155z"></path>
  </g>
</svg>
