<?xml version="1.0" encoding="UTF-8"?>
<svg xmlns="http://www.w3.org/2000/svg" xmlns:xlink="http://www.w3.org/1999/xlink" fill="none" height="50" viewBox="0 0 50 50" width="50">
  <clipPath id="a">
    <path d="m0 0h50v50h-50z"></path>
  </clipPath>
  <g clip-path="url(#a)" fill="#fff">
    <path d="m34.3764 50.0026h-18.7551c-.1368 0-.2724-.027-.3988-.0795-.1265-.0524-.2414-.1293-.3381-.2261-.0967-.0969-.1733-.2119-.2256-.3385-.0522-.1265-.079-.2621-.0787-.399v-6.2493c0-.2762.1097-.541.3049-.7363.1953-.1953.4602-.305.7363-.305h18.7498c.2762 0 .541.1097.7363.305s.305.4601.305.7363v6.2493c.0004.2756-.1083.5401-.3025.7356s-.4579.3061-.7335.3075zm-17.7085-2.0843h16.6619v-4.1668h-16.6672z"></path>
    <path d="m45.8349 43.7507h-41.6681c-1.10482-.001-2.16412-.4403-2.94534-1.2215-.781227-.7812-1.22052212-1.8405-1.22146-2.9453v-35.41708c.00140574-1.10468.440854-2.16371 1.22198-2.94484.78112-.781121 1.84014-1.22057426 2.94482-1.22198h41.6681c1.1047.00140574 2.1637.440859 2.9449 1.22198.7811.78113 1.2205 1.84016 1.2219 2.94484v35.41708c-.0014 1.1046-.4408 2.1637-1.2219 2.9448-.7812.7811-1.8402 1.2206-2.9449 1.222zm-41.6681-41.66641c-.55204.00094-1.08118.22065-1.47153.61099-.39034.39035-.61004.9195-.61098 1.47154v35.41708c.00047.5523.21996 1.0819.61036 1.4726.39039.3908.91981.6107 1.47215.6117h41.6681c.5524-.001 1.0818-.2209 1.4722-.6117.3904-.3907.6099-.9203.6103-1.4726v-35.41708c-.0009-.55204-.2206-1.08119-.611-1.47154-.3903-.39034-.9194-.61005-1.4715-.61099z"></path>
    <path d="m21.8768 27.0831h-1.0413c-.8285-.0004-1.6229-.3296-2.2089-.9153s-.9157-1.3799-.9166-2.2084v-4.1669c.0009-.8286.3305-1.6231.9165-2.209.5859-.586 1.3803-.9156 2.209-.9165h1.0413c.8295-.0005 1.6254.3285 2.2125.9146s.9174 1.3814.9183 2.2109v4.1669c-.0004.4106-.0818.8172-.2394 1.1965-.1576.3792-.3883.7237-.679 1.0138-.2908.29-.6358.52-1.0154.6767-.3796.1568-.7864.2372-1.197.2367zm-1.0413-8.323c-.2762 0-.541.1097-.7363.305-.1952.1953-.3049.4601-.3049.7363v4.1668c0 .2762.1097.541.3049.7363.1953.1953.4601.305.7363.305h1.0413c.1367 0 .2721-.027.3984-.0793.1264-.0523.2412-.129.3379-.2257.0966-.0967.1733-.2115.2257-.3378.0523-.1263.0792-.2618.0792-.3985v-4.1757c0-.1367-.0269-.2721-.0792-.3984-.0524-.1264-.1291-.2411-.2257-.3378-.0967-.0967-.2115-.1734-.3379-.2258-.1263-.0523-.2617-.0792-.3984-.0792z"></path>
    <path d="m39.584 27.0831h-1.0412c-.8285-.0004-1.623-.3296-2.209-.9153s-.9156-1.3799-.9166-2.2084v-4.1669c.001-.8286.3306-1.6231.9165-2.209.586-.586 1.3804-.9156 2.2091-.9165h1.0412c.8296-.0005 1.6254.3285 2.2125.9146s.9175 1.3814.9184 2.2109v4.1669c-.0005.4106-.0818.8172-.2394 1.1965-.1576.3792-.3883.7237-.6791 1.0138-.2907.29-.6357.52-1.0153.6767-.3796.1568-.7864.2372-1.1971.2367zm-1.0412-8.323c-.2762 0-.541.1097-.7363.305s-.305.4601-.305.7363v4.1668c0 .2762.1097.541.305.7363s.4601.305.7363.305h1.0412c.1368 0 .2722-.027.3985-.0793.1264-.0523.2411-.129.3378-.2257s.1734-.2115.2257-.3378c.0524-.1263.0793-.2618.0793-.3985v-4.1757c0-.1367-.0269-.2721-.0793-.3984-.0523-.1264-.129-.2411-.2257-.3378s-.2114-.1734-.3378-.2258c-.1263-.0523-.2617-.0792-.3985-.0792z"></path>
    <path d="m42.7144 14.5849h-1.0412c-.8287-.0009-1.6232-.3305-2.2091-.9165-.586-.5859-.9156-1.3804-.9165-2.209v-4.16686c.0009-.82866.3305-1.62311.9165-2.20906.5859-.58595 1.3804-.91555 2.2091-.91649h1.0412c.8287.00094 1.6231.33054 2.2091.91649s.9156 1.3804.9165 2.20906v4.16686c-.0009.8286-.3305 1.6231-.9165 2.209-.586.586-1.3804.9156-2.2091.9165zm-1.0412-8.33362c-.2764 0-.5414.10965-.737.30488-.1955.19522-.3056.46006-.3061.73638v4.16686c.0005.2763.1106.5411.3061.7363.1956.1953.4606.3049.737.3049h1.0412c.276-.0005.5406-.1103.7358-.3055.1952-.1951.305-.4597.3055-.7357v-4.16686c0-.27616-.1097-.541-.305-.73628-.1953-.19527-.4601-.30498-.7363-.30498z"></path>
    <path d="m33.3297 14.5849h-1.0413c-.8287-.0009-1.6231-.3305-2.2091-.9165-.5859-.5859-.9155-1.3804-.9165-2.209v-4.16686c.001-.82866.3306-1.62311.9165-2.20906.586-.58595 1.3804-.91555 2.2091-.91649h1.0413c.8285.00094 1.6227.3306 2.2084.9166s.9149 1.38046.9153 2.20895v4.16686c-.0004.8285-.3296 1.6229-.9153 2.2089s-1.3799.9157-2.2084.9166zm-1.0413-8.33362c-.2763 0-.5414.10965-.7369.30488-.1956.19522-.3057.46006-.3061.73638v4.16686c.0004.2763.1105.5411.3061.7363.1955.1953.4606.3049.7369.3049h1.0413c.276-.0005.5406-.1103.7357-.3055.1952-.1951.3051-.4597.3055-.7357v-4.16686c0-.27616-.1097-.541-.3049-.73628-.1953-.19527-.4602-.30498-.7363-.30498z"></path>
    <path d="m19.7923 14.5849h-1.0431c-.4107.0002-.8174-.0804-1.1969-.2374-.3795-.1569-.7244-.3871-1.015-.6773-.2905-.2902-.5211-.6349-.6784-1.0142-.1574-.3793-.2386-.786-.2388-1.1966v-4.16686c.0005-.82849.3297-1.62295.9154-2.20895.5856-.586 1.3799-.91566 2.2084-.9166h1.043c.8285.00094 1.6228.3306 2.2085.9166.5856.586.9149 1.38046.9153 2.20895v4.16686c-.0004.8275-.3289 1.6212-.9134 2.207-.5846.5859-1.3775.9162-2.205.9185zm-1.0431-8.33362c-.2761 0-.541.10971-.7363.30498-.1952.19528-.3049.46012-.3049.73628v4.16686c.0004.276.1103.5406.3054.7357.1952.1952.4598.3051.7358.3055h1.0431c.276-.0004.5405-.1103.7357-.3055.1952-.1951.305-.4597.3055-.7357v-4.16686c0-.13674-.0269-.27214-.0793-.39847-.0523-.12633-.129-.24112-.2257-.33781s-.2115-.17339-.3378-.22571c-.1263-.05233-.2617-.07927-.3984-.07927z"></path>
    <path d="m42.7093 47.917h-35.41706v2.0825h35.41706z"></path>
    <path d="m29.1653 16.667h-2.0825v10.4161h2.0825z"></path>
    <path d="m38.5418 39.5831h-1.0412c-.8285-.0004-1.623-.3296-2.209-.9153s-.9157-1.38-.9166-2.2085v-4.1668c.0009-.8286.3305-1.6231.9165-2.209.5859-.586 1.3804-.9156 2.2091-.9165h1.0412c.8287.0009 1.6231.3305 2.2091.9165.5859.5859.9155 1.3804.9165 2.209v4.1668c-.001.8285-.3306 1.6228-.9166 2.2085s-1.3805.9149-2.209.9153zm-1.0412-8.3336c-.2767 0-.542.1099-.7376.3055s-.3055.4609-.3055.7375v4.1668c.0005.2764.1106.5412.3061.7364.1956.1953.4606.3049.737.3049h1.0412c.276-.0005.5406-.1103.7358-.3055.1951-.1952.305-.4597.3055-.7358v-4.1668c0-.2763-.1097-.5413-.3049-.7369-.1952-.1955-.4601-.3056-.7364-.3061z"></path>
    <path d="m45.8343 29.167h-2.0843v10.4161h2.0843z"></path>
    <path d="m25.0067 39.5831h-1.0413c-.8285-.0004-1.623-.3296-2.209-.9153s-.9156-1.38-.9166-2.2085v-4.1668c.001-.8286.3306-1.6231.9165-2.209.586-.586 1.3804-.9156 2.2091-.9165h1.0413c.8286.0009 1.6231.3305 2.209.9165.586.5859.9156 1.3804.9165 2.209v4.1668c-.0009.8285-.3306 1.6228-.9166 2.2085s-1.3804.9149-2.2089.9153zm-1.0413-8.3336c-.2766 0-.5419.1099-.7375.3055s-.3055.4609-.3055.7375v4.1668c.0004.2764.1105.5412.3061.7364.1955.1953.4606.3049.7369.3049h1.0413c.276-.0005.5406-.1103.7357-.3055.1952-.1952.3051-.4597.3055-.7358v-4.1668c0-.2763-.1096-.5413-.3048-.7369-.1953-.1955-.4601-.3056-.7364-.3061z"></path>
    <path d="m15.6219 39.5841h-1.0413c-.8285-.0005-1.6229-.3297-2.2089-.9153-.586-.5857-.9157-1.38-.9166-2.2085v-4.1668c.0009-.8286.3305-1.6231.9165-2.209.5859-.586 1.3804-.9156 2.209-.9165h1.0413c.8285.0009 1.6228.3306 2.2084.9166.5857.586.9149 1.3804.9154 2.2089v4.1668c-.001.8282-.3304 1.6222-.916 2.2078-.5856.5857-1.3796.9151-2.2078.916zm-1.0413-8.3336c-.2766 0-.5419.1099-.7375.3055s-.3055.4609-.3055.7375v4.1668c.0005.2763.1106.5412.3061.7364.1956.1952.4606.3049.7369.3049h1.0413c.276-.0005.5406-.1103.7358-.3055.1951-.1952.305-.4598.3055-.7358v-4.1668c0-.2763-.1097-.5413-.3049-.7369s-.4601-.3056-.7364-.3061z"></path>
    <path d="m32.2925 29.167h-2.0825v10.4161h2.0825z"></path>
    <path d="m9.37476 29.168h-2.08252v10.4161h2.08252z"></path>
    <path d="m15.6248 16.667h-2.0826v10.4161h2.0826z"></path>
    <path d="m27.0825 4.16699h-2.0825v10.41611h2.0825z"></path>
    <path d="m13.5425 4.16699h-2.0825v10.41611h2.0825z"></path>
    <path d="m9.37476 4.16699h-2.08252v10.41611h2.08252z"></path>
    <path d="m8.33411 27.0831h-1.03595c-.82849-.0004-1.62295-.3296-2.20896-.9153-.586-.5857-.91565-1.3799-.91659-2.2084v-4.1669c.00093-.8286.33053-1.6231.91649-2.209.58595-.586 1.3804-.9156 2.20906-.9165h1.04127c.82866.0009 1.62311.3305 2.20907.9165.5859.5859.9155 1.3804.9165 2.209v4.1669c-.0005.4106-.0818.8172-.2394 1.1965-.1576.3792-.3884.7237-.6791 1.0138-.2907.29-.63574.52-1.01534.6767-.3796.1568-.78637.2372-1.19705.2367zm-1.04126-8.323c-.27616 0-.541.1097-.73627.305-.19528.1953-.30499.4601-.30499.7363v4.1668c0 .2762.10971.541.30499.7363.19527.1953.46011.305.73627.305h1.04126c.27616 0 .54102-.1097.73629-.305s.30497-.4601.30497-.7363v-4.1757c0-.2761-.1097-.541-.30497-.7362-.19527-.1953-.46013-.305-.73629-.305z"></path>
    <path d="m33.3325 16.667h-2.0825v10.4161h2.0825z"></path>
  </g>
</svg>
