<?xml version="1.0" encoding="UTF-8"?>
<svg xmlns="http://www.w3.org/2000/svg" width="83" height="88" viewBox="0 0 83 88" fill="none">
  <g clip-path="url(#clip0_4197_24651)">
    <path d="M32.5937 58.9524C30.7741 57.5001 28.8865 56.0085 26.9673 54.4923C18.5642 47.8509 9.57011 40.7415 3.05072 34.4706C2.93231 34.776 2.86817 35.109 2.86817 35.4588V82.3809C2.86817 82.7484 2.94119 83.0992 3.0744 83.4203L32.5947 58.9524H32.5937ZM44.4178 63.8075C43.6008 64.4844 42.539 64.8184 41.4842 64.8105H41.4349C41.4181 64.8105 41.4023 64.8095 41.3855 64.8085C41.3688 64.8085 41.353 64.8085 41.3362 64.8065C41.3194 64.8065 41.3036 64.8056 41.2869 64.8046L41.2375 64.8016C41.2207 64.8016 41.205 64.7996 41.1882 64.7987C41.1714 64.7977 41.1556 64.7967 41.1389 64.7947C41.1221 64.7937 41.1063 64.7918 41.0895 64.7908C41.0727 64.7898 41.057 64.7878 41.0402 64.7859C41.0234 64.7839 41.0076 64.7829 40.9908 64.7809C40.9741 64.779 40.9583 64.777 40.9415 64.775C40.9247 64.773 40.9089 64.7711 40.8922 64.7691C40.8754 64.7671 40.8596 64.7652 40.8428 64.7622C40.8261 64.7602 40.8103 64.7573 40.7935 64.7553C40.7767 64.7533 40.7609 64.7504 40.7442 64.7474C40.7274 64.7445 40.7116 64.7425 40.6948 64.7395L40.6455 64.7307L40.5971 64.7218C40.5804 64.7189 40.5646 64.7159 40.5488 64.712L40.5004 64.7021C40.4846 64.6982 40.4679 64.6952 40.4521 64.6913C40.4363 64.6873 40.4195 64.6844 40.4037 64.6804C40.3879 64.6765 40.3712 64.6725 40.3554 64.6686C40.3396 64.6647 40.3228 64.6607 40.307 64.6568L40.2587 64.644C40.2429 64.64 40.2271 64.6351 40.2103 64.6312C40.1945 64.6262 40.1788 64.6223 40.163 64.6174C40.1472 64.6124 40.1314 64.6085 40.1156 64.6036C40.0998 64.5987 40.084 64.5937 40.0682 64.5888C40.0525 64.5839 40.0367 64.579 40.0209 64.574C40.0051 64.5691 39.9893 64.5642 39.9735 64.5583C39.9577 64.5533 39.9419 64.5474 39.9261 64.5425C39.9104 64.5376 39.8946 64.5317 39.8798 64.5258L39.8334 64.509C39.8028 64.4972 39.7712 64.4854 39.7406 64.4735C39.7249 64.4676 39.7101 64.4617 39.6943 64.4548C39.6785 64.4489 39.6637 64.442 39.6479 64.4361C39.6331 64.4292 39.6173 64.4233 39.6025 64.4164C39.5877 64.4095 39.5719 64.4036 39.5571 64.3967C39.5423 64.3898 39.5265 64.3829 39.5117 64.376L39.4663 64.3553C39.4515 64.3484 39.4367 64.3415 39.4219 64.3336C39.4071 64.3267 39.3923 64.3189 39.3775 64.312L39.3331 64.2893L39.2887 64.2666C39.2739 64.2588 39.2591 64.2509 39.2453 64.243C39.2305 64.2351 39.2167 64.2272 39.2019 64.2193C39.1871 64.2115 39.1733 64.2036 39.1585 64.1947C39.1437 64.1868 39.1298 64.178 39.115 64.1701C39.1002 64.1622 39.0864 64.1533 39.0726 64.1445C39.0302 64.1189 38.9878 64.0923 38.9463 64.0657C38.9325 64.0568 38.9187 64.0479 38.9049 64.0381C38.8911 64.0292 38.8772 64.0193 38.8634 64.0105C38.8496 64.0016 38.8358 63.9918 38.822 63.9819C38.8082 63.9721 38.7944 63.9632 38.7815 63.9533C38.7677 63.9435 38.7549 63.9336 38.7411 63.9238C38.7273 63.9139 38.7144 63.9041 38.7006 63.8942C38.6878 63.8844 38.674 63.8745 38.6611 63.8637C38.6483 63.8538 38.6345 63.843 38.6217 63.8331C38.6089 63.8233 38.596 63.8125 38.5822 63.8016C38.5694 63.7908 38.5566 63.7809 38.5437 63.7701C37.2501 62.6982 35.8864 61.5888 34.4705 60.4499L4.83672 85.0193C5.08735 85.0952 5.35377 85.1356 5.62808 85.1356H77.3729C77.6472 85.1356 77.9126 85.0952 78.1643 85.0193L48.495 60.4282L44.4178 63.8075V63.8075ZM65.6445 46.2134L50.3402 58.8982L79.9256 83.4203C80.0578 83.0992 80.1318 82.7474 80.1318 82.3809V35.4588C80.1318 35.0824 80.0568 34.7248 79.9207 34.4016L79.9137 34.3858L65.6445 46.2134ZM14.3163 40.6351V24.6883L4.69759 32.6617L14.3163 40.6351V40.6351ZM66.3283 42.5868V13.0282C66.3283 12.376 66.0599 11.7829 65.6287 11.3514C65.1965 10.9198 64.6025 10.6528 63.9493 10.6528H19.0645C18.4113 10.6528 17.8173 10.9208 17.3851 11.3514C16.9529 11.7829 16.6855 12.376 16.6855 13.0282V42.5967L34.506 57.3671L40.0534 61.9652L40.0722 61.9799L40.0909 61.9947L40.1097 62.0095L40.1284 62.0233L40.1472 62.0371L40.1669 62.0509L40.1866 62.0647L40.2064 62.0785L40.2261 62.0913L40.2458 62.1041L40.2656 62.1169L40.2863 62.1297L40.307 62.1415L40.3278 62.1533L40.3485 62.1652L40.3692 62.177L40.3899 62.1878L40.4106 62.1987L40.4323 62.2095L40.4541 62.2203L40.4758 62.2302L40.4975 62.24L40.5192 62.2499L40.5409 62.2597L40.5626 62.2696L40.5853 62.2785L40.608 62.2873L40.6307 62.2962L40.6534 62.3051L40.6761 62.3129L40.6988 62.3208L40.7215 62.3287L40.7442 62.3366L40.7668 62.3435L40.7905 62.3504L40.8142 62.3573L40.8379 62.3642L40.8616 62.3701L40.8853 62.376L40.9089 62.3819L40.9326 62.3878L40.9563 62.3927L40.98 62.3977L41.0037 62.4026L41.0273 62.4075L41.051 62.4124L41.0757 62.4164L41.1004 62.4203L41.125 62.4243L41.1497 62.4282L41.1744 62.4312L41.199 62.4341L41.2237 62.4371L41.2484 62.44L41.273 62.442L41.2977 62.444L41.3224 62.4459L41.3471 62.4479H41.3717L41.3964 62.4509H41.4211L41.4457 62.4528H41.4951C42.023 62.4578 42.538 62.3051 42.911 61.9957L66.3303 42.5839L66.3283 42.5868ZM68.6965 24.6992V40.6233L78.2985 32.6647L68.6965 24.6982V24.6992ZM34.1034 8.28831H48.9193L42.9239 3.31393C42.5509 3.00457 42.0358 2.85186 41.5079 2.8558C40.978 2.85974 40.455 3.02329 40.0663 3.34546L34.1024 8.28831H34.1034ZM19.0645 8.28831H30.411L38.5585 1.53462C39.3815 0.852846 40.4462 0.508018 41.499 0.500136C42.5528 0.492255 43.6156 0.826245 44.4316 1.50408L52.6087 8.28831H63.9493C65.2557 8.28831 66.4428 8.82132 67.3032 9.67945C68.1627 10.5376 68.6965 11.7238 68.6965 13.0282V21.6361L80.1437 31.1336C81.5734 32.5612 82.499 33.1258 82.499 35.4578V82.3799C82.499 83.3228 82.2415 84.2075 81.7925 84.9671L81.9129 85.0666L81.1373 85.8469C81.0909 85.8972 81.0426 85.9474 80.9942 85.9957C80.118 86.8706 78.928 87.4322 77.6117 87.4932H77.587L77.5525 87.4962H77.517L77.4953 87.4982C77.4785 87.4982 77.4607 87.4982 77.4439 87.4982H77.4341C77.4134 87.4982 77.3926 87.4982 77.3719 87.4982H5.62808C5.60736 87.4982 5.58664 87.4982 5.56592 87.4982H5.55605C5.53928 87.4982 5.52152 87.4982 5.50474 87.4972H5.48303L5.44751 87.4952H5.41297L5.38831 87.4923C4.072 87.4312 2.88199 86.8696 2.00576 85.9947C1.95741 85.9464 1.90906 85.8962 1.86269 85.8459L1.08612 85.0647L1.20651 84.9652C0.757539 84.2046 0.5 83.3198 0.5 82.378V35.4588C0.5 34.7671 0.641104 34.1041 0.895682 33.4962C1.35945 32.3918 2.93725 31.1711 3.83715 30.3149L14.3173 21.6282V13.0282C14.3173 11.7238 14.8511 10.5386 15.7106 9.67945C16.57 8.82132 17.7581 8.28831 19.0645 8.28831V8.28831Z" fill="#37DB9F"></path>
    <path d="M43.2289 28.2374C42.9832 27.2088 42.4592 26.4394 41.7172 26.1714H41.7152C40.9732 25.9044 40.0782 26.1665 39.2306 26.8059C38.2409 27.5527 37.3548 28.7744 36.8072 30.2965L36.8052 30.3015C36.2576 31.8266 36.1618 33.331 36.449 34.532C36.6947 35.5606 37.2186 36.33 37.9607 36.597H37.9626C38.7047 36.864 39.5996 36.6019 40.4472 35.9625C41.4369 35.2157 42.323 33.9941 42.8707 32.4719C43.4193 30.9448 43.516 29.4384 43.2279 28.2354L43.2289 28.2374ZM48.2326 24.3418L45.8911 36.7468C45.8664 36.8768 45.8635 36.9635 45.8773 37.0148C45.8842 37.0404 45.8822 36.9842 45.9059 36.9931C46.1013 37.065 46.3993 37.0778 46.7298 37.0532C47.4413 37.0019 48.1566 36.7882 48.5 36.6098C49.7532 35.9566 50.5228 35.3241 51.0103 34.5418C51.5125 33.7369 51.7711 32.6926 51.9832 31.2532C52.0977 30.4739 52.1904 29.4157 52.2033 28.4098C52.2131 27.6177 52.1746 26.8591 52.0622 26.3064C52.0059 26.0295 51.9349 25.7606 51.851 25.5015C51.0744 23.1015 49.1444 21.6256 46.8384 20.8571C44.4051 20.0463 41.5711 20.0079 39.1596 20.4995C38.6534 20.6029 38.1659 20.73 37.7041 20.8788C35.3231 21.6473 33.3605 23.063 32.0165 25.0571C30.7229 26.9773 29.9878 29.4542 29.9878 32.4295C29.9878 34.6788 30.5749 36.5655 31.5567 38.1054C32.7428 39.9655 34.5169 41.3497 36.5388 42.2739C38.6001 43.2157 40.912 43.6778 43.1312 43.6778V43.6729C45.5665 43.6729 47.8616 43.1231 49.5539 42.0463C49.992 41.7675 50.9925 40.9103 51.8816 40.063C52.0454 39.9074 52.2023 39.7556 52.3483 39.6108H55.3815C55.1576 40.0936 54.38 40.9428 53.5097 41.7714C52.5358 42.6985 51.3823 43.6739 50.8208 44.0315C48.7349 45.3586 45.9888 46.0364 43.1312 46.0364V46.0315C40.5874 46.0315 37.9311 45.4995 35.558 44.4148C33.1454 43.3123 31.015 41.6384 29.5675 39.3684C28.3479 37.4571 27.6187 35.1458 27.6187 32.4276C27.6187 28.9694 28.5008 26.0492 30.0539 23.7438C31.7028 21.2965 34.0936 19.5635 36.9808 18.6325C37.5196 18.4591 38.0909 18.3093 38.6859 18.1882C41.4616 17.6226 44.7445 17.6729 47.5853 18.6197C50.5534 19.6088 53.0548 21.5596 54.0968 24.7793C54.2054 25.1152 54.2981 25.466 54.3731 25.8335C54.5221 26.5596 54.5724 27.4906 54.5606 28.4364C54.5468 29.5822 54.4461 30.7527 54.3228 31.5941C54.0652 33.3418 53.7248 34.6542 53.0173 35.7872C52.296 36.9438 51.2461 37.8325 49.5904 38.6955C49.0289 38.9882 47.9257 39.333 46.8956 39.4069C46.27 39.4522 45.6336 39.4029 45.082 39.198C44.3577 38.93 43.8091 38.4325 43.592 37.6128C43.4913 37.2335 43.4765 36.8019 43.5693 36.3103L43.6186 36.0473C43.0927 36.7625 42.4987 37.3704 41.8711 37.8433C40.468 38.9005 38.8754 39.3231 37.3923 38.8847H37.3726L37.1663 38.8108C35.6221 38.2571 34.584 36.8689 34.1548 35.0729C33.767 33.4492 33.8795 31.463 34.587 29.4975L34.6107 29.4315V29.4285C35.3231 27.4896 36.4894 25.9093 37.8067 24.9162C39.2099 23.8591 40.8025 23.4364 42.2855 23.8749H42.3063L42.5125 23.9487C43.8564 24.4305 44.8165 25.5448 45.3267 27.0088L45.8309 24.3379H48.2346L48.2326 24.3418Z" fill="#37DB9F"></path>
  </g>
  <defs>
    <clipPath id="clip0_4197_24651">
      <rect width="82" height="87" fill="white" transform="translate(0.5 0.5)"></rect>
    </clipPath>
  </defs>
</svg>
