<?xml version="1.0" encoding="UTF-8"?>
<svg xmlns="http://www.w3.org/2000/svg" id="Layer_1" viewBox="0 0 123.77 124.43">
  <defs>
    <style>.cls-1{fill:#fff;}.cls-2{fill:#8b9aff;}</style>
  </defs>
  <ellipse class="cls-2" cx="61.89" cy="62.22" rx="61.89" ry="62.22"></ellipse>
  <g>
    <path class="cls-1" d="M87.78,28.55H36c-4.29,0-7.77,3.47-7.77,7.76v51.81c0,4.29,3.48,7.76,7.77,7.76h51.78c4.29,0,7.76-3.48,7.76-7.76V36.31c0-4.29-3.48-7.76-7.76-7.76Zm4.4,59.57c0,2.43-1.97,4.4-4.4,4.4H36c-2.43,0-4.4-1.97-4.4-4.4h0V36.31c0-2.43,1.97-4.4,4.4-4.4h51.78c2.43,0,4.39,1.97,4.4,4.4v51.81Z"></path>
    <path class="cls-1" d="M61.89,37.24c-13.79,.02-24.95,11.21-24.93,24.99,.02,13.79,11.21,24.95,24.99,24.93,13.78-.02,24.93-11.19,24.93-24.96-.02-13.79-11.2-24.96-24.99-24.96Zm18.17,13.32c-1.25,1.8-4.87,6.1-10.98,6.3-1.15-1.55-2.77-2.7-4.62-3.26,1.69-4.09,1.74-8.67,.14-12.79,6.34,.81,12.01,4.38,15.47,9.75Zm-18.17,17.26c-3.1,0-5.62-2.51-5.63-5.61,0-3.1,2.51-5.62,5.61-5.63,3.1,0,5.62,2.51,5.63,5.61,0,0,0,0,0,0,0,3.1-2.51,5.61-5.61,5.62Zm-.98-27.19c2,3.98,2,8.67,0,12.65-1.94,.2-3.76,1.03-5.18,2.36-2.7-3.52-6.65-5.86-11.03-6.53,3.87-5.09,9.8-8.2,16.19-8.48h.02Zm-18.19,11.65c2.18,.18,7.7,1.16,10.93,6.36-.77,1.78-.94,3.76-.49,5.64-4.4,.57-8.41,2.83-11.18,6.3-2.48-5.91-2.21-12.61,.74-18.29Zm.98,21.56c2.46-3.72,6.54-6.05,10.99-6.29,1.16,1.56,2.79,2.69,4.64,3.25-1.69,4.09-1.74,8.67-.14,12.79-6.35-.8-12.02-4.37-15.49-9.75h0Zm19.19,9.93c-2-3.98-2-8.67,0-12.64,1.93-.23,3.73-1.07,5.15-2.41,2.69,3.52,6.64,5.87,11.02,6.54-3.86,5.09-9.78,8.21-16.17,8.51Zm18.18-11.65c-2.19-.18-7.71-1.16-10.94-6.35,.78-1.78,.96-3.76,.49-5.65,4.4-.57,8.41-2.83,11.18-6.3,2.49,5.9,2.22,12.61-.73,18.29Z"></path>
    <rect class="cls-1" x="80.92" y="36.74" width="5.98" height="3.37"></rect>
    <rect class="cls-1" x="80.92" y="83.49" width="5.98" height="3.37"></rect>
    <rect class="cls-1" x="36.31" y="36.74" width="5.98" height="3.37"></rect>
    <rect class="cls-1" x="36.31" y="83.49" width="5.98" height="3.37"></rect>
  </g>
</svg>
