<?xml version="1.0" encoding="UTF-8"?>
<svg xmlns="http://www.w3.org/2000/svg" xmlns:xlink="http://www.w3.org/1999/xlink" fill="none" height="70" viewBox="0 0 71 70" width="71">
  <clipPath id="a">
    <path d="m.1875 0h70v70h-70z"></path>
  </clipPath>
  <g clip-path="url(#a)" fill="#383593">
    <path d="m46.8556 59.793h-23.3341v2.9155h23.3341z"></path>
    <path d="m67.271 59.793h-5.8335v2.9155h5.8335z"></path>
    <path d="m59.9416 55.7544-2.8386-.6743 6.8649-28.8306h-57.55947l6.86487 28.8306-2.8362.6743-7.30121-30.6255c-.0514-.2141-.05352-.4372-.0062-.6523s.14285-.4167.27939-.5895.31053-.3124.50886-.4082c.19832-.0958.41579-.1454.63605-.1449h61.26091c.2202-.0005.4377.0491.636.1449s.3723.2354.5089.4082c.1365.1728.232.3744.2794.5895.0473.2151.0452.4382-.0063.6523z"></path>
    <path d="m8.93705 59.793h-5.83353v2.9155h5.83353z"></path>
    <path d="m54.1476 69.9992c-1.7307.0005-3.4227-.5122-4.862-1.4732-1.4394-.961-2.5615-2.3272-3.2244-3.9258-.663-1.5987-.8371-3.358-.5003-5.0556s1.1693-3.2573 2.3924-4.4817c1.2231-1.2245 2.7818-2.0588 4.479-2.3975 1.6972-.3388 3.4567-.1667 5.0562.4945 1.5994.6612 2.9668 1.7817 3.9295 3.22.9626 1.4382 1.4772 3.1296 1.4787 4.8603 0 2.3213-.9215 4.5477-2.562 6.19-1.6405 1.6424-3.8658 2.5664-6.1871 2.569zm0-14.5826c-1.1542 0-2.2824.3424-3.242.9838-.9595.6414-1.7072 1.5531-2.1484 2.6196-.4413 1.0665-.5562 2.24-.3303 3.3719.2259 1.1318.7824 2.1712 1.5993 2.9867.8168.8154 1.8572 1.3702 2.9894 1.5942 1.1323.224 2.3055.107 3.3713-.336 1.0657-.4431 1.9761-1.1923 2.6159-2.1529.6398-.9607.9803-2.0895.9783-3.2437-.0039-1.545-.6201-3.0255-1.7135-4.1171-1.0935-1.0916-2.575-1.7052-4.12-1.7065z"></path>
    <path d="m4.66414 22.0547c-.06727-.5436-.10121-1.0909-.10164-1.6387.00233-2.3362.62803-4.6294 1.81255-6.6429 1.18451-2.0136 2.88492-3.6746 4.92575-4.81165 2.0408-1.137 4.348-1.70881 6.6836-1.65639 2.3355.05242 4.6148.72716 6.6025 1.95458l-1.5346 2.47916c-1.5461-.954-3.3187-1.4783-5.135-1.5187-1.8163-.0405-3.6106.4043-5.1976 1.2885-1.5871.8843-2.90952 2.1759-3.83092 3.7417-.92139 1.5657-1.40838 3.3489-1.41075 5.1657-.00039.4277.02693.8551.08181 1.2793z"></path>
    <path d="m39.6672 22.0695c-.243-1.8522-.0879-3.735.455-5.5225.5428-1.7875 1.461-3.4386 2.693-4.8429 1.2321-1.4042 2.7497-2.52938 4.4514-3.30019 1.7016-.7708 3.5483-1.16953 5.4164-1.16953s3.7148.39873 5.4165 1.16953c1.7016.77081 3.2192 1.89599 4.4513 3.30019 1.232 1.4043 2.1502 3.0554 2.693 4.8429.5429 1.7875.698 3.6703.455 5.5225l-2.8933-.3594c.0529-.4244.0794-.8517.0794-1.2793-.0418-2.6798-1.1356-5.2357-3.0455-7.116-1.9098-1.8804-4.4825-2.9343-7.1626-2.9343s-5.2528 1.0539-7.1626 2.9343c-1.9099 1.8803-3.0037 4.4362-3.0455 7.116.0001.4285.0266.8565.0793 1.2817z"></path>
    <path d="m26.5103 22.9722c-1.5511-1.3668-2.7574-3.0807-3.5207-5.002-.7632-1.9214-1.0617-3.9958-.8713-6.0544.1905-2.05865.8645-4.04314 1.9673-5.79186 1.1027-1.74872 2.603-3.2122 4.3786-4.27122 1.7755-1.059014 3.7761-1.6836 5.8388-1.8228932 2.0627-.1392928 4.1292.2106492 6.031 1.0213332 1.9018.81069 3.5852 2.05918 4.9131 3.64377 1.3278 1.58458 2.2626 3.46043 2.7281 5.47477l-2.8412.6545c-.3636-1.56588-1.0918-3.02376-2.1254-4.25496-1.0335-1.2312-2.3432-2.20094-3.8224-2.83028s-3.0861-.90048-4.6899-.79136c-1.6039.10912-3.1592.59544-4.5396 1.41933-1.3803.82389-2.5466 1.96209-3.4038 3.32194-.8573 1.35985-1.3813 2.90293-1.5295 4.50363-.1481 1.6006.0838 3.2137.6769 4.7078.5931 1.494 1.5307 2.827 2.7364 3.8902z"></path>
    <path d="m16.2325 70.0002c-1.7306.0005-3.4226-.5122-4.862-1.4732-1.43931-.961-2.5614-2.3272-3.22438-3.9259-.66298-1.5986-.83709-3.358-.50029-5.0556.3368-1.6975 1.16938-3.2572 2.39247-4.4817 1.2231-1.2244 2.7817-2.0588 4.479-2.3975 1.6972-.3387 3.4567-.1666 5.0561.4946 1.5994.6611 2.9669 1.7817 3.9295 3.22.9627 1.4382 1.4772 3.1296 1.4787 4.8603 0 2.3213-.9214 4.5477-2.5619 6.19-1.6405 1.6424-3.8658 2.5663-6.1872 2.569zm0-14.5826c-1.1541 0-2.2824.3423-3.2419.9838-.9596.6414-1.7072 1.5531-2.1485 2.6196-.4412 1.0665-.5562 2.24-.3303 3.3718.2259 1.1319.7825 2.1713 1.5993 2.9868.8169.8154 1.8572 1.3702 2.9895 1.5942 1.1322.224 2.3055.107 3.3712-.3361 1.0658-.443 1.9762-1.1922 2.616-2.1529.6398-.9606.9802-2.0894.9783-3.2436-.004-1.545-.6201-3.0255-1.7136-4.1171-1.0934-1.0916-2.5749-1.7052-4.12-1.7065z"></path>
    <path d="m70.1875 23.334h-70v2.9155h70z"></path>
    <path d="m17.6841 59.793h-2.9155v2.9155h2.9155z"></path>
    <path d="m55.603 59.793h-2.9155v2.9155h2.9155z"></path>
    <path d="m48.3122 49.584h-26.2497v2.9155h26.2497z"></path>
    <path d="m55.6033 40.835h-40.8347v2.9155h40.8347z"></path>
    <path d="m57.0628 32.083h-43.7503v2.918h43.7503z"></path>
    <path d="m35.1871 18.9581c-1.0861-.0018-2.1501-.3068-3.0723-.8806-.9221-.5738-1.6657-1.3937-2.1472-2.3673-.4814-.9735-.6814-2.0622-.5776-3.1433s.5074-2.1118 1.1653-2.97599c.6579-.86416 1.544-1.5275 2.5585-1.91532s2.1171-.48472 3.1837-.27979c1.0666.20494 2.0548.70356 2.8533 1.43973.7986.73618 1.3758 1.68067 1.6666 2.72707l-2.8115.7785c-.163-.5849-.5046-1.1044-.9769-1.486-.4724-.3817-1.052-.6064-1.6582-.643-.6061-.0365-1.2086.1169-1.7233.439-.5148.3221-.9163.7968-1.1485 1.3579-.2323.5611-.2836 1.1806-.147 1.7723s.4544 1.126.9091 1.5285 1.0236.6531 1.6275.7169 1.2126-.0624 1.7414-.361l1.4355 2.5412c-.879.4937-1.8703.7524-2.8784.7512z"></path>
    <path d="m47.1924 22.3744c-.3123-.8801-.4088-1.8222-.2813-2.7473.1274-.9251.4751-1.8061 1.0138-2.5689s1.2527-1.3851 2.0819-1.8146c.8292-.4296 1.7493-.6538 2.6832-.6538.9338 0 1.854.2242 2.6832.6538.8292.4295 1.5431 1.0518 2.0818 1.8146s.8864 1.6438 1.0139 2.5689.031 1.8672-.2813 2.7473l-2.7495-.9917c.1115-.3118.1677-.6407.1662-.9718.0001-.4252-.0928-.8453-.272-1.2309-.1793-.3856-.4407-.7273-.7658-1.0013-.3252-.274-.7063-.4736-1.1167-.5848-.4104-.1113-.8401-.1315-1.2592-.0593-.419.0722-.8172.2351-1.1666.4774-.3495.2422-.6418.5579-.8565.9249s-.3466.7765-.3864 1.1999c-.0399.4233.0133.8502.1557 1.2509z"></path>
    <path d="m12.1937 22.3743c-.3868-1.0879-.4422-2.266-.1593-3.3854s.8915-2.1297 1.7488-2.9031c.8572-.7734 1.9247-1.2751 3.0671-1.4417 1.1425-.1666 2.3088.0094 3.3512.5058l-1.2569 2.6329c-.3914-.1879-.8204-.2846-1.2545-.2826-.7731.0006-1.5143.308-2.0609.8546-.5466.5467-.854 1.2878-.8546 2.0609-.0016.3327.0546.6633.1661.9768z"></path>
  </g>
</svg>
