<?xml version="1.0" encoding="UTF-8"?>
<svg xmlns="http://www.w3.org/2000/svg" fill="none" height="50" viewBox="0 0 50 50" width="50">
  <g fill="#fff">
    <path d="m33.3345 42.709h-16.6673v2.0825h16.6673z"></path>
    <path d="m47.9168 42.709h-4.1668v2.0825h4.1668z"></path>
    <path d="m42.6816 39.8254-2.0276-.4817 4.9035-20.5932h-41.11387l4.90349 20.5932-2.02586.4817-5.21516-21.8753c-.03672-.153-.03823-.3123-.00443-.466.0338-.1536.10204-.2976.19957-.421.09752-.1235.2218-.2232.36346-.2916.14166-.0685.297-.1039.45432-.1035h43.75778c.1573-.0004.3127.035.4543.1035.1417.0684.2659.1681.3635.2916.0975.1234.1657.2674.1995.421.0338.1537.0323.313-.0044.466z"></path>
    <path d="m6.24958 42.709h-4.16682v2.0825h4.16682z"></path>
    <path d="m38.5429 50.0003c-1.2362.0003-2.4447-.3659-3.4728-1.0523-1.0282-.6864-1.8296-1.6623-2.3032-2.8042s-.5979-2.3986-.3573-3.6111c.2405-1.2126.8352-2.3266 1.7088-3.2012.8737-.8747 1.987-1.4706 3.1993-1.7126 1.2123-.2419 2.4691-.119 3.6116.3533 1.1424.4723 2.1192 1.2726 2.8068 2.3.6875 1.0273 1.0551 2.2354 1.0562 3.4716 0 1.6581-.6582 3.2484-1.83 4.4215s-2.7613 1.8331-4.4194 1.835zm0-10.4162c-.8244 0-1.6303.2446-2.3157.7027-.6854.4582-1.2194 1.1094-1.5346 1.8712s-.3973 1.6-.2359 2.4085c.1614.8084.5589 1.5509 1.1424 2.1333.5834.5825 1.3265.9788 2.1353 1.1388.8087.1599 1.6467.0764 2.408-.2401.7613-.3164 1.4115-.8516 1.8685-1.5378.457-.6861.7002-1.4924.6988-2.3169-.0028-1.1035-.4429-2.161-1.2239-2.9407-.7811-.7797-1.8393-1.2181-2.9429-1.219z"></path>
    <path d="m3.1976 15.7537c-.04805-.3884-.07229-.7793-.0726-1.1706.00166-1.6686.44859-3.3066 1.29468-4.74493.84608-1.43827 2.06065-2.62471 3.51836-3.43686 1.45772-.81214 3.10576-1.22057 4.77396-1.18313 1.6683.03744 3.2964.5194 4.7162 1.39613l-1.0962 1.77085c-1.1043-.68146-2.3705-1.05594-3.6679-1.08484-1.2973-.02891-2.5789.28883-3.71254.92042-1.13361.63159-2.07822 1.55417-2.73636 2.67256-.65814 1.1184-1.00599 2.3922-1.00768 3.6898-.00028.3056.01923.6108.05843.9138z"></path>
    <path d="m28.1998 15.7645c-.1736-1.323-.0628-2.6679.325-3.9447.3877-1.2768 1.0435-2.4561 1.9236-3.45915.88-1.00305 1.964-1.80672 3.1795-2.3573 1.2155-.55057 2.5345-.83538 3.8689-.83538s2.6534.28481 3.8689.83538c1.2155.55058 2.2995 1.35425 3.1795 2.3573s1.5358 2.18235 1.9236 3.45915.4986 2.6217.325 3.9447l-2.0666-.2568c.0377-.3031.0566-.6083.0566-.9137-.0298-1.9142-.8111-3.7398-2.1753-5.0829-1.3642-1.34308-3.2018-2.09587-5.1161-2.09587-1.9144 0-3.752.75279-5.1162 2.09587-1.3642 1.3431-2.1455 3.1687-2.1753 5.0829 0 .306.0189.6118.0566.9155z"></path>
    <path d="m18.802 16.4087c-1.1079-.9762-1.9696-2.2005-2.5148-3.5728-.5451-1.3724-.7584-2.85422-.6223-4.32465.136-1.47043.6175-2.88792 1.4052-4.13701.7876-1.24908 1.8593-2.29443 3.1275-3.05087 1.2683-.756437 2.6973-1.20257 4.1706-1.3020651 1.4734-.0994948 2.9494.1504641 4.3079.7295251 1.3584.57906 2.5608 1.47084 3.5093 2.60269.9485 1.13184 1.6162 2.47174 1.9486 3.91053l-2.0294.4675c-.2597-1.11846-.7798-2.1598-1.5181-3.03924-.7382-.87943-1.6737-1.5721-2.7303-2.02162-1.0566-.44953-2.2044-.64321-3.3499-.56526-1.1456.07794-2.2566.42531-3.2426 1.01381-.9859.58849-1.819 1.40149-2.4313 2.37281s-.9866 2.07351-1.0925 3.21684c-.1058 1.14334.0599 2.29551.4835 3.36271.4237 1.0672 1.0934 2.0193 1.9546 2.7788z"></path>
    <path d="m11.4606 50.0003c-1.2362.0003-2.44471-.3659-3.47282-1.0523s-1.8296-1.6623-2.30316-2.8042-.59791-2.3986-.35734-3.6111c.24057-1.2126.83526-2.3266 1.70889-3.2012.87363-.8747 1.98697-1.4706 3.19923-1.7126 1.2123-.2419 2.4691-.119 3.6116.3533 1.1424.4723 2.1192 1.2726 2.8068 2.3.6876 1.0273 1.0551 2.2354 1.0562 3.4716 0 1.6581-.6582 3.2484-1.83 4.4215s-2.7613 1.8331-4.4194 1.835zm0-10.4162c-.8244 0-1.63027.2446-2.31565.7027-.68538.4582-1.21944 1.1094-1.53461 1.8712s-.39727 1.6-.23592 2.4085c.16136.8084.55891 1.5509 1.14236 2.1333.58344.5825 1.32656.9788 2.13532 1.1388.8087.1599 1.6468.0764 2.408-.2401.7613-.3164 1.4116-.8516 1.8686-1.5378.457-.6861.7002-1.4924.6988-2.3169-.0029-1.1035-.443-2.161-1.224-2.9407s-1.8393-1.2181-2.9429-1.219z"></path>
    <path d="m50 16.668h-50v2.0825h50z"></path>
    <path d="m12.4976 42.709h-2.0826v2.0825h2.0826z"></path>
    <path d="m39.5825 42.709h-2.0825v2.0825h2.0825z"></path>
    <path d="m34.3748 35.418h-18.7498v2.0825h18.7498z"></path>
    <path d="m39.5827 29.168h-29.1677v2.0825h29.1677z"></path>
    <path d="m40.6252 22.917h-31.2502v2.0843h31.2502z"></path>
    <path d="m24.9997 13.5406c-.7758-.0012-1.5358-.2191-2.1945-.6289-.6586-.4099-1.1898-.9955-1.5337-1.6909-.3438-.6954-.4867-1.47305-.4126-2.24529.0742-.77224.3625-1.50843.8324-2.12569.4699-.61727 1.1028-1.09108 1.8275-1.36809.7246-.27702 1.5122-.34623 2.2741-.19985.7618.14638 1.4677.50254 2.0381 1.02838.5703.52584.9826 1.20047 1.1903 1.94794l-2.0081.55605c-.1165-.41781-.3605-.78889-.6979-1.06148-.3373-.27259-.7514-.43311-1.1843-.45922-.433-.02612-.8633.08349-1.231.31355s-.6545.56912-.8204.9699c-.1659.40079-.2026.84332-.105 1.26595.0976.42265.3246.80425.6494 1.09175s.7312.4665 1.1625.5121c.4314.0456.8662-.0445 1.2439-.2578l1.0253 1.8151c-.6278.3526-1.3359.5374-2.056.5365z"></path>
    <path d="m33.5749 15.9823c-.2231-.6286-.292-1.3016-.2009-1.9624.091-.6608.3394-1.2901.7242-1.8349.3847-.5449.8947-.9894 1.487-1.2962s1.2495-.4669 1.9166-.4669c.667 0 1.3243.1601 1.9165.4669.5923.3068 1.1023.7513 1.4871 1.2962.3848.5448.6331 1.1741.7242 1.8349.091.6608.0221 1.3338-.201 1.9624l-1.9639-.7084c.0796-.2227.1198-.4576.1187-.6941.0001-.3038-.0662-.6038-.1943-.8792-.128-.2754-.3147-.5195-.547-.7152-.2322-.1957-.5045-.3383-.7976-.4178s-.6001-.0939-.8994-.0423-.5837.1679-.8333.3409c-.2497.1731-.4585.3986-.6118.6607-.1534.2622-.2475.5547-.276.8571-.0285.3023.0095.6073.1112.8935z"></path>
    <path d="m8.57587 15.9822c-.27629-.7771-.3159-1.6186-.11381-2.4182.2021-.7995.63681-1.5211 1.24914-2.0736.6123-.5524 1.3748-.9108 2.1908-1.0298.8161-.119 1.6491.0067 2.3937.3613l-.8978 1.8806c-.2796-.1342-.5859-.2032-.8961-.2018-.5521.0004-1.0816.22-1.472.6104-.3905.3905-.61.9199-.6105 1.4721-.0011.2377.0391.4738.1187.6977z"></path>
  </g>
</svg>
