<?xml version="1.0" encoding="UTF-8"?>
<svg xmlns="http://www.w3.org/2000/svg" id="Layer_1" data-name="Layer 1" viewBox="0 0 512 512">
  <defs>
    <style>
      .cls-1 {
        fill: #8c9bff;
      }

      .cls-1, .cls-2 {
        stroke-width: 0px;
      }

      .cls-2 {
        fill: #48e9c3;
      }
    </style>
  </defs>
  <path class="cls-2" d="M319.7,197.4c1.4,5.6.6,11.5-2.4,16.4-2.9,4.9-7.7,8.5-13.2,10-3.5.9-7.2.9-10.8,0-24.2-6.4-48.9-10.5-73.9-12-1.8,0-3.7-.1-5.5-.2-1.9,0-3.9-.1-5.8-.1-28.8.6-57.4,4.7-85.2,12.3-5.6,1.4-11.5.6-16.4-2.3-4.9-2.9-8.5-7.7-10-13.2-.9-3.5-.9-7.2,0-10.8,16.4-55.6,16.4-114.8,0-170.3-.4-1.6-.6-3.3-.6-5v-.6c.1-4.8,1.7-9.4,4.6-13.1,2.9-3.7,7-6.4,11.6-7.6,1.8-.4,3.6-.7,5.4-.6,1.8,0,3.6.2,5.4.6,55.7,16.1,114.8,16.1,170.5-.3,1.8-.4,3.6-.7,5.4-.6,4.8,0,9.5,1.6,13.3,4.5,3.8,3,6.5,7.1,7.7,11.8.9,3.5.9,7.2,0,10.7-7.6,27.8-11.7,56.4-12.3,85.2,0,4.8.1,9.8.5,15v.4l.4,5.4c2,21.7,5.8,43.3,11.3,64.4"></path>
  <g>
    <path class="cls-1" d="M363,378.8v127.9c0,.7-.1,1.4-.4,2s-.6,1.2-1.1,1.7-1.1.9-1.7,1.2c-.6.3-1.3.4-2,.4h-128c-1.4,0-2.8-.6-3.8-1.6s-1.6-2.3-1.6-3.8v-67.3h60c4.5,0,8.8-1.8,12-5s5-7.5,5-12v-48.9h56.3c.7,0,1.4.1,2,.4s1.2.7,1.7,1.1c.5.5.9,1.1,1.1,1.7.3.8.5,1.5.5,2.2h0Z"></path>
    <path class="cls-1" d="M290.9,339.9v82.5c0,1.7-.7,3.3-1.9,4.5s-2.8,1.9-4.5,1.9h-141.5c-.8,0-1.7-.2-2.4-.5-.8-.3-1.5-.8-2.1-1.4s-1.1-1.3-1.4-2.1c-.3-.8-.5-1.6-.5-2.4v-141.4c0-1.7.7-3.3,1.9-4.5s2.8-1.9,4.5-1.9h71v45.7c0,5.2,2.1,10.2,5.8,13.8,3.7,3.7,8.6,5.7,13.8,5.7h57.3v.1Z"></path>
    <path class="cls-1" d="M416.1,146.8v173.5c0,1.2-.2,2.4-.7,3.4-.5,1.1-1.1,2.1-1.9,2.9s-1.8,1.5-2.9,1.9-2.3.7-3.4.7h-173.7c-2.4,0-4.7-.9-6.4-2.6s-2.7-4-2.7-6.4v-97.7c1.9.1,3.9.3,6,.4,1,.1,1.9.2,2.9.3,2.1.2,4.3.5,6.5.7s4.5.6,6.8.9c1.1.2,2.3.3,3.4.5,2,.3,4,.6,6,1,2.3.4,4.6.8,6.9,1.2,2.4.4,4.8.9,7.3,1.4,6.7,1.4,13.5,3,20.5,4.8,5.4,1.4,11.1,1.3,16.5-.1,5.4-1.5,10.3-4.3,14.3-8.3s6.8-8.9,8.3-14.3c1.5-5.4,1.5-11.1.1-16.5-1.9-7.7-3.7-15.2-5.2-22.5-.5-2.4-1-4.8-1.4-7.2s-.9-4.7-1.2-7.1c-.4-2.2-.8-4.4-1-6.6-.3-1.9-.5-3.8-.8-5.6-.3-2.2-.6-4.4-.7-6.6-.1-.5-.2-1-.2-1.5h87.7c2.4,0,4.7,1,6.4,2.7,1.6,2,2.6,4.3,2.6,6.7h0Z"></path>
  </g>
</svg>
