<?xml version="1.0" encoding="UTF-8"?>
<svg xmlns="http://www.w3.org/2000/svg" width="70" height="70" viewBox="0 0 70 70" fill="none">
  <g clip-path="url(#clip0_4268_20328)">
    <path d="M31.4535 19.0166C28.9808 19.0166 26.5636 19.7499 24.5076 21.1236C22.4516 22.4974 20.8491 24.45 19.9029 26.7345C18.9566 29.019 18.709 31.5328 19.1914 33.958C19.6738 36.3832 20.8645 38.6109 22.613 40.3594C24.3615 42.1079 26.5892 43.2986 29.0144 43.781C31.4396 44.2634 33.9534 44.0158 36.2379 43.0696C38.5224 42.1233 40.475 40.5209 41.8488 38.4649C43.2226 36.4089 43.9558 33.9917 43.9558 31.5189C43.9513 28.2045 42.6326 25.0271 40.289 22.6835C37.9453 20.3398 34.7679 19.0212 31.4535 19.0166V19.0166ZM31.4535 41.4346C29.4924 41.4346 27.5753 40.853 25.9447 39.7635C24.3141 38.6739 23.0431 37.1253 22.2926 35.3135C21.5422 33.5016 21.3458 31.5079 21.7284 29.5845C22.111 27.661 23.0554 25.8942 24.4421 24.5075C25.8288 23.1208 27.5956 22.1764 29.5191 21.7938C31.4425 21.4112 33.4362 21.6076 35.2481 22.3581C37.0599 23.1086 38.6085 24.3795 39.6981 26.0101C40.7876 27.6407 41.3692 29.5578 41.3692 31.5189C41.3669 34.148 40.3215 36.6688 38.4624 38.5278C36.6034 40.3869 34.0826 41.4323 31.4535 41.4346V41.4346Z" fill="white"></path>
    <path d="M59.1217 24.7849C58.9665 24.6956 58.7947 24.6389 58.6168 24.6181C58.4389 24.5973 58.2587 24.613 58.0871 24.6642C57.1669 24.9398 56.1772 24.8643 55.3095 24.4523C54.4418 24.0403 53.7578 23.321 53.3898 22.4338C53.0218 21.5465 52.996 20.5543 53.3174 19.6491C53.6388 18.7439 54.2845 17.9901 55.1296 17.5336C55.2906 17.4513 55.4323 17.3357 55.5453 17.1944C55.6583 17.0532 55.74 16.8896 55.7849 16.7144C55.8277 16.5407 55.8345 16.36 55.8049 16.1836C55.7752 16.0071 55.7097 15.8386 55.6125 15.6884C53.455 12.3611 50.6234 9.52356 47.3006 7.35925C47.1491 7.26129 46.9788 7.19611 46.8006 7.16789C46.6224 7.13968 46.4402 7.14906 46.2659 7.19543C46.0835 7.23323 45.9116 7.31078 45.7626 7.42255C45.6136 7.53432 45.491 7.67757 45.4037 7.8421C44.9532 8.69849 44.1989 9.35565 43.2889 9.68463C42.3789 10.0136 41.3788 9.9907 40.4848 9.62037C39.5908 9.25004 38.8675 8.55902 38.4567 7.68289C38.0459 6.80675 37.9773 5.80874 38.2644 4.88465C38.3258 4.71217 38.3506 4.5288 38.3372 4.34622C38.3238 4.16363 38.2726 3.98583 38.1868 3.82411C38.0965 3.66527 37.9726 3.52814 37.8236 3.42237C37.6746 3.31661 37.5043 3.24477 37.3246 3.21193C33.4471 2.3929 29.4413 2.3929 25.5638 3.21193C25.3864 3.24824 25.2186 3.32139 25.0712 3.42665C24.9239 3.53192 24.8003 3.66695 24.7085 3.823C24.6166 3.97906 24.5586 4.15266 24.5381 4.33257C24.5176 4.51248 24.5351 4.69469 24.5894 4.86741C24.8852 5.79265 24.8223 6.79527 24.4132 7.6763C24.0042 8.55734 23.2789 9.25242 22.3813 9.62363C21.4837 9.99484 20.4793 10.0151 19.5674 9.68025C18.6556 9.34545 17.9029 8.68011 17.4588 7.81623C17.3747 7.65746 17.2584 7.51795 17.1174 7.40661C16.9763 7.29527 16.8136 7.21454 16.6397 7.16956C16.4668 7.12283 16.286 7.11326 16.1091 7.1415C15.9322 7.16974 15.7634 7.23514 15.6136 7.33338C12.2875 9.4959 9.45045 12.3301 7.28449 15.6539C7.18707 15.8053 7.12209 15.9752 7.09367 16.153C7.06525 16.3307 7.07401 16.5125 7.11938 16.6867C7.16476 16.8609 7.24577 17.0238 7.3573 17.1651C7.46882 17.3064 7.60845 17.4231 7.76734 17.5077C8.62373 17.9582 9.28089 18.7124 9.60988 19.6224C9.93887 20.5325 9.91594 21.5326 9.54561 22.4265C9.17528 23.3205 8.48426 24.0439 7.60813 24.4547C6.73199 24.8654 5.73399 24.934 4.8099 24.647C4.63831 24.5939 4.45756 24.5772 4.27915 24.5978C4.10075 24.6185 3.9286 24.6761 3.77367 24.7669C3.61875 24.8578 3.48444 24.9799 3.37931 25.1255C3.27418 25.2711 3.20052 25.437 3.16304 25.6127C2.34279 29.4929 2.34279 33.5018 3.16304 37.3821C3.20156 37.5581 3.27619 37.7241 3.38219 37.8698C3.48819 38.0154 3.62325 38.1375 3.77885 38.2282C3.93445 38.319 4.10719 38.3765 4.28614 38.3971C4.4651 38.4176 4.64638 38.4009 4.81852 38.3478C5.74376 38.0521 6.74637 38.1149 7.62741 38.524C8.50845 38.933 9.20353 39.6583 9.57474 40.5559C9.94595 41.4536 9.96616 42.4579 9.63136 43.3698C9.29656 44.2816 8.63121 45.0343 7.76734 45.4784C7.60459 45.5681 7.46276 45.6913 7.35127 45.84C7.23978 45.9886 7.16117 46.1593 7.12067 46.3406C7.0743 46.515 7.06492 46.6971 7.09314 46.8753C7.12135 47.0535 7.18653 47.2238 7.28449 47.3753C9.45032 50.6964 12.284 53.53 15.605 55.6958C15.7556 55.7959 15.9256 55.8631 16.104 55.8929C16.2823 55.9228 16.4649 55.9147 16.6399 55.8691C16.8149 55.8235 16.9783 55.7415 17.1194 55.6285C17.2605 55.5154 17.3762 55.3738 17.4588 55.213C17.9077 54.3577 18.6595 53.7007 19.5671 53.3703C20.4747 53.0399 21.473 53.0599 22.3666 53.4264C23.2603 53.793 23.9851 54.4796 24.3994 55.3522C24.8136 56.2247 24.8876 57.2204 24.6067 58.1446C24.5511 58.317 24.5331 58.4993 24.5539 58.6793C24.5747 58.8593 24.6339 59.0327 24.7274 59.1879C24.8207 59.3442 24.9456 59.4794 25.094 59.5848C25.2425 59.6902 25.4113 59.7635 25.5896 59.8001C27.5237 60.2045 29.4941 60.4096 31.47 60.4122C33.4493 60.4114 35.4231 60.2034 37.3591 59.7914C37.5407 59.7733 37.7165 59.7169 37.8748 59.6259C38.0331 59.5349 38.1703 59.4115 38.2775 59.2637C38.3846 59.1159 38.4593 58.947 38.4965 58.7683C38.5338 58.5896 38.5328 58.405 38.4936 58.2267C38.4543 58.0484 38.3778 57.8804 38.269 57.7338C38.1602 57.5872 38.0216 57.4653 37.8623 57.3761C37.703 57.2869 37.5267 57.2324 37.3448 57.2162C37.163 57.2001 36.9798 57.2226 36.8072 57.2823C33.6867 57.9401 30.4718 58.019 27.3227 57.5151C27.4246 56.1589 27.0963 54.805 26.3845 53.6461C25.6727 52.4872 24.6136 51.5822 23.3578 51.0598C22.1021 50.5375 20.7136 50.4244 19.3898 50.7365C18.0661 51.0487 16.8744 51.7703 15.9844 52.7988C13.7478 51.1833 11.7831 49.2215 10.1643 46.9873C11.1992 46.0995 11.9269 44.9072 12.2436 43.581C12.5602 42.2547 12.4495 40.8624 11.9273 39.6028C11.4051 38.3432 10.4981 37.2809 9.33602 36.5677C8.17388 35.8546 6.81606 35.527 5.45657 35.6318C5.01681 32.9104 5.01681 30.1361 5.45657 27.4147C6.81581 27.5163 8.17244 27.1863 9.33322 26.4719C10.494 25.7574 11.3997 24.6949 11.9214 23.4356C12.4431 22.1764 12.5541 20.7846 12.2386 19.4586C11.9231 18.1326 11.1972 16.9399 10.1643 16.0505C11.7743 13.8141 13.737 11.8543 15.9758 10.2477C16.8614 11.2891 18.0542 12.023 19.383 12.3441C20.7117 12.6652 22.1081 12.557 23.3715 12.035C24.6349 11.5129 25.7004 10.604 26.4149 9.43857C27.1295 8.27318 27.4563 6.91133 27.3486 5.54857C30.0671 5.10885 32.8385 5.10885 35.557 5.54857C35.4586 6.90757 35.7909 8.26302 36.5066 9.42247C37.2224 10.5819 38.2851 11.4864 39.5441 12.0076C40.803 12.5287 42.1942 12.64 43.52 12.3256C44.8458 12.0113 46.0389 11.2873 46.9298 10.2563C49.1642 11.8686 51.1237 13.831 52.7326 16.0678C51.6978 16.9556 50.97 18.1478 50.6534 19.4741C50.3368 20.8003 50.4475 22.1927 50.9696 23.4523C51.4918 24.7119 52.3988 25.7742 53.5609 26.4873C54.7231 27.2005 56.0809 27.5281 57.4404 27.4233C57.9482 30.5722 57.8693 33.7877 57.2076 36.9079C57.1378 37.244 57.2045 37.5941 57.3929 37.8811C57.5812 38.1681 57.8759 38.3686 58.2121 38.4383C58.5482 38.5081 58.8983 38.4414 59.1854 38.253C59.4724 38.0647 59.6728 37.77 59.7425 37.4338C60.5659 33.5568 60.5659 29.55 59.7425 25.673C59.7094 25.4889 59.6368 25.3141 59.5296 25.1608C59.4224 25.0075 59.2833 24.8792 59.1217 24.7849Z" fill="white"></path>
    <path d="M50.8558 38.5459H48.4157C47.7296 38.5459 47.0717 38.8184 46.5866 39.3035C46.1015 39.7886 45.829 40.4466 45.829 41.1326V42.3656C44.4356 42.9973 43.26 44.0268 42.45 45.3246C41.64 46.6225 41.2317 48.1308 41.2764 49.6601C41.2764 54.3678 44.9581 56.2561 47.3982 57.5063C48.2139 57.8457 48.9661 58.3209 49.6228 58.9118V58.9118C49.4966 58.9232 49.3696 58.9232 49.2434 58.9118C48.1381 58.8139 47.1 58.339 46.3032 57.5667C45.8308 57.2077 45.2494 57.022 44.6563 57.0407C44.5243 57.0322 44.3918 57.0322 44.2597 57.0407C43.9095 57.1018 43.5756 57.2343 43.2789 57.4302C42.9822 57.626 42.7291 57.8809 42.5353 58.1789L40.9488 60.5845C40.6111 61.098 40.4674 61.7149 40.5432 62.3248C40.619 62.9346 40.9095 63.4975 41.3626 63.9127C42.6572 65.0641 44.183 65.9254 45.8376 66.439V67.4134C45.8376 68.0994 46.1101 68.7573 46.5952 69.2424C47.0803 69.7275 47.7383 70.0001 48.4243 70.0001H50.8644C51.5504 70.0001 52.2084 69.7275 52.6935 69.2424C53.1786 68.7573 53.4511 68.0994 53.4511 67.4134V66.189C54.9054 65.5522 56.1363 64.4954 56.9858 63.1543C57.8354 61.8131 58.2649 60.2487 58.2192 58.6617C58.2192 54.6093 55.7015 52.5313 53.4597 51.2638H53.6235C53.969 51.249 54.308 51.165 54.6205 51.0169C54.933 50.8689 55.2126 50.6596 55.4428 50.4016L57.2535 48.3495C57.6695 47.8678 57.8933 47.2498 57.8822 46.6135C57.871 45.9772 57.6257 45.3673 57.1932 44.9005C56.1531 43.7714 54.8749 42.8878 53.4511 42.3139V41.1326C53.4511 40.7922 53.3839 40.4551 53.2534 40.1407C53.1228 39.8263 52.9315 39.5408 52.6904 39.3005C52.4493 39.0602 52.1631 38.8698 51.8483 38.7403C51.5335 38.6108 51.1962 38.5448 50.8558 38.5459V38.5459ZM55.3049 46.625L53.4942 48.6599C53.0529 48.1534 52.5103 47.7451 51.9013 47.4615C51.2924 47.1778 50.6307 47.025 49.9591 47.013C48.2346 47.013 47.2775 47.8752 47.2775 49.4704C47.2775 53.1521 55.6239 52.4192 55.6239 58.6445C55.6837 60.0099 55.2258 61.3476 54.3418 62.39C53.4577 63.4323 52.2127 64.1024 50.8558 64.2662V67.422H48.4157V64.3783C46.4457 64.1535 44.5905 63.3357 43.0957 62.0331L44.6563 59.6274C45.9078 60.7766 47.5208 61.4535 49.2175 61.5416C51.2179 61.5416 52.175 60.5673 52.175 58.9549C52.175 54.9024 43.8372 55.4542 43.8372 49.7032C43.7814 48.3966 44.2183 47.1167 45.0614 46.117C45.9046 45.1174 47.0925 44.4709 48.3898 44.3056V41.1326H50.8299V44.2108C52.5648 44.4467 54.155 45.3047 55.3049 46.625V46.625ZM51.2438 50.1429C50.9161 49.9791 50.5799 49.798 50.3126 49.6428C50.6625 49.7222 50.9843 49.895 51.2438 50.1429V50.1429Z" fill="white"></path>
  </g>
  <defs>
    <clipPath id="clip0_4268_20328">
      <rect width="70" height="70" fill="white"></rect>
    </clipPath>
  </defs>
</svg>
