<?xml version="1.0" encoding="UTF-8"?>
<svg xmlns="http://www.w3.org/2000/svg" id="Layer_1" viewBox="0 0 564.65 423.07">
  <defs>
    <style>.cls-1{stroke:#38358d;}.cls-1,.cls-2{fill:none;stroke-miterlimit:10;stroke-width:2px;}.cls-2{stroke:#fe8e00;}.cls-3{fill:#38358d;}.cls-3,.cls-4{stroke-width:0px;}.cls-4{fill:#fe8e00;}</style>
  </defs>
  <polyline class="cls-1" points="60.47 40.17 60.47 375.24 511.84 375.24"></polyline>
  <path class="cls-3" d="m50.87,53.84c.46.3,1.08.16,1.38-.31l8.22-12.91,8.22,12.91c.3.47.92.6,1.38.31.46-.3.6-.92.31-1.38l-9.06-14.23c-.18-.29-.5-.46-.84-.46s-.66.17-.84.46l-9.06,14.23c-.11.17-.16.35-.16.54,0,.33.16.65.46.84Z"></path>
  <path class="cls-3" d="m498.17,384.84c-.3-.46-.16-1.08.31-1.38l12.91-8.22-12.91-8.22c-.47-.3-.6-.92-.31-1.38.3-.46.92-.6,1.38-.31l14.23,9.06c.29.18.46.5.46.84s-.17.66-.46.84l-14.23,9.06c-.17.11-.35.16-.54.16-.33,0-.65-.16-.84-.46Z"></path>
  <polyline class="cls-2" points="60.47 324.52 83.81 320.76 117.69 296.67 142.16 247.35 150.07 254.5 160.61 249.23 177.93 272.2 185.46 265.8 201.64 301.56 214.44 295.54 224.61 313.23 249.83 306.45 278.44 313.98 301.03 306.45 337.55 313.61 382.73 300.43 400.42 307.21 412.47 295.16 419.62 302.69 441.46 291.02 471.2 242.83 483.24 154.36"></polyline>
  <path class="cls-3" d="m129.41,79.56h-3.11l-8.15-11-2.41,2.17v8.83h-2.63v-22.62h2.63v11.28c.59-.67,1.19-1.34,1.81-2,.62-.67,1.23-1.34,1.84-2.02l6.61-7.26h3.08l-9.01,9.81,9.35,12.81Z"></path>
  <path class="cls-3" d="m145.1,79.56h-12.6v-22.62h12.6v2.32h-9.97v7.32h9.39v2.29h-9.39v8.37h9.97v2.32Z"></path>
  <path class="cls-3" d="m162.71,79.56h-12.6v-22.62h12.6v2.32h-9.97v7.32h9.39v2.29h-9.39v8.37h9.97v2.32Z"></path>
  <path class="cls-3" d="m173.64,56.94c2.92,0,5.05.57,6.4,1.71,1.35,1.14,2.02,2.77,2.02,4.9,0,.96-.16,1.87-.47,2.73-.31.86-.82,1.62-1.52,2.27-.7.66-1.62,1.17-2.76,1.55s-2.54.56-4.19.56h-2.75v8.9h-2.63v-22.62h5.91Zm-.25,2.24h-3.03v9.22h2.46c1.44,0,2.65-.16,3.61-.46.96-.31,1.69-.81,2.17-1.51.48-.7.73-1.62.73-2.78,0-1.51-.48-2.63-1.44-3.37-.96-.74-2.46-1.11-4.5-1.11Z"></path>
  <path class="cls-3" d="m204.69,58.93c-1.25,0-2.37.21-3.37.64-1,.43-1.84,1.05-2.54,1.86-.7.81-1.23,1.79-1.6,2.93-.37,1.15-.56,2.43-.56,3.87,0,1.9.3,3.55.89,4.94s1.48,2.48,2.66,3.24c1.18.76,2.66,1.15,4.43,1.15,1.01,0,1.96-.08,2.85-.25.89-.17,1.76-.38,2.61-.64v2.29c-.83.31-1.69.54-2.6.69s-1.99.22-3.23.22c-2.3,0-4.22-.48-5.76-1.43-1.54-.95-2.7-2.3-3.47-4.05s-1.15-3.8-1.15-6.17c0-1.71.24-3.28.72-4.7.48-1.42,1.18-2.64,2.1-3.68.92-1.03,2.06-1.83,3.4-2.39,1.35-.56,2.89-.84,4.63-.84,1.15,0,2.25.11,3.31.34,1.06.23,2.02.55,2.88.98l-1.05,2.23c-.72-.33-1.51-.62-2.38-.86s-1.79-.36-2.79-.36Z"></path>
  <path class="cls-3" d="m229.17,79.56l-2.79-7.18h-9.07l-2.77,7.18h-2.66l8.85-22.71h2.37l8.79,22.71h-2.72Zm-3.57-9.52l-2.65-7.13c-.06-.19-.16-.49-.3-.91-.14-.42-.28-.86-.43-1.32s-.26-.82-.36-1.1c-.1.42-.21.84-.33,1.26-.12.42-.23.8-.35,1.16-.11.36-.21.66-.29.91l-2.69,7.13h7.4Z"></path>
  <path class="cls-3" d="m235.02,79.56v-22.62h2.63v20.27h10.04v2.35h-12.67Z"></path>
  <path class="cls-3" d="m261.51,79.56l-7.6-20.02h-.12c.04.42.08.94.11,1.55.03.61.06,1.27.08,1.99.02.72.03,1.45.03,2.19v14.3h-2.44v-22.62h3.9l7.16,18.82h.11l7.27-18.82h3.87v22.62h-2.6v-14.48c0-.67.01-1.34.03-2.02.02-.67.05-1.32.08-1.92.03-.6.06-1.13.09-1.57h-.12l-7.69,19.99h-2.15Z"></path>
  <path class="cls-3" d="m294.84,56.58c1.11,0,2.08.19,2.89.58.81.39,1.43.94,1.87,1.66.44.72.66,1.59.66,2.62,0,1.34-.44,2.48-1.31,3.4-.87.93-1.98,1.77-3.32,2.54l6.28,6.1c.57-.66,1.03-1.43,1.39-2.3.36-.87.67-1.82.91-2.84h2.6c-.33,1.36-.76,2.62-1.28,3.76-.52,1.14-1.17,2.15-1.96,3.02l4.53,4.44h-3.48l-2.8-2.74c-.66.61-1.37,1.14-2.13,1.6-.76.46-1.6.82-2.52,1.07-.92.25-1.98.38-3.16.38-1.44,0-2.7-.24-3.76-.71-1.06-.47-1.89-1.17-2.47-2.09-.58-.92-.87-2.04-.87-3.37,0-1.09.2-2.03.6-2.82.4-.78.97-1.48,1.72-2.09s1.63-1.2,2.66-1.78c-.49-.54-.94-1.08-1.38-1.63-.43-.55-.78-1.14-1.05-1.78-.27-.63-.4-1.33-.4-2.1,0-1.03.23-1.91.7-2.65.47-.73,1.13-1.29,2-1.69.86-.39,1.89-.59,3.07-.59Zm-1.39,12.05c-.8.46-1.49.92-2.07,1.38-.57.45-1.01.96-1.31,1.53-.3.57-.46,1.25-.46,2.06,0,1.21.41,2.17,1.22,2.9.81.73,1.9,1.09,3.27,1.09s2.6-.23,3.58-.7c.98-.46,1.82-1.03,2.51-1.69l-6.75-6.58Zm1.3-9.93c-.94,0-1.7.25-2.28.74-.58.49-.87,1.17-.87,2.05,0,.78.21,1.51.63,2.17s1.03,1.39,1.81,2.2c1.29-.71,2.23-1.4,2.81-2.07.58-.67.87-1.45.87-2.34,0-.82-.27-1.48-.81-1.98-.54-.5-1.26-.76-2.16-.76Z"></path>
  <path class="cls-3" d="m336.76,79.56h-2.63v-10.66h-11.88v10.66h-2.63v-22.62h2.63v9.64h11.88v-9.64h2.63v22.62Z"></path>
  <path class="cls-3" d="m362.6,68.22c0,1.74-.22,3.33-.67,4.76s-1.1,2.66-1.97,3.68c-.87,1.03-1.95,1.82-3.24,2.38-1.29.56-2.79.84-4.49.84s-3.28-.28-4.59-.84c-1.31-.56-2.39-1.35-3.25-2.38-.86-1.03-1.51-2.26-1.93-3.7-.43-1.43-.64-3.02-.64-4.77,0-2.31.38-4.34,1.15-6.08.76-1.74,1.92-3.1,3.47-4.07,1.55-.97,3.5-1.46,5.84-1.46s4.12.48,5.66,1.44c1.53.96,2.69,2.31,3.48,4.05.79,1.74,1.18,3.79,1.18,6.15Zm-18.01,0c0,1.92.27,3.58.82,4.98.55,1.4,1.39,2.49,2.51,3.25,1.13.76,2.57,1.15,4.31,1.15s3.19-.38,4.31-1.15c1.12-.76,1.95-1.85,2.48-3.25.54-1.4.8-3.06.8-4.98,0-2.92-.61-5.2-1.83-6.85-1.22-1.65-3.13-2.47-5.72-2.47-1.75,0-3.2.38-4.33,1.13s-1.98,1.82-2.53,3.21c-.55,1.39-.83,3.05-.83,4.98Z"></path>
  <path class="cls-3" d="m385.59,68.03c0,2.55-.46,4.68-1.39,6.38-.93,1.71-2.27,2.99-4.03,3.85-1.76.86-3.89,1.29-6.4,1.29h-6.14v-22.62h6.82c2.3,0,4.28.42,5.94,1.26s2.94,2.08,3.85,3.73,1.35,3.68,1.35,6.1Zm-2.77.09c0-2.03-.34-3.71-1.01-5.03-.68-1.32-1.67-2.3-2.97-2.95-1.3-.64-2.9-.97-4.79-.97h-3.79v18.12h3.2c3.12,0,5.45-.77,7.02-2.31,1.56-1.54,2.34-3.83,2.34-6.87Z"></path>
  <path class="cls-3" d="m390.62,79.56v-22.62h2.63v20.27h10.04v2.35h-12.67Z"></path>
  <path class="cls-3" d="m435.02,68.22c0,1.74-.22,3.33-.67,4.76s-1.1,2.66-1.97,3.68c-.87,1.03-1.95,1.82-3.24,2.38-1.29.56-2.79.84-4.49.84s-3.28-.28-4.59-.84c-1.31-.56-2.39-1.35-3.25-2.38-.86-1.03-1.51-2.26-1.93-3.7-.43-1.43-.64-3.02-.64-4.77,0-2.31.38-4.34,1.15-6.08.76-1.74,1.92-3.1,3.47-4.07,1.55-.97,3.5-1.46,5.84-1.46s4.12.48,5.66,1.44c1.53.96,2.69,2.31,3.48,4.05.79,1.74,1.18,3.79,1.18,6.15Zm-18.01,0c0,1.92.27,3.58.82,4.98.55,1.4,1.39,2.49,2.51,3.25,1.13.76,2.57,1.15,4.31,1.15s3.19-.38,4.31-1.15c1.12-.76,1.95-1.85,2.48-3.25.54-1.4.8-3.06.8-4.98,0-2.92-.61-5.2-1.83-6.85-1.22-1.65-3.13-2.47-5.72-2.47-1.75,0-3.2.38-4.33,1.13s-1.98,1.82-2.53,3.21c-.55,1.39-.83,3.05-.83,4.98Z"></path>
  <path class="cls-3" d="m457.73,79.56h-3.03l-12.33-19h-.12c.03.51.07,1.08.11,1.73.04.64.07,1.33.1,2.06.03.73.04,1.47.04,2.22v13h-2.44v-22.62h3.02l12.29,18.94h.11c-.02-.36-.05-.87-.08-1.54-.03-.67-.06-1.38-.08-2.15-.03-.77-.04-1.48-.04-2.14v-13.11h2.48v22.62Z"></path>
  <path class="cls-4" d="m492.03,125.37c-.89-.32-1.43-1.12-2.05-2.06-.65-.98-1.39-2.1-2.69-2.68-2.72-1.22-5.87.34-8.17,1.47-.27.13-.53.26-.78.38-1.48.71-2.15.81-2.38.82l-.94-3.45c-.14-.51-.66-.8-1.17-.67-.51.14-.81.66-.67,1.17l3.99,14.62.32,1.26.07.15,3.64,13.33c.12.42.5.7.92.7.08,0,.17-.01.25-.03.51-.14.81-.66.67-1.17l-3.27-11.99c2.33-1.6,6.12-3.79,7.9-3.79.04,0,.08,0,.12,0,.44.03.48.08.69.81.55,1.92,1.64,2.9,5.34,1.85,6.29-1.79,9.26-10.17,9.38-10.53l.63-1.82-1.83.61c-2.07.69-7.45,1.9-9.97,1.01Zm-13.03,8.76s-.03.04-.05.05l-2.06-8.12c1.53.4,2.87,1.61,3.37,3.11.56,1.7.04,3.73-1.26,4.95Z"></path>
</svg>
