<!DOCTYPE svg PUBLIC "-//W3C//DTD SVG 1.1//EN" "http://www.w3.org/Graphics/SVG/1.1/DTD/svg11.dtd">
<!-- Uploaded to: SVG Repo, www.svgrepo.com, Transformed by: SVG Repo Mixer Tools -->
<svg fill="#C2C8E1" height="800px" width="800px" version="1.1" id="Layer_1" xmlns="http://www.w3.org/2000/svg" xmlns:xlink="http://www.w3.org/1999/xlink" viewBox="0 0 512.001 512.001" xml:space="preserve">
<g id="SVGRepo_bgCarrier" stroke-width="0"/>
<g id="SVGRepo_tracerCarrier" stroke-linecap="round" stroke-linejoin="round"/>
<g id="SVGRepo_iconCarrier"> <g> <g> <g> <path d="M120.708,348.441c-3.167-3.166-8.299-3.166-11.464,0s-3.166,8.299,0,11.464l57.93,57.929 c1.583,1.582,3.659,2.375,5.733,2.375c2.074,0,4.149-0.791,5.733-2.375c3.166-3.166,3.166-8.299,0-11.463L120.708,348.441z"/> <path d="M391.293,348.441l-57.93,57.929c-3.166,3.166-3.166,8.299,0,11.463c1.583,1.583,3.658,2.375,5.733,2.375 c2.074,0,4.149-0.791,5.733-2.375l57.93-57.929c3.166-3.166,3.166-8.299,0-11.464 C399.591,345.276,394.459,345.276,391.293,348.441z"/> <path d="M450.154,301.044c-5.874-5.875-13.994-8.865-22.279-8.197c-25.907,2.082-74.248,10.455-106.949,43.156 c-12.364,12.364-21.264,26.844-27.674,41.571v-82.04c82.239-17.23,144.191-90.308,144.191-177.591 c0-21.027-6.486-63.398-49.925-110.915C383.435,2.562,377.618,0,371.56,0c-6.059,0-11.876,2.562-15.961,7.029 c-22.303,24.397-34.865,47.435-41.809,66.925c-2.806-7.769-6.337-15.585-10.586-23.422 c-10.269-18.942-22.66-34.112-31.244-43.504C267.877,2.563,262.06,0,256.001,0c-6.059,0-11.876,2.563-15.96,7.029 c-8.585,9.391-20.976,24.562-31.245,43.504c-4.249,7.837-7.78,15.654-10.586,23.422c-6.944-19.491-19.506-42.529-41.809-66.925 C152.318,2.562,146.501,0,140.442,0c-6.058,0-11.875,2.562-15.96,7.029C81.044,54.547,74.558,96.917,74.558,117.944 c0,87.283,61.953,160.362,144.191,177.591v82.04c-6.409-14.728-15.31-29.207-27.674-41.571 c-32.701-32.7-81.043-41.074-106.949-43.156c-8.286-0.668-16.405,2.322-22.279,8.197c-5.874,5.874-8.862,13.995-8.196,22.278 c2.082,25.907,10.456,74.249,43.155,106.949c39.224,39.224,99.734,43.663,121.943,43.895v17.211 c0,11.371,9.251,20.622,20.621,20.622h33.26c11.372,0,20.622-9.251,20.622-20.622v-17.211 c22.213-0.232,82.723-4.674,121.943-43.895c32.699-32.699,41.073-81.042,43.155-106.949 C459.017,315.039,456.028,306.919,450.154,301.044z M108.27,418.808c-12.46-12.46-34.025-41.602-38.459-96.782 c-0.284-3.539,0.992-7.007,3.5-9.517c2.278-2.277,5.347-3.539,8.543-3.539c0.323,0,0.65,0.013,0.974,0.039 c55.18,4.434,84.323,25.998,96.782,38.458c34.542,34.542,38.758,90.269,39.099,110.44 C198.532,457.565,142.809,453.347,108.27,418.808z M277.04,457.28h-0.001c-0.028,2.016-0.021,3.732,0,5.126v28.972 c0,2.432-1.978,4.41-4.41,4.41h-33.26c-2.431,0-4.409-1.978-4.409-4.41v-28.972c0.021-1.393,0.028-3.111,0-5.126V298.16 c6.905,0.801,13.923,1.227,21.04,1.227s14.134-0.426,21.04-1.227V457.28z M256.001,283.175 c-91.109,0-165.231-74.123-165.231-165.231c0-18.677,5.934-56.5,45.678-99.975c1.396-1.527,3.102-1.755,3.994-1.755 c0.893,0,2.598,0.228,3.995,1.755c39.743,43.476,45.678,81.299,45.678,99.975c0,4.477,3.628,8.106,8.106,8.106 c4.478,0,8.106-3.629,8.106-8.106c0-18.678,5.934-56.502,45.68-99.976c1.395-1.527,3.101-1.755,3.993-1.755 s2.597,0.228,3.994,1.755c39.746,43.473,45.679,81.298,45.679,99.975c0,4.477,3.628,8.106,8.106,8.106 c4.478,0,8.106-3.629,8.106-8.106c0-18.677,5.934-56.5,45.678-99.975c1.396-1.527,3.102-1.755,3.995-1.755 c0.892,0,2.597,0.228,3.994,1.755c39.743,43.476,45.678,81.299,45.678,99.975C421.232,209.052,347.109,283.175,256.001,283.175z M442.19,322.025c-4.435,55.181-26,84.323-38.459,96.782c-34.541,34.542-90.268,38.758-110.439,39.098 c0.341-20.178,4.559-75.901,39.098-110.44c12.46-12.46,41.602-34.025,96.782-38.458c3.545-0.283,7.008,0.991,9.518,3.5 C441.198,315.017,442.475,318.486,442.19,322.025z"/> </g> </g> </g> </g>
</svg>