<?xml version="1.0" encoding="UTF-8"?>
<svg xmlns="http://www.w3.org/2000/svg" width="62" height="51" viewBox="0 0 62 51" fill="none">
  <g clip-path="url(#clip0_4268_20292)">
    <path d="M9.03572 14.3855C8.80061 14.149 8.66865 13.8291 8.66865 13.4956C8.66865 13.1621 8.80061 12.8422 9.03572 12.6057L12.5702 9.03333C12.8061 8.80204 13.1234 8.67249 13.4538 8.67249C13.7842 8.67249 14.1014 8.80204 14.3374 9.03333C17.8592 5.461 22.5172 2.55769 26.6954 1.88867C27.1354 2.73039 27.4339 3.63876 27.579 4.57739C24.0882 6.95765 21.0883 9.98761 18.7429 13.5019L19.6265 14.3855C19.7448 14.5029 19.8387 14.6425 19.9028 14.7963C19.9669 14.9501 19.9999 15.1151 19.9999 15.2818C19.9999 15.4484 19.9669 15.6134 19.9028 15.7672C19.8387 15.921 19.7448 16.0606 19.6265 16.178L16.1046 19.7503C15.8687 19.9816 15.5514 20.1112 15.221 20.1112C14.8906 20.1112 14.5734 19.9816 14.3374 19.7503L13.4538 18.8541C9.96523 21.237 6.96574 24.2665 4.61764 27.7786C3.6897 27.6319 2.79337 27.3289 1.9668 26.8824C2.6232 22.641 5.50126 17.9452 9.03572 14.3855Z" stroke="white" stroke-width="2" stroke-miterlimit="10"></path>
    <path d="M14.3369 9.02051L18.7424 13.4891" stroke="white" stroke-width="2" stroke-miterlimit="10"></path>
    <path d="M9.03613 14.3726L13.4542 18.8411" stroke="white" stroke-width="2" stroke-miterlimit="10"></path>
    <path d="M52.9642 14.3855C53.1993 14.149 53.3313 13.8291 53.3313 13.4956C53.3313 13.1621 53.1993 12.8422 52.9642 12.6057L49.4297 9.03333C49.1938 8.80204 48.8765 8.67249 48.5461 8.67249C48.2157 8.67249 47.8985 8.80204 47.6625 9.03333C44.128 5.461 39.4828 2.55769 35.3045 1.88867C34.8581 2.72766 34.5592 3.63714 34.4209 4.57739C37.9107 6.95886 40.9104 9.98861 43.2571 13.5019L42.3734 14.3855C42.2551 14.5029 42.1612 14.6425 42.0971 14.7963C42.033 14.9501 42.0001 15.1151 42.0001 15.2818C42.0001 15.4484 42.033 15.6134 42.0971 15.7672C42.1612 15.921 42.2551 16.0606 42.3734 16.178L45.9079 19.7503C46.1439 19.9816 46.4611 20.1112 46.7915 20.1112C47.1219 20.1112 47.4392 19.9816 47.6751 19.7503L48.5587 18.8541C52.0437 21.2413 55.0425 24.27 57.3949 27.7786C58.319 27.6327 59.2113 27.3296 60.0331 26.8824C59.3767 22.641 56.4987 17.9452 52.9642 14.3855Z" stroke="white" stroke-width="2" stroke-miterlimit="10"></path>
    <path d="M46.1354 20.0403L17.1023 49.0734C16.1303 50.058 12.3434 46.2711 13.3154 45.2865L42.3484 16.165" stroke="white" stroke-width="2" stroke-miterlimit="10"></path>
    <path d="M47.6622 9.02051L43.2441 13.4891" stroke="white" stroke-width="2" stroke-miterlimit="10"></path>
    <path d="M52.964 14.3726L48.5459 18.8411" stroke="white" stroke-width="2" stroke-miterlimit="10"></path>
    <path d="M28.4621 25.0896L19.626 16.165" stroke="white" stroke-width="2" stroke-miterlimit="10"></path>
    <path d="M33.5117 37.7127L44.8725 49.0735C45.8571 50.0581 49.644 46.2711 48.6594 45.2865L37.2986 33.9258" stroke="white" stroke-width="2" stroke-miterlimit="10"></path>
    <path d="M16.1045 19.7378L24.6756 28.8769" stroke="white" stroke-width="2" stroke-miterlimit="10"></path>
  </g>
  <defs>
    <clipPath id="clip0_4268_20292">
      <rect width="60.818" height="50" fill="white" transform="translate(0.59082 0.5)"></rect>
    </clipPath>
  </defs>
</svg>
