<?xml version="1.0" encoding="UTF-8"?>
<svg xmlns="http://www.w3.org/2000/svg" xmlns:xlink="http://www.w3.org/1999/xlink" fill="none" height="70" viewBox="0 0 71 70" width="71">
  <clipPath id="a">
    <path d="m.1875 0h70v70h-70z"></path>
  </clipPath>
  <g clip-path="url(#a)" fill="#383593">
    <path d="m41.0213 10.2093h-11.667c-.3867 0-.7575-.1536-1.0308-.42695-.2734-.27339-.427-.64418-.427-1.0308v-5.83354c0-.77348.3071-1.51531.8538-2.062474.5467-.547161 1.2882-.85487884 2.0617-.855536h8.7491c.7737.00065652 1.5155.308302 2.0626.855393.5471.547087.8547 1.288907.8554 2.062617v5.83354c0 .38662-.1536.75741-.427 1.0308-.2734.27335-.6442.42695-1.0308.42695zm-10.2093-2.91552h8.7491v-4.37577h-8.7491z"></path>
    <path d="m1.64476 30.6256c-.2742-.0001-.5428-.0775-.774983-.2233-.232178-.1459-.418511-.3543-.537602-.6013-.11909-.247-.166108-.5225-.135656-.795s.137138-.5309.307811-.7455c7.10784-8.9474 16.05527-14.8256 25.93237-17.0593v-2.44949c0-.19164.0378-.3814.1112-.55843.0734-.17702.181-.33784.3166-.47324.1356-.13539.2966-.24272.4738-.31583.1771-.07312.367-.11059.5586-.11026h14.5826c.3866 0 .7574.15359 1.0308.42697.2734.27339.427.64417.427 1.03079v2.44949c9.8796 2.2312 18.8245 8.1119 25.9348 17.0593.2118.27.3218.606.3106.9489-.0112.343-.1429.6711-.3719.9267-.2289.2556-.5406.4224-.8803.4711s-.6857-.0237-.9773-.2047c-6.5674-4.1328-14.8429-6.8748-24.0159-7.9731v2.3627c0 .3869-.1535.7579-.4268 1.0317-.2733.2737-.6441.4279-1.031.4285h-14.5826c-.3873 0-.7587-.1538-1.0325-.4277-.2739-.2738-.4277-.6452-.4277-1.0325v-2.3627c-9.173 1.0983-17.44609 3.8403-24.01595 7.9731-.23216.1467-.50137.2241-.77599.2231zm27.70994-20.4161v2.1767c-.0006.3382-.1186.6657-.3338.9266-.2153.2609-.5144.439-.8463.5039-7.2194 1.4082-13.9529 4.9088-19.79636 10.2465 5.79386-2.4197 12.35876-4.0237 19.37736-4.7105.2023-.0177.4061.0061.5988.07.1927.064.3703.1667.5218.3019.1507.1369.2711.3038.3535.4899.0824.1862.125.3875.125.5911v2.5287h11.6671v-2.5287c0-.2036.0425-.4049.1249-.5911.0824-.1861.2028-.353.3535-.4899.1516-.1352.3291-.2379.5219-.3019.1927-.0639.3965-.0877.5987-.07 7.0161.6868 13.581 2.2908 19.3749 4.7105-5.8434-5.3377-12.5744-8.8383-19.7963-10.2465-.3317-.0649-.6305-.2431-.8453-.5041-.2148-.2609-.3323-.5884-.3323-.9264v-2.1767z"></path>
    <path d="m14.6896 59.5725-1.8693-2.2313 5.3898-4.4923c.2625-.2182.5932-.3375.9346-.3372h5.8336v2.9155h-5.3055z"></path>
    <path d="m39.5611 70.0026h-8.7491c-.7735-.0006-1.515-.3084-2.0617-.8555-.5467-.5472-.8538-1.289-.8538-2.0625v-17.5006h2.9155v17.5006h8.7491v-13.1248c.0006-.3869.1548-.7577.4286-1.031.2737-.2733.6448-.4268 1.0316-.4268h18.9534v2.9155h-17.4956v11.6671c-.0007.7737-.3083 1.5155-.8554 2.0626s-1.2889.8548-2.0626.8554z"></path>
    <path d="m64.355 59.7931c-1.1537 0-2.2816-.3422-3.2409-.9832s-1.707-1.5521-2.1486-2.618c-.4415-1.0659-.557-2.2389-.3319-3.3704.2251-1.1316.7807-2.1711 1.5965-2.9869.8158-.8159 1.8553-1.3714 2.9869-1.5965s2.3045-.1096 3.3704.3319c1.066.4416 1.977 1.1893 2.618 2.1486s.9832 2.0872.9832 3.2409c-.0013 1.5468-.6164 3.0298-1.7101 4.1235s-2.5767 1.7087-4.1235 1.7101zm0-8.7491c-.5772 0-1.1415.1712-1.6214.4919-.4799.3208-.8539.7767-1.0747 1.31s-.2784 1.1202-.1656 1.6863.3909 1.086.7993 1.494c.4083.408.9285.6857 1.4947.798s1.153.0542 1.6861-.167c.5332-.2213.9887-.5957 1.3091-1.0758.3203-.4802.491-1.0447.4905-1.6219-.0006-.7735-.3083-1.515-.8555-2.0617s-1.289-.8538-2.0625-.8538z"></path>
    <path d="m10.3921 67.0851c-1.15373 0-2.28158-.3422-3.2409-.9832s-1.70703-1.552-2.14855-2.618c-.44153-1.0659-.55705-2.2389-.33196-3.3705.22508-1.1315.78068-2.171 1.59651-2.9868.81584-.8159 1.85528-1.3715 2.98687-1.5965 1.13163-.2251 2.30453-.1096 3.37043.3319 1.066.4416 1.9771 1.1892 2.6181 2.1486.641.9593.9831 2.0871.9831 3.2409-.0013 1.5468-.6164 3.0298-1.7101 4.1235s-2.5767 1.7087-4.1235 1.7101zm0-8.7491c-.5773-.0005-1.14181.1703-1.62205.4907-.48025.3205-.85464.7762-1.0758 1.3095-.22117.5333-.27916 1.1202-.16665 1.6865.11251.5662.39048 1.0864.79872 1.4946.40824.4083.9284.6863 1.49467.7988.56631.1125 1.15321.0545 1.68651-.1667s.989-.5955 1.3094-1.0758c.3205-.4802.4913-1.0448.4908-1.6221-.0013-.7728-.3089-1.5136-.8554-2.0601s-1.2873-.8541-2.0602-.8554z"></path>
    <path d="m51.2271 46.6688h-5.8335v-2.918h5.3054l4.9857-4.1551 1.8693 2.2313-5.3923 4.4947c-.2611.2218-.592.3447-.9346.3471z"></path>
    <path d="m42.4817 49.5837h-2.918v-23.3317h-8.749v18.9584c0 .3866-.1536.7574-.427 1.0308s-.6442.4269-1.0308.4269h-18.9633v-2.918h17.5006v-18.9583c0-.3867.1536-.7575.4269-1.0308.2734-.2734.6442-.427 1.0308-.427h11.6671c.3866 0 .7574.1536 1.0308.427.2734.2733.427.6441.427 1.0308z"></path>
    <path d="m59.9771 43.7501c-1.1538 0-2.2816-.3421-3.2409-.9831-.9594-.641-1.7071-1.5521-2.1486-2.618-.4415-1.066-.557-2.2389-.332-3.3705.2251-1.1316.7807-2.171 1.5966-2.9869.8158-.8158 1.8552-1.3714 2.9868-1.5965s2.3046-.1096 3.3705.332c1.066.4415 1.977 1.1892 2.618 2.1485s.9832 2.0872.9832 3.2409c-.0014 1.5468-.6164 3.0298-1.7101 4.1235-1.0937 1.0938-2.5767 1.7088-4.1235 1.7101zm0-8.7491c-.5773-.0005-1.1418.1703-1.6221.4908-.4802.3204-.8546.7761-1.0758 1.3094s-.2791 1.1202-.1666 1.6865.3904 1.0864.7987 1.4947c.4082.4082.9284.6862 1.4947.7987.5662.1125 1.1532.0545 1.6864-.1667.5333-.2211.9891-.5955 1.3095-1.0758.3205-.4802.4912-1.0447.4907-1.6221-.0013-.7728-.3089-1.5136-.8554-2.0601-.5464-.5465-1.2872-.8541-2.0601-.8554z"></path>
    <path d="m6.02104 51.044c-1.15377 0-2.28162-.3421-3.24094-.9831s-1.70702-1.5521-2.148546-2.618c-.441527-1.066-.5570498-2.2389-.331961-3.3705.225088-1.1316.780677-2.171 1.596517-2.9868.81583-.8159 1.85527-1.3715 2.98686-1.5966 1.1316-.225 2.30453-.1095 3.37047.332s1.97706 1.1892 2.61806 2.1486c.6409.9593.9831 2.0871.9831 3.2409-.002 1.5465-.6172 3.0292-1.7108 4.1228-1.09357 1.0935-2.57621 1.7088-4.12276 1.7107zm0-8.7515c-.57713 0-1.1413.1711-1.62116.4917-.47986.3207-.85387.7764-1.07473 1.3096-.22085.5332-.27864 1.1199-.16605 1.686.11259.566.3905 1.0859.7986 1.494.40809.4081.92803.686 1.49407.7986s1.15275.0548 1.68595-.166c.53319-.2209.98892-.5949 1.30956-1.0747.32063-.4799.49177-1.0441.49177-1.6212 0-.7739-.30743-1.5161-.85467-2.0634-.54723-.5472-1.28944-.8546-2.06334-.8546z"></path>
  </g>
</svg>
