<?xml version="1.0" encoding="UTF-8"?>
<svg xmlns="http://www.w3.org/2000/svg" width="70" height="70" viewBox="0 0 70 70" fill="none">
  <g clip-path="url(#clip0_4268_20322)">
    <path d="M21.8202 23.1739C21.5848 23.2334 21.3759 23.3696 21.2264 23.561C21.077 23.7524 20.9955 23.9881 20.9949 24.2309V36.9002H16.2891C16.1021 36.9012 15.9184 36.9495 15.7551 37.0407C15.5918 37.1318 15.4542 37.2628 15.3552 37.4215C15.2626 37.5848 15.2139 37.7694 15.2139 37.9572C15.2139 38.145 15.2626 38.3296 15.3552 38.493L24.0428 55.1441C24.1352 55.3193 24.2738 55.4658 24.4435 55.5679C24.6132 55.67 24.8076 55.7237 25.0056 55.7233C25.0898 55.7335 25.1749 55.7335 25.259 55.7233C25.4952 55.664 25.705 55.5281 25.8557 55.3369C26.0063 55.1456 26.0893 54.9098 26.0916 54.6663V41.968H30.7974C30.9837 41.9685 31.167 41.9208 31.3294 41.8295C31.4918 41.7381 31.6277 41.6062 31.724 41.4467C31.8203 41.2871 31.8741 41.1056 31.8805 40.9193C31.8868 40.7331 31.8454 40.5483 31.7602 40.3825L23.0727 23.7313C22.9578 23.5104 22.7713 23.335 22.5438 23.2338C22.3164 23.1325 22.0612 23.1114 21.8202 23.1739V23.1739ZM23.1668 28.6543L28.9585 39.7889H24.9767C24.6887 39.7889 24.4125 39.9033 24.2088 40.1069C24.0052 40.3106 23.8907 40.5868 23.8907 40.8748V50.2067L18.099 39.0721H22.1026C22.3906 39.0721 22.6668 38.9577 22.8704 38.7541C23.0741 38.5504 23.1885 38.2742 23.1885 37.9862L23.1668 28.6543Z" fill="white"></path>
    <path d="M24.9767 63.6871C29.8481 63.6879 34.6133 62.2642 38.6858 59.5912C42.7582 56.9182 45.9602 53.1127 47.8974 48.6432C47.9623 48.5112 47.9998 48.3674 48.0075 48.2206C48.0152 48.0737 47.9929 47.9268 47.9421 47.7888C47.8914 47.6508 47.8131 47.5245 47.712 47.4176C47.611 47.3108 47.4893 47.2256 47.3543 47.1672C47.2193 47.1088 47.0739 47.0784 46.9268 47.0779C46.7797 47.0774 46.6341 47.1067 46.4987 47.1642C46.3634 47.2216 46.2411 47.306 46.1393 47.4121C46.0375 47.5183 45.9583 47.644 45.9065 47.7817C44.2736 51.5587 41.6491 54.8236 38.3113 57.2302C34.9735 59.6368 31.0467 61.0954 26.9472 61.4514C22.8476 61.8075 18.7282 61.0476 15.0255 59.2525C11.3227 57.4573 8.1747 54.6938 5.9151 51.2547C3.65549 47.8157 2.36851 43.8293 2.19057 39.7182C2.01263 35.6072 2.95036 31.5245 4.90437 27.9031C6.85838 24.2817 9.75584 21.2564 13.2896 19.1481C16.8234 17.0397 20.8618 15.9268 24.9767 15.9273H32.448L27.3803 20.8719C27.2286 21.0208 27.1238 21.2109 27.0791 21.4187C27.0344 21.6265 27.0516 21.8429 27.1287 22.041C27.2058 22.2391 27.3393 22.4102 27.5127 22.5331C27.6861 22.656 27.8918 22.7254 28.1043 22.7325C28.3769 22.7267 28.6365 22.6151 28.8282 22.4212L36.0679 15.3409C36.2677 15.1519 36.3848 14.8917 36.3936 14.6169C36.3972 14.474 36.3721 14.3319 36.3199 14.1988C36.2677 14.0658 36.1894 13.9446 36.0896 13.8422L29.0092 6.60262C28.9112 6.49502 28.7925 6.40822 28.6603 6.3474C28.528 6.28657 28.3849 6.25296 28.2394 6.24855C28.0939 6.24413 27.949 6.26902 27.8133 6.32172C27.6776 6.37442 27.5539 6.45386 27.4496 6.55532C27.3452 6.65679 27.2623 6.7782 27.2058 6.91234C27.1492 7.04648 27.1203 7.19061 27.1206 7.33618C27.1208 7.48174 27.1504 7.62576 27.2075 7.75967C27.2645 7.89358 27.3479 8.01466 27.4527 8.1157L33.0055 13.7988H24.9767C18.3525 13.7988 11.9996 16.4303 7.31552 21.1143C2.63147 25.7984 0 32.1513 0 38.7755C0 45.3998 2.63147 51.7527 7.31552 56.4368C11.9996 61.1208 18.3525 63.7523 24.9767 63.7523V63.6871Z" fill="white"></path>
    <path d="M67.7775 25.5198H65.135C64.7979 25.5198 64.4653 25.5983 64.1637 25.7491C63.8622 25.8998 63.5998 26.1188 63.3975 26.3885C63.1952 26.1188 62.9329 25.8998 62.6313 25.7491C62.3297 25.5983 61.9972 25.5198 61.66 25.5198H59.3071C58.97 25.5198 58.6374 25.5983 58.3358 25.7491C58.0343 25.8998 57.7719 26.1188 57.5696 26.3885C57.3673 26.1188 57.105 25.8998 56.8034 25.7491C56.5018 25.5983 56.1693 25.5198 55.8321 25.5198H52.9869C52.4674 25.5238 51.9666 25.7138 51.5752 26.0555C51.1745 25.7056 50.6593 25.515 50.1273 25.5198H47.1301C46.6807 25.5195 46.2424 25.6587 45.8755 25.918C45.5085 26.1773 45.231 26.5441 45.0813 26.9677L44.4369 28.7776L43.7709 26.946C43.6215 26.5235 43.3451 26.1576 42.9796 25.8984C42.6141 25.6391 42.1774 25.4993 41.7293 25.498H38.7031C38.1271 25.498 37.5747 25.7269 37.1674 26.1342C36.7601 26.5415 36.5312 27.0939 36.5312 27.6699V39.9556C36.5312 40.5316 36.7601 41.084 37.1674 41.4914C37.5747 41.8987 38.1271 42.1275 38.7031 42.1275H41.1936C41.5831 42.1273 41.9653 42.0223 42.3003 41.8236C42.6353 41.6249 42.9107 41.3398 43.0976 40.9981C43.2704 41.0414 43.4479 41.0633 43.6261 41.0633H45.1681C45.3538 41.0615 45.5385 41.0372 45.7183 40.9909C45.9049 41.335 46.181 41.6223 46.5175 41.8223C46.8539 42.0224 47.2382 42.1278 47.6296 42.1275H50.1562C50.7323 42.1275 51.2847 41.8987 51.692 41.4914C52.0993 41.084 52.3281 40.5316 52.3281 39.9556V36.0317L53.1317 40.3755C53.2258 40.8801 53.4955 41.3351 53.8931 41.6598C54.2907 41.9845 54.7904 42.1579 55.3036 42.1492H58.728C59.0572 42.149 59.3822 42.074 59.6781 41.9297C59.9741 41.7855 60.2335 41.5759 60.4365 41.3166C60.6403 41.5768 60.9008 41.7871 61.1982 41.9313C61.4955 42.0756 61.8218 42.1501 62.1523 42.1492H65.6056C66.1209 42.1573 66.6223 41.9819 67.0202 41.6543C67.4181 41.3267 67.6865 40.8683 67.7775 40.361L69.9494 28.184C69.9845 28.0296 70.0016 27.8717 70.0001 27.7134C70.0031 27.422 69.9474 27.133 69.8364 26.8636C69.7254 26.5943 69.5613 26.3499 69.354 26.1453C69.1466 25.9406 68.9001 25.7797 68.6293 25.6723C68.3585 25.5648 68.0688 25.513 67.7775 25.5198ZM50.1562 39.9556H47.6296V35.4525C47.6296 34.258 47.854 32.4771 47.9844 31.2898H47.912L46.9056 34.1856L45.1681 38.8841H43.6261L41.8886 34.1856L40.9112 31.2898H40.8388C40.9691 32.4771 41.1936 34.258 41.1936 35.4525V39.9556H38.7031V27.6917H41.7148L43.7057 33.1431C43.9519 33.8671 44.1691 34.6489 44.4297 35.4019H44.5093C44.7555 34.6779 44.9654 33.8671 45.2333 33.1431L47.159 27.6917H50.1852L50.1562 39.9556ZM65.6056 39.9556H62.1161L60.9143 34.3883C60.7189 33.4399 60.5596 32.4553 60.422 31.5359H60.3496C60.2049 32.4553 60.0456 33.4399 59.8501 34.3883L58.6918 39.9556H55.2674L52.9869 27.6917H55.8321L56.6792 33.4182C56.8384 34.7141 57.0194 36.0028 57.1787 37.2986H57.2511C57.4972 36.0028 57.7361 34.6996 57.975 33.4182L59.2999 27.6917H61.6528L62.9704 33.4182C63.2165 34.6634 63.4627 35.9883 63.6944 37.2986H63.7668C63.926 35.9883 64.0998 34.6851 64.259 33.4182L65.1133 27.6917H67.7775L65.6056 39.9556Z" fill="white"></path>
  </g>
  <defs>
    <clipPath id="clip0_4268_20322">
      <rect width="70" height="70" fill="white"></rect>
    </clipPath>
  </defs>
</svg>
