<?xml version="1.0" encoding="UTF-8"?>
<svg xmlns="http://www.w3.org/2000/svg" xmlns:xlink="http://www.w3.org/1999/xlink" fill="none" height="50" viewBox="0 0 52 50" width="52">
  <clipPath id="a">
    <path d="m.406738 0h51.186v50h-51.186z"></path>
  </clipPath>
  <g clip-path="url(#a)" stroke="#fff" stroke-width="2">
    <path d="m9.73242 5.81348h37.20928v3.48837" stroke-miterlimit="10"></path>
    <path d="m47.5232 43.0233-2.3256-5.5233c-.3843-.9616-.5817-1.9877-.5814-3.0232v-20.5233c0-.6168.245-1.2083.6812-1.6444.4361-.4362 1.0276-.6812 1.6444-.6812h1.1628c.6168 0 1.2083.245 1.6444.6812.4361.4361.6812 1.0276.6812 1.6444v20.5233c.0002 1.0355-.1971 2.0616-.5814 3.0232z" stroke-linejoin="round"></path>
    <path d="m44.6162 17.4414h5.814" stroke-linejoin="round"></path>
    <g stroke-miterlimit="10">
      <path d="m23.6858 23.2557v9.3024h-10.4651v-17.4419h10.4651v4.6512"></path>
      <path d="m23.686 15.1162h15.1163v11.6279h-4.6511"></path>
      <path d="m31.8254 26.7441h2.3255v12.7907h-15.1162v-6.9767"></path>
      <path d="m28.3372 26.7441h-4.6512"></path>
    </g>
    <path d="m1.56934 43.0235c0-1.5419.61254-3.0207 1.70286-4.111 1.09033-1.0904 2.56913-1.7029 4.11109-1.7029v-36.04651c-.7635 0-1.51952.15038-2.2249.44256-.70539.29218-1.34631.72043-1.88619 1.2603-1.09032 1.09033-1.70286 2.56913-1.70286 4.11109z" stroke-linejoin="round"></path>
    <path d="m1.56934 43.0234c.01514 1.5373.63255 3.0073 1.71961 4.0944 1.08706 1.087 2.55708 1.7044 4.09434 1.7196h39.53491v-3.4884" stroke-linejoin="round"></path>
  </g>
</svg>
