<!DOCTYPE svg PUBLIC "-//W3C//DTD SVG 1.1//EN" "http://www.w3.org/Graphics/SVG/1.1/DTD/svg11.dtd">
<!-- Uploaded to: SVG Repo, www.svgrepo.com, Transformed by: SVG Repo Mixer Tools -->
<svg height="800px" width="800px" version="1.1" id="Capa_1" xmlns="http://www.w3.org/2000/svg" xmlns:xlink="http://www.w3.org/1999/xlink" viewBox="0 0 453.482 453.482" xml:space="preserve" fill="#C2C8E1">
<g id="SVGRepo_bgCarrier" stroke-width="0"/>
<g id="SVGRepo_tracerCarrier" stroke-linecap="round" stroke-linejoin="round"/>
<g id="SVGRepo_iconCarrier"> <g> <path style="fill:#C2C8E1;" d="M402.506,136.003l-65.636-65.636c-1.116-1.122-2.631-1.748-4.219-1.748H207.348V5.967 c0-3.294-2.667-5.967-5.967-5.967s-5.967,2.673-5.967,5.967v62.652H55.193c-3.3,0-5.967,2.673-5.967,5.967v131.271 c0,3.3,2.667,5.967,5.967,5.967h140.221v229.724h-68.619c-3.3,0-5.967,2.667-5.967,5.967s2.667,5.967,5.967,5.967h149.172 c3.3,0,5.967-2.667,5.967-5.967s-2.667-5.967-5.967-5.967h-68.619V211.824h125.304c1.587,0,3.103-0.627,4.219-1.748l65.636-65.636 C404.839,142.107,404.839,138.336,402.506,136.003z M330.182,199.89H61.16V80.553h269.022l59.669,59.669L330.182,199.89z"/> </g> </g>
</svg>