<!DOCTYPE svg PUBLIC "-//W3C//DTD SVG 1.1//EN" "http://www.w3.org/Graphics/SVG/1.1/DTD/svg11.dtd">
<!-- Uploaded to: SVG Repo, www.svgrepo.com, Transformed by: SVG Repo Mixer Tools -->
<svg fill="#dddddd" width="800px" height="800px" viewBox="0 0 64 64" xmlns="http://www.w3.org/2000/svg">
<g id="SVGRepo_bgCarrier" stroke-width="0"/>
<g id="SVGRepo_tracerCarrier" stroke-linecap="round" stroke-linejoin="round"/>
<g id="SVGRepo_iconCarrier"> <g data-name="25 profit" id="_25_profit"> <path d="M58.51,58.5H53.95V28.19h2.79a1,1,0,0,0,.79-1.62l-6.31-8.08a1.047,1.047,0,0,0-1.58,0l-6.31,8.08a1,1,0,0,0,.79,1.62H46.9V58.5H36.79V37.28h2.78a.993.993,0,0,0,.9-.57.979.979,0,0,0-.11-1.05l-6.31-8.08a1.047,1.047,0,0,0-1.58,0l-6.31,8.08a1.006,1.006,0,0,0,.79,1.62h2.79V58.5H20.63V46.36h2.79a.994.994,0,0,0,.9-.56,1.021,1.021,0,0,0-.11-1.05l-6.32-8.08a1.022,1.022,0,0,0-1.57,0l-6.31,8.08A.979.979,0,0,0,9.9,45.8a.969.969,0,0,0,.89.56h2.79V58.5H6.49V6.99a1,1,0,0,0-2,0V59.5a1,1,0,0,0,1,1H58.51a1,1,0,0,0,0-2ZM18.63,45.36V58.5H15.58V45.36a1,1,0,0,0-1-1H12.85l4.26-5.45,4.26,5.45H19.63A1,1,0,0,0,18.63,45.36Zm16.16-9.08V58.5H31.74V36.28a1,1,0,0,0-1-1H29l4.26-5.46,4.26,5.46H35.79A.99.99,0,0,0,34.79,36.28Zm17.16-9.09V58.5H48.9V27.19a.99.99,0,0,0-1-1H46.17l4.26-5.46,4.26,5.46H52.95A1,1,0,0,0,51.95,27.19Z"/> <path d="M22.2,24.91a2.912,2.912,0,0,1-2.21,2.04v.64a1,1,0,0,1-2,0v-.81a8.332,8.332,0,0,1-1.43-.74c-.17-.11-.34-.21-.5-.3a1,1,0,0,1,.97-1.75c.2.11.39.23.59.35a3.377,3.377,0,0,0,1.7.7,1,1,0,0,0,.95-.65c.04-.13.05-.34-.25-.54l-2.63-1.76a2.542,2.542,0,0,1-1.15-1.74,2.374,2.374,0,0,1,.52-1.89,2.854,2.854,0,0,1,1.23-.88v-.89a1,1,0,1,1,2,0v.78a2.806,2.806,0,0,1,.94.41l1.06.7a1,1,0,0,1-1.11,1.67l-1.06-.71a1.2,1.2,0,0,0-1.5.16.451.451,0,0,0-.11.34.663.663,0,0,0,.29.39l2.64,1.76A2.431,2.431,0,0,1,22.2,24.91Z"/> <path d="M18.99,12.59a9.55,9.55,0,1,0,9.55,9.55A9.556,9.556,0,0,0,18.99,12.59Zm0,17.1a7.55,7.55,0,1,1,7.55-7.55A7.563,7.563,0,0,1,18.99,29.69Z"/> <path d="M36.254,16.648c.165.092.333.2.506.3a8.277,8.277,0,0,0,1.425.743v.8a1,1,0,1,0,2,0v-.634A2.929,2.929,0,0,0,42.4,15.824,2.446,2.446,0,0,0,41.331,13.1l-2.637-1.765a.6.6,0,0,1-.284-.387.431.431,0,0,1,.106-.338,1.2,1.2,0,0,1,1.5-.161l1.053.705a1,1,0,1,0,1.112-1.662l-1.053-.7a3.06,3.06,0,0,0-.945-.409V7.6a1,1,0,1,0-2,0v.9a2.855,2.855,0,0,0-1.234.871,2.417,2.417,0,0,0-.517,1.891A2.569,2.569,0,0,0,37.582,13l2.635,1.764c.3.2.287.4.251.539a1.008,1.008,0,0,1-.954.651,3.408,3.408,0,0,1-1.7-.7c-.2-.125-.4-.247-.588-.354a1,1,0,0,0-.975,1.746Z"/> <path d="M39.18,3.5a9.55,9.55,0,1,0,9.56,9.55A9.562,9.562,0,0,0,39.18,3.5Zm0,17.1a7.55,7.55,0,1,1,7.56-7.55A7.563,7.563,0,0,1,39.18,20.6Z"/> </g> </g>
</svg>