<?xml version="1.0" encoding="UTF-8"?>
<svg xmlns="http://www.w3.org/2000/svg" id="Layer_1" viewBox="0 0 124.43 124.43">
  <defs>
    <style>.cls-1{fill:#8b9aff;}.cls-2{fill:#fff;stroke:#fff;stroke-miterlimit:10;}</style>
  </defs>
  <circle class="cls-1" cx="62.22" cy="62.22" r="62.22"></circle>
  <g>
    <path class="cls-2" d="M58.17,101.43l3.17,2.18c.25,.18,.56,.27,.87,.28,.31,0,.61-.1,.87-.28l3.18-2.18c18.89-12.97,30.18-34.41,30.18-57.32v-5.98c0-.58-.33-1.11-.86-1.37L62.88,20.71c-.43-.21-.94-.21-1.38,0L28.85,36.76c-.52,.26-.85,.79-.86,1.37v5.98c0,22.91,11.28,44.36,30.18,57.32ZM31.06,39.07l31.16-15.31,31.17,15.31v5.02c.01,21.9-10.76,42.4-28.81,54.81l-2.32,1.59-2.32-1.59c-18.05-12.4-28.84-32.9-28.84-54.8l-.04-5.03Z"></path>
    <path class="cls-2" d="M56.06,73.65c.41,0,.79-.16,1.08-.45l25.51-25.51c.62-.58,.65-1.54,.08-2.16-.58-.62-1.54-.65-2.16-.08-.03,.02-.05,.05-.08,.08l-24.43,24.43-7.59-7.59c-.58-.62-1.54-.65-2.16-.08s-.65,1.54-.08,2.16c.02,.03,.05,.05,.08,.08l8.67,8.67c.29,.29,.68,.45,1.08,.45Z"></path>
  </g>
</svg>
