<svg xmlns="http://www.w3.org/2000/svg" style="position:absolute; width: 0; height: 0"><symbol viewBox="0 0 426.667 426.667" id="icon-001-check"><path d="M421.876 56.307c-6.548-6.78-17.352-6.968-24.132-.42-.142.137-.282.277-.42.42L119.257 334.375l-90.334-90.334c-6.78-6.548-17.584-6.36-24.132.42-6.388 6.614-6.388 17.099 0 23.713l102.4 102.4c6.665 6.663 17.468 6.663 24.132 0L421.456 80.44c6.78-6.549 6.968-17.353.42-24.133z"></path></symbol><symbol viewBox="0 0 512 512" id="icon-001-employee"><path d="M421.054 414.843a7.5 7.5 0 0 0-7.5 7.5v70.514a4.146 4.146 0 0 1-4.141 4.141h-40.317V349.301a7.5 7.5 0 0 0-15 0v147.698h-81.185l23.543-25.9c2.572-2.83 3.785-6.861 3.244-10.787a5.982 5.982 0 0 0-.035-.228L277.24 327.617l6.041-9.094c3.34 2.372 5.913 4.656 10.738 4.656 4.908 0 9.497-2.747 11.755-7.269v-.001l23.65-47.4 53.876 20.865c1.949.836 30.252 13.582 30.252 47.238v50.73a7.5 7.5 0 0 0 15 0v-50.73c0-44.344-37.969-60.463-39.585-61.128a3.546 3.546 0 0 0-.143-.057l-89.668-34.726v-21.03c14.242-11.076 24.117-27.495 26.596-46.227 7.101-.5 13.69-3.152 19.071-7.779a31.786 31.786 0 0 0 11.059-24.126 31.791 31.791 0 0 0-7.737-20.803V92.953C348.144 41.699 306.446 0 255.192 0c-51.254 0-92.952 41.699-92.952 92.953v28.511c-5.009 5.677-7.733 12.665-7.733 20.074 0 9.291 4.03 18.085 11.059 24.129 5.377 4.625 11.962 7.274 19.061 7.775 2.499 19.083 12.662 36.114 28.117 47.339v19.92l-89.571 34.725a8.255 8.255 0 0 0-.141.056c-1.617.665-39.585 16.784-39.585 61.128v156.245c0 10.555 8.587 19.142 19.142 19.142h71.457a7.5 7.5 0 0 0 0-15h-16.137V349.301a7.5 7.5 0 0 0-15 0v147.698H102.59a4.146 4.146 0 0 1-4.141-4.141V336.611c0-33.769 28.493-46.486 30.243-47.234l53.834-20.87 23.652 47.402a13.133 13.133 0 0 0 11.756 7.27c4.801 0 7.349-2.249 10.738-4.656l6.041 9.094-22.421 132.468c-.013.075-.024.15-.035.226-.542 3.924.671 7.957 3.244 10.789l23.543 25.9h-29.995a7.5 7.5 0 0 0 0 15h200.365c10.555 0 19.142-8.588 19.142-19.142v-70.514a7.503 7.503 0 0 0-7.502-7.501zM315.375 263.069l-22.049 44.19c-.548-.389-12.233-8.691-26.517-18.834l27.235-33.617 21.331 8.261zm-44.332 46.764l-5.718 8.607h-18.703l-5.718-8.607 15.07-10.703 15.069 10.703zm-43.3-66.712v-14.036c9.112 3.673 18.85 5.376 28.36 5.376 9.833 0 19.476-2.096 28.052-5.846v14.567l-28.181 34.785-28.231-34.846zm113.138-101.582a16.804 16.804 0 0 1-5.839 12.753c-2.453 2.11-5.416 3.459-8.661 3.987v-33.477c8.62 1.4 14.5 8.55 14.5 16.737zm-156.874 16.74c-8.718-1.415-14.5-8.623-14.5-16.741 0-8.018 6.647-14.544 14.5-16.359v33.1zm.403-48.383c-2.389.274-5.127.921-7.168 1.615V92.953c0-42.983 34.968-77.952 77.951-77.952 42.983 0 77.951 34.969 77.951 77.952v18.043a33.343 33.343 0 0 0-6.762-1.307c0-7.237.063-5.841-23.612-31.294-4.354-4.678-11.556-5.658-17.037-2.077-26.13 17.069-58.005 25.644-87.415 23.532-6.451-.483-12.327 3.766-13.908 10.046zm14.598 54.288V114.927c32.375 1.896 66.318-7.722 93.739-25.283 10.858 11.658 16.738 17.773 18.634 20.099v54.44c0 30.447-24.826 55.276-55.277 55.276-34.194.001-57.096-26.525-57.096-55.275zm19.615 143.075l-22.049-44.19 21.293-8.247 27.241 33.625c-13.853 9.837-25.228 17.919-26.485 18.812zm8.605 154.443l21.709-128.263h14.071l21.709 128.263-28.744 31.623-28.745-31.623z"></path></symbol><symbol viewBox="0 0 503.2 512" id="icon-001-ipo"><path d="M492.3 150.9l-70.7-80.1c-1.9-2.2-4.6-3.4-7.5-3.4H140.4v-33C140.4 15.4 125 0 106 0S71.6 15.4 71.6 34.4v400.1H50.5C38.1 434.6 28 444.6 28 457v35H10c-5.5 0-10 4.5-10 10s4.5 10 10 10h190.7c5.5 0 10-4.5 10-10s-4.5-10-10-10H184v-35c0-12.4-10.1-22.5-22.5-22.5h-21v-71.3c0-5.5-4.5-10-10-10s-10 4.5-10 10v71.3H91.6V291.9h322.5c2.9 0 5.6-1.2 7.5-3.4l70.7-80.1c14.5-16.4 14.5-41.1 0-57.5zM130.4 454.6h31c1.4 0 2.5 1.1 2.5 2.5v35H48v-35c0-1.4 1.1-2.5 2.5-2.5h79.9zM91.6 34.4c0-8 6.5-14.4 14.4-14.4s14.4 6.5 14.4 14.4v33H91.6v-33zm385.7 160.8l-67.7 76.7h-318V87.4H409.5l67.7 76.7c7.9 8.9 7.9 22.2.1 31.1z"></path><path d="M130.4 115c-5.5 0-10 4.5-10 10v112.9c0 5.5 4.5 10 10 10s10-4.5 10-10V125c0-5.5-4.4-10-10-10zM369.7 131.5h-32.3c-10.4 0-18.8 8.5-18.8 18.8v65.3c0 10.4 8.5 18.8 18.8 18.8h32.3c10.4 0 18.8-8.5 18.8-18.8v-65.3c.1-10.3-8.4-18.8-18.8-18.8zm-1.1 83h-30v-63h30v63zM282.1 131.5h-32.3c-10.4 0-18.8 8.5-18.8 18.8v71.5c0 5.5 4.5 10 10 10s10-4.5 10-10v-20.4h31.1c10.4 0 18.8-8.5 18.8-18.8v-32.3c.1-10.3-8.4-18.8-18.8-18.8zm-1.1 50h-30v-29.9h30v29.9zM200.6 131.5c-5.5 0-10 4.5-10 10v83c0 5.5 4.5 10 10 10s10-4.5 10-10v-83c0-5.5-4.5-10-10-10z"></path><circle cx="129.2" cy="321.1" r="10"></circle></symbol><symbol viewBox="0 0 511.995 511.995" id="icon-001-refresh"><linearGradient id="001-refresh-a" gradientUnits="userSpaceOnUse" x1="288.299" x2="288.299" y1="330.998" y2="30.998"><stop offset="0" stop-color="#addcff"></stop><stop offset=".503" stop-color="#eaf6ff"></stop><stop offset="1" stop-color="#eaf6ff"></stop></linearGradient><linearGradient id="001-refresh-b" gradientUnits="userSpaceOnUse" x1="220.371" x2="220.371" y1="480.998" y2="181.415"><stop offset="0" stop-color="#5558ff"></stop><stop offset="1" stop-color="#00c0ff"></stop></linearGradient><path d="M510.225 218.923a14.995 14.995 0 0 0-13.228-7.925h-19.512c-21.064-103.491-113.628-180-220.488-180-77.432 0-148.477 39.067-190.049 104.517-4.545 7.156-2.266 16.588 4.937 20.903l51.533 30.923c6.943 4.189 15.894 2.065 20.303-4.688 25.078-38.613 67.427-61.655 113.276-61.655 57.598 0 108.472 36.899 127.295 90h-7.295c-5.537 0-10.62 3.047-13.228 7.925s-2.329 10.796.747 15.396l60 90c2.783 4.175 7.471 6.68 12.48 6.68s9.697-2.505 12.48-6.68l60-90a15.011 15.011 0 0 0 .749-15.396z" fill="url(#001-refresh-a)"></path><path d="M435.349 366.755l-46.318-38.599c-6.901-5.725-17.119-4.164-22.046 3.135-25.225 37.383-67.09 59.707-111.987 59.707-57.598 0-108.472-36.899-127.295-90h7.295c5.537 0 10.62-3.047 13.228-7.925s2.329-10.796-.747-15.396l-60-90c-5.566-8.35-19.395-8.35-24.961 0l-60 90c-3.062 4.6-3.354 10.518-.747 15.396s7.69 7.925 13.228 7.925h19.512c21.064 103.491 113.628 180 220.488 180 72.334 0 140.728-35.127 182.93-93.97 4.583-6.387 3.455-15.234-2.58-20.273z" fill="url(#001-refresh-b)"></path></symbol><symbol viewBox="-74 0 512 512.00072" id="icon-001-touch"><path d="M91.125 322.441c14.824-14.824 14.824-38.949 0-53.773-7.184-7.18-16.73-11.137-26.887-11.137a37.818 37.818 0 0 0-16.656 3.832c-18.059-25.836-27.57-56.07-27.57-87.87 0-81.388 63.578-148.81 144.738-153.497 5.52-.32 9.73-5.05 9.414-10.566-.32-5.52-5.05-9.72-10.566-9.414C71.859 5.316 0 81.516 0 173.492c0 36.695 11.215 71.551 32.477 101.156-9.715 14.75-8.09 34.829 4.875 47.793 7.183 7.18 16.73 11.137 26.886 11.137s19.703-3.957 26.887-11.137zM51.5 282.821a17.96 17.96 0 0 1 12.738-5.27c4.61 0 9.223 1.758 12.735 5.27 7.023 7.019 7.023 18.449 0 25.468-7.024 7.023-18.45 7.023-25.473 0-7.02-7.02-7.02-18.445 0-25.469zm0 0"></path><path d="M328.043 346.668a35.557 35.557 0 0 0-17.43 4.539c-4.574-14.504-18.152-25.05-34.148-25.05-10.121 0-19.274 4.222-25.79 10.995a36.247 36.247 0 0 0-5.995-5 174.286 174.286 0 0 0 60.61-45.086c27.241-31.523 42.245-71.859 42.245-113.574 0-36.676-11.215-71.55-32.472-101.16 9.714-14.75 8.09-34.824-4.88-47.793-14.824-14.824-38.945-14.824-53.773 0-14.824 14.824-14.824 38.95 0 53.773 7.414 7.415 17.149 11.122 26.887 11.122a38.071 38.071 0 0 0 16.644-3.832c18.067 25.843 27.582 56.101 27.582 87.89 0 72.383-49.136 133.567-118.421 149.684v-53.86c39.68-14.648 66.789-53.004 66.789-95.824 0-56.308-45.813-102.12-102.125-102.12-56.309 0-102.121 45.808-102.121 102.12 0 22.223 7.02 43.356 20.293 61.106 11.578 15.48 27.597 27.504 45.57 34.363v147.184l-12.57-20.622c-10.563-17.34-32.614-22.964-50.196-12.816-16.722 9.656-23.246 30.844-14.804 48.32l37.324 75.403a10.009 10.009 0 0 0 13.406 4.53c4.953-2.452 6.98-8.456 4.531-13.405l-37.285-75.317c-3.863-8.004-.863-17.754 6.836-22.199 7.957-4.594 18.32-1.95 23.102 5.898l31.117 51.06a10.006 10.006 0 1 0 18.55-5.21v-229.58c0-8.703 7.083-15.781 15.786-15.781s15.785 7.078 15.785 15.781v39.578c-.004.07 0 .14 0 .215v150.242a10 10 0 0 0 10.004 10.004c5.527 0 10.008-4.476 10.008-10.004v-50.289c0-8.703 7.078-15.785 15.78-15.785 8.704 0 15.786 7.082 15.786 15.785v53.93c0 5.527 4.48 10.008 10.004 10.008 5.527 0 10.008-4.48 10.008-10.008v-53.93c0-8.703 7.082-15.785 15.785-15.785s15.781 7.082 15.781 15.785v54.606c0 5.527 4.48 10.007 10.008 10.007s10.004-4.48 10.004-10.007v-34.094c0-8.703 7.082-15.785 15.785-15.785s15.785 7.082 15.785 15.785v119.523c0 5.528 4.477 10.008 10.004 10.008 5.527 0 10.008-4.48 10.008-10.008V382.465c0-19.738-16.059-35.797-35.797-35.797zm-57.48-282.504c-7.024-7.023-7.024-18.45 0-25.473 3.511-3.511 8.12-5.265 12.734-5.265s9.226 1.754 12.738 5.265c7.02 7.024 7.02 18.45 0 25.473-7.023 7.02-18.453 7.02-25.472 0zM91.655 173.492c0-45.277 36.836-82.113 82.114-82.113 45.273 0 82.109 36.836 82.109 82.113 0 31.883-18.684 60.692-46.777 74.133v-25.418a35.549 35.549 0 0 0-3.625-15.676c8.875-8.554 14.12-20.48 14.12-33.039 0-25.273-20.558-45.832-45.827-45.832-25.274 0-45.833 20.559-45.833 45.832 0 12.192 4.965 23.906 13.5 32.446a35.566 35.566 0 0 0-3.93 16.269v24.996c-27.862-13.617-45.85-41.855-45.85-73.71zm63.492 17.883c-4.613-4.773-7.199-11.098-7.199-17.883 0-14.238 11.582-25.82 25.817-25.82 14.238 0 25.82 11.582 25.82 25.82 0 6.883-2.797 13.438-7.555 18.227a35.56 35.56 0 0 0-18.726-5.305 35.572 35.572 0 0 0-18.157 4.961zm0 0M209.2 23.578c2.632 0 5.214-1.07 7.073-2.933a10.069 10.069 0 0 0 2.934-7.075c0-2.629-1.07-5.21-2.934-7.074a10.082 10.082 0 0 0-7.074-2.93 10.08 10.08 0 0 0-7.07 2.93 10.083 10.083 0 0 0-2.934 7.074c0 2.633 1.07 5.215 2.934 7.075a10.067 10.067 0 0 0 7.07 2.933zm0 0"></path></symbol><symbol viewBox="0 0 512 512" id="icon-001-up-arrow"><path d="M256 0C114.8 0 0 114.8 0 256s114.8 256 256 256 256-114.9 256-256S397.2 0 256 0zm0 472.3c-119.3 0-216.3-97-216.3-216.3S136.7 39.7 256 39.7s216.3 97 216.3 216.3-97 216.3-216.3 216.3z"></path><path d="M236 368.7l99.1-99.1c7.7-7.7 7.7-20.2 0-28L236 142.4c-7.4-6.4-18.4-6.4-25.8 0-8.3 7.1-9.3 19.7-2.2 28l85.1 85.1-85.1 85.2c-7.7 7.7-7.7 20.2 0 28 7.8 7.7 20.3 7.7 28 0z"></path></symbol><symbol viewBox="0 0 332 332" id="icon-002-hospital"><path d="M166 0C74.4 0 0 74.4 0 166s74.4 166 166 166 166-74.4 166-166S257.6 0 166 0zm0 317.6c-83.6 0-151.6-68-151.6-151.6S82.4 14.4 166 14.4s151.6 68 151.6 151.6-68 151.6-151.6 151.6z"></path><path d="M252.4 130H202V79.6c0-4-3.2-7.2-7.2-7.2h-57.6c-4 0-7.2 3.2-7.2 7.2V130H79.6c-4 0-7.2 3.2-7.2 7.2v57.6c0 4 3.2 7.2 7.2 7.2H130v50.4c0 4 3.2 7.2 7.2 7.2h57.6c4 0 7.2-3.2 7.2-7.2V202h50.4c4 0 7.2-3.2 7.2-7.2v-57.6c-.4-4-3.6-7.2-7.2-7.2zm-6.8 57.6h-50.8c-4 0-7.2 3.2-7.2 7.2v50.4h-43.2v-50.4c0-4-3.2-7.2-7.2-7.2H86.8v-43.2h50.4c4 0 7.2-3.2 7.2-7.2V86.8H188v50.4c0 4 3.2 7.2 7.2 7.2h50.4v43.2z"></path></symbol><symbol viewBox="0 0 511.999 511.999" id="icon-002-profits"><path d="M509.588 117.341L387.513 3.001a7.62 7.62 0 0 0-10.417 0l-122.075 114.34a7.618 7.618 0 0 0 5.209 13.18h48.033v20.535a7.619 7.619 0 1 0 15.238 0v-28.153a7.619 7.619 0 0 0-7.619-7.619h-36.373l102.796-96.282L485.1 115.283h-36.372a7.619 7.619 0 0 0-7.619 7.619v260.784a7.619 7.619 0 1 0 15.238 0V130.521h48.033a7.62 7.62 0 0 0 5.208-13.18zM448.728 406.543a7.619 7.619 0 0 0-7.619 7.619v81.655H323.501v-6.481a7.619 7.619 0 1 0-15.238 0v14.1a7.619 7.619 0 0 0 7.619 7.619h132.847a7.619 7.619 0 0 0 7.619-7.619v-89.273a7.621 7.621 0 0 0-7.62-7.62z"></path><path d="M191.428 128.2a7.619 7.619 0 1 0 0 15.238c97.151 0 176.19 79.039 176.19 176.19s-79.039 176.19-176.19 176.19-176.19-79.039-176.19-176.19c0-83.82 59.571-156.496 141.647-172.807a7.618 7.618 0 0 0 5.987-8.958 7.615 7.615 0 0 0-8.958-5.987C64.73 149.599 0 228.56 0 319.628c0 105.554 85.874 191.428 191.428 191.428s191.428-85.874 191.428-191.428S296.982 128.2 191.428 128.2z"></path><path d="M301.298 209.758c-60.583-60.583-159.157-60.582-219.739 0-60.583 60.582-60.583 159.156 0 219.739 30.291 30.291 70.08 45.437 109.87 45.437 39.789 0 79.578-15.145 109.869-45.437 60.583-60.583 60.583-159.157 0-219.739zm-10.775 208.963c-54.641 54.641-143.549 54.642-198.19 0-54.641-54.641-54.641-143.549 0-198.19 27.32-27.32 63.208-40.981 99.095-40.981s71.774 13.66 99.095 40.981c54.641 54.642 54.641 143.55 0 198.19z"></path><path d="M199.048 312.502v-56.117c15.812 2.785 27.68 14.044 27.68 27.478a7.619 7.619 0 1 0 15.238 0c0-21.699-18.654-39.726-42.918-42.889v-7.18a7.619 7.619 0 1 0-15.238 0v7.18c-24.264 3.163-42.918 21.191-42.918 42.889s18.654 39.727 42.918 42.891v56.117c-15.813-2.788-27.68-14.046-27.68-27.479a7.619 7.619 0 1 0-15.238 0c0 21.699 18.654 39.726 42.918 42.889v7.18a7.619 7.619 0 1 0 15.238 0v-7.18c24.264-3.163 42.918-21.191 42.918-42.889s-18.654-39.726-42.918-42.89zm-15.238-1.162c-15.813-2.786-27.68-14.044-27.68-27.478 0-13.434 11.867-24.692 27.68-27.478v54.956zm15.237 71.53v-54.956c15.813 2.785 27.68 14.044 27.68 27.478s-11.867 24.692-27.68 27.478z"></path></symbol><symbol viewBox="0 0 512 512" id="icon-002-time"><path d="M437.02 74.981C388.667 26.628 324.38 0 256 0S123.333 26.628 74.98 74.981C26.629 123.333 0 187.62 0 256s26.629 132.667 74.98 181.019C123.333 485.372 187.62 512 256 512s132.667-26.628 181.02-74.981C485.371 388.667 512 324.38 512 256s-26.629-132.667-74.98-181.019zM256 492C125.869 492 20 386.131 20 256S125.869 20 256 20s236 105.869 236 236-105.869 236-236 236z"></path><path d="M468.102 214.954c-13.48-70.045-60.708-128.831-126.339-157.253-5.067-2.195-10.955.135-13.15 5.202-2.194 5.068.135 10.956 5.203 13.15 59.559 25.793 102.417 79.131 114.646 142.68.921 4.785 5.111 8.112 9.81 8.112.626 0 1.262-.059 1.899-.182 5.423-1.043 8.974-6.286 7.931-11.709zM302.43 45.005l-.262-.057c-5.396-1.164-10.719 2.27-11.881 7.67-1.163 5.399 2.271 10.718 7.67 11.881l.117.026a10.02 10.02 0 0 0 2.188.242c4.58 0 8.712-3.168 9.75-7.824 1.203-5.391-2.192-10.735-7.582-11.938zM180.443 436.91c-60.787-25.419-104.49-79.117-116.907-143.642-1.043-5.423-6.279-8.979-11.709-7.93-5.424 1.043-8.974 6.286-7.931 11.709 6.731 34.972 22.268 68.082 44.935 95.749 22.405 27.348 51.416 48.982 83.896 62.565a9.97 9.97 0 0 0 3.854.777c3.911 0 7.626-2.31 9.229-6.145 2.131-5.095-.272-10.953-5.367-13.083zM214.065 447.507l-.618-.136c-5.387-1.197-10.733 2.201-11.931 7.592s2.201 10.733 7.593 11.931l.7.154a10.05 10.05 0 0 0 2.138.231c4.601 0 8.742-3.195 9.761-7.873 1.175-5.397-2.247-10.724-7.643-11.899zM459.404 290.293c-5.39-1.177-10.722 2.246-11.899 7.642a195.49 195.49 0 0 1-154.238 150.529c-5.424 1.043-8.974 6.286-7.931 11.709.921 4.785 5.111 8.112 9.81 8.112.626 0 1.263-.059 1.9-.182 41.502-7.986 79.502-27.901 109.891-57.591 30.342-29.645 51.128-67.101 60.109-108.32 1.175-5.396-2.246-10.723-7.642-11.899zM226.662 51.828c-1.044-5.423-6.286-8.979-11.71-7.93-41.502 7.986-79.502 27.901-109.891 57.591-30.342 29.645-51.128 67.101-60.109 108.32-1.175 5.396 2.246 10.723 7.642 11.899.717.156 1.434.231 2.139.231 4.601 0 8.742-3.194 9.761-7.873A195.49 195.49 0 0 1 218.731 63.537c5.424-1.043 8.974-6.286 7.931-11.709zM256 222c-18.748 0-34 15.252-34 34s15.252 34 34 34 34-15.252 34-34-15.252-34-34-34zm0 48c-7.72 0-14-6.28-14-14s6.28-14 14-14 14 6.28 14 14-6.28 14-14 14zM256.152 40c-5.522 0-10 4.477-10 10v22.408c0 5.523 4.478 10 10 10 5.523 0 10-4.477 10-10V50c0-5.523-4.478-10-10-10zM255.848 422.464c-5.522 0-10 4.477-10 10V462c0 5.523 4.478 10 10 10s10-4.477 10-10v-29.536c0-5.523-4.478-10-10-10zM462 246.152h-27c-5.522 0-10 4.477-10 10s4.478 10 10 10h27c5.522 0 10-4.477 10-10s-4.478-10-10-10zM79 245.848H50c-5.522 0-10 4.477-10 10s4.478 10 10 10h29c5.522 0 10-4.477 10-10s-4.478-10-10-10z"></path><path d="M232 246h-45.667c-5.522 0-10 4.477-10 10s4.478 10 10 10H232c5.522 0 10-4.477 10-10s-4.478-10-10-10zM256 128.333c-5.522 0-10 4.477-10 10V232c0 5.523 4.478 10 10 10s10-4.477 10-10v-93.667c0-5.523-4.478-10-10-10z"></path></symbol><symbol viewBox="0 0 512 512" id="icon-003-appointment"><path d="M462 44h-47.667V30c0-16.542-13.458-30-30-30s-30 13.458-30 30v14h-168V30c0-16.542-13.458-30-30-30s-30 13.458-30 30v14.37a9.979 9.979 0 0 0-2.666-.37H83.823c-27.57 0-50 22.43-50 50v170.333c0 5.523 4.478 10 10 10s10-4.477 10-10V147h360.51c5.522 0 10-4.477 10-10s-4.478-10-10-10H53.823V94c0-16.542 13.458-30 30-30h39.844c.925 0 1.816-.136 2.666-.37V76.5c0 16.542 13.458 30 30 30s30-13.458 30-30V64h168v12.5c0 16.542 13.458 30 30 30s30-13.458 30-30V64H462c16.542 0 30 13.458 30 30v379.994c0 9.928-8.077 18.006-18.006 18.006s-18.006-8.078-18.006-18.006v-25.869c0-5.523-4.478-10-10-10H329.667c-5.522 0-10 4.477-10 10s4.478 10 10 10h106.321v15.869A37.775 37.775 0 0 0 440.533 492H38c-9.925 0-18-8.075-18-18v-15.875h223.825c5.522 0 10-4.477 10-10s-4.478-10-10-10h-99.916c17.474-15.049 28.57-37.309 28.57-62.125 0-45.215-36.785-82-82-82s-82 36.785-82 82c0 24.816 11.096 47.076 28.57 62.125H10c-5.522 0-10 4.477-10 10V474c0 20.953 17.047 38 38 38h435.994C494.95 512 512 494.951 512 473.994V94c0-27.57-22.43-50-50-50zM166.333 76.5c0 5.514-4.486 10-10 10s-10-4.486-10-10V30c0-5.514 4.486-10 10-10s10 4.486 10 10v46.5zm228 0c0 5.514-4.486 10-10 10s-10-4.486-10-10V30c0-5.514 4.486-10 10-10s10 4.486 10 10v46.5zM28.479 376c0-34.187 27.813-62 62-62s62 27.813 62 62-27.813 62-62 62-62-27.813-62-62z"></path><path d="M468.309 129.93a10.072 10.072 0 0 0-7.069-2.93c-2.631 0-5.21 1.07-7.07 2.93-1.86 1.86-2.93 4.44-2.93 7.07s1.069 5.21 2.93 7.07a10.076 10.076 0 0 0 7.07 2.93c2.63 0 5.21-1.07 7.069-2.93 1.86-1.86 2.931-4.44 2.931-7.07s-1.07-5.21-2.931-7.07zM298.649 441.05c-1.859-1.86-4.439-2.92-7.069-2.92s-5.21 1.06-7.07 2.92a10.093 10.093 0 0 0-2.93 7.07c0 2.64 1.069 5.21 2.93 7.08 1.86 1.86 4.44 2.92 7.07 2.92s5.21-1.06 7.069-2.92a10.118 10.118 0 0 0 2.931-7.08c0-2.63-1.07-5.2-2.931-7.07zM226.245 304c-20.953 0-38 17.047-38 38s17.047 38 38 38 38-17.047 38-38-17.047-38-38-38zm0 56c-9.925 0-18-8.075-18-18s8.075-18 18-18 18 8.075 18 18-8.075 18-18 18zM319.578 304c-20.953 0-38 17.047-38 38s17.047 38 38 38 38-17.047 38-38-17.047-38-38-38zm0 56c-9.925 0-18-8.075-18-18s8.075-18 18-18 18 8.075 18 18-8.075 18-18 18zM412.912 304c-20.953 0-38 17.047-38 38s17.047 38 38 38 38-17.047 38-38-17.047-38-38-38zm0 56c-9.925 0-18-8.075-18-18s8.075-18 18-18 18 8.075 18 18-8.075 18-18 18zM132.912 200c-20.953 0-38 17.047-38 38s17.047 38 38 38 38-17.047 38-38-17.047-38-38-38zm0 56c-9.925 0-18-8.075-18-18s8.075-18 18-18 18 8.075 18 18-8.075 18-18 18zM319.578 200c-20.953 0-38 17.047-38 38s17.047 38 38 38 38-17.047 38-38-17.047-38-38-38zm0 56c-9.925 0-18-8.075-18-18s8.075-18 18-18 18 8.075 18 18-8.075 18-18 18zM412.912 200c-20.953 0-38 17.047-38 38s17.047 38 38 38 38-17.047 38-38-17.047-38-38-38zm0 56c-9.925 0-18-8.075-18-18s8.075-18 18-18 18 8.075 18 18-8.075 18-18 18zM226.245 200c-20.953 0-38 17.047-38 38s17.047 38 38 38 38-17.047 38-38-17.047-38-38-38zm0 56c-9.925 0-18-8.075-18-18s8.075-18 18-18 18 8.075 18 18-8.075 18-18 18zM126.104 351.629c-3.906-3.905-10.236-3.905-14.143 0l-32.566 32.567-11.129-11.129c-3.906-3.905-10.236-3.905-14.143 0-3.905 3.905-3.905 10.237 0 14.143l18.201 18.199a10.003 10.003 0 0 0 14.142 0l39.638-39.638c3.905-3.905 3.905-10.237 0-14.142z"></path></symbol><symbol viewBox="0 0 103.116 103.116" id="icon-003-drop-of-liquid"><path d="M53.877 1.147c-1.043-1.529-3.604-1.529-4.64 0-1.333 1.978-32.702 48.505-32.702 66.947 0 19.306 15.718 35.021 35.021 35.021 19.306 0 35.022-15.716 35.022-35.021C86.58 49.652 55.209 3.12 53.877 1.147zm-2.32 96.365c-16.221 0-29.417-13.188-29.417-29.418 0-12.796 19.461-45.122 29.417-60.317 9.959 15.195 29.419 47.51 29.419 60.317 0 16.23-13.2 29.418-29.419 29.418zm2.801-8.405a2.804 2.804 0 0 1-2.801 2.802c-13.135 0-23.813-10.682-23.813-23.814 0-1.543 1.261-2.802 2.802-2.802s2.801 1.259 2.801 2.802c0 10.047 8.169 18.211 18.211 18.211a2.799 2.799 0 0 1 2.8 2.801z"></path></symbol><symbol viewBox="0 0 512 512" id="icon-004-certificate"><path d="M448.004 93c5.523 0 10-4.477 10-10V30c0-16.542-13.458-30-30-30h-398c-16.542 0-30 13.458-30 30v452c0 16.542 13.458 30 30 30h398c16.542 0 30-13.458 30-30v-28c0-5.523-4.477-10-10-10s-10 4.477-10 10v28c0 5.514-4.486 10-10 10h-398c-5.514 0-10-4.486-10-10V30c0-5.514 4.486-10 10-10h398c5.514 0 10 4.486 10 10v53c0 5.523 4.477 10 10 10z"></path><path d="M400.01 48H57.998c-5.523 0-10 4.477-10 10v209c0 5.523 4.477 10 10 10s10-4.477 10-10V68H390.01v16c0 5.523 4.478 10 10 10 5.523 0 10-4.477 10-10V58c0-5.523-4.477-10-10-10zM65.064 296.93a10.058 10.058 0 0 0-7.07-2.93c-2.63 0-5.21 1.07-7.07 2.93s-2.93 4.44-2.93 7.07 1.07 5.21 2.93 7.07c1.86 1.86 4.44 2.93 7.07 2.93 2.64 0 5.21-1.07 7.07-2.93 1.87-1.86 2.93-4.44 2.93-7.07s-1.06-5.21-2.93-7.07zM400.01 422c-5.523 0-10 4.477-10 10v12H67.998V342.5c0-5.523-4.477-10-10-10s-10 4.477-10 10V454c0 5.523 4.477 10 10 10H400.01c5.523 0 10-4.477 10-10v-22c0-5.523-4.477-10-10-10z"></path><path d="M309.908 353.336c-3.905-3.906-10.236-3.906-14.142-.001L276.002 373.1l-12.285-12.286c-7.757-7.756-20.376-7.756-28.133 0l-7.994 7.994c-3.905 3.905-3.905 10.237 0 14.143 3.905 3.905 10.237 3.905 14.143 0l7.918-7.918 12.285 12.286c3.878 3.878 8.972 5.817 14.066 5.817s10.188-1.939 14.066-5.817l19.84-19.84c3.905-3.905 3.905-10.237 0-14.143z"></path><path d="M507.4 209.782a29.155 29.155 0 0 0 3.609-23.231 29.152 29.152 0 0 0-14.741-18.313 9.115 9.115 0 0 1-4.907-8.499 29.157 29.157 0 0 0-8.489-21.923 29.133 29.133 0 0 0-21.923-8.489 9.087 9.087 0 0 1-8.499-4.907 29.155 29.155 0 0 0-18.313-14.741 29.146 29.146 0 0 0-23.23 3.609 9.113 9.113 0 0 1-9.813 0 29.148 29.148 0 0 0-23.23-3.609 29.155 29.155 0 0 0-18.313 14.741 9.132 9.132 0 0 1-8.499 4.907 29.142 29.142 0 0 0-21.922 8.489 29.154 29.154 0 0 0-8.49 21.922 9.117 9.117 0 0 1-4.907 8.5 29.153 29.153 0 0 0-14.741 18.313 29.05 29.05 0 0 0-.711 11.449h-174.5c-5.523 0-10 4.477-10 10s4.477 10 10 10H305.39a9.006 9.006 0 0 1-.79 1.596 29.155 29.155 0 0 0-3.609 23.231c.29 1.083.647 2.141 1.057 3.173h-176.27c-5.523 0-10 4.477-10 10s4.477 10 10 10h194.265a9.035 9.035 0 0 1 .594 3.639 29.154 29.154 0 0 0 8.49 21.923 29.127 29.127 0 0 0 21.922 8.489c3.533-.173 6.873 1.761 8.499 4.907a29.023 29.023 0 0 0 4.451 6.344v93.393a10 10 0 0 0 17.053 7.089l24.947-24.817 24.947 24.817a9.997 9.997 0 0 0 10.892 2.144 10 10 0 0 0 6.161-9.234v-93.393a28.999 28.999 0 0 0 4.451-6.344 9.126 9.126 0 0 1 8.499-4.907 29.112 29.112 0 0 0 21.922-8.489 29.154 29.154 0 0 0 8.49-21.923 9.116 9.116 0 0 1 4.907-8.499 29.153 29.153 0 0 0 14.741-18.313 29.157 29.157 0 0 0-3.609-23.232 9.11 9.11 0 0 1 0-9.812zm-79.401 170.86l-14.948-14.87c-3.901-3.881-10.204-3.881-14.105 0l-14.947 14.87V320.65a29.166 29.166 0 0 0 17.094-4.56 9.113 9.113 0 0 1 9.813 0 29.147 29.147 0 0 0 15.72 4.597c.458 0 .915-.023 1.373-.045v60zm63.691-142.991a8.991 8.991 0 0 1-4.607 5.723c-10.064 5.203-16.228 15.877-15.701 27.195a8.991 8.991 0 0 1-2.653 6.852 8.998 8.998 0 0 1-6.851 2.653c-11.324-.524-21.992 5.636-27.195 15.701a8.987 8.987 0 0 1-5.724 4.607c-2.5.669-5.08.27-7.259-1.128a29.075 29.075 0 0 0-15.702-4.586 29.082 29.082 0 0 0-15.701 4.586 8.998 8.998 0 0 1-7.26 1.128 8.993 8.993 0 0 1-5.724-4.607c-5.203-10.064-15.869-16.23-27.195-15.701a9.003 9.003 0 0 1-6.851-2.653 8.988 8.988 0 0 1-2.653-6.853c.371-7.988-2.602-15.646-7.915-21.295a9.882 9.882 0 0 0-.483-.499 28.922 28.922 0 0 0-7.303-5.4c-2.3-1.189-3.936-3.221-4.606-5.723s-.27-5.081 1.128-7.26c6.115-9.538 6.115-21.864 0-31.402a8.996 8.996 0 0 1-1.128-7.261 8.991 8.991 0 0 1 4.607-5.723c10.064-5.203 16.227-15.877 15.701-27.195a8.991 8.991 0 0 1 2.653-6.852 8.998 8.998 0 0 1 6.851-2.653c11.325.525 21.993-5.636 27.195-15.701a8.987 8.987 0 0 1 5.724-4.607 8.991 8.991 0 0 1 7.259 1.128c9.539 6.116 21.866 6.116 31.402 0a8.99 8.99 0 0 1 7.26-1.128 8.993 8.993 0 0 1 5.724 4.607c5.203 10.064 15.876 16.229 27.195 15.701a8.993 8.993 0 0 1 6.851 2.653 8.987 8.987 0 0 1 2.653 6.852c-.526 11.317 5.636 21.992 15.702 27.195a8.987 8.987 0 0 1 4.606 5.723 8.99 8.99 0 0 1-1.128 7.26c-6.115 9.538-6.115 21.864 0 31.402a8.988 8.988 0 0 1 1.128 7.261z"></path><path d="M453.556 187.486c-3.905-3.905-10.237-3.905-14.142 0l-33.191 33.192-13.213-13.213c-3.905-3.905-10.237-3.905-14.143 0-3.905 3.905-3.905 10.237 0 14.143l20.284 20.284c1.953 1.953 4.512 2.929 7.071 2.929s5.119-.976 7.071-2.929l40.263-40.263c3.905-3.905 3.905-10.237 0-14.143zM122.074 120.93a10.076 10.076 0 0 0-7.07-2.93c-2.63 0-5.21 1.07-7.07 2.93-1.86 1.86-2.93 4.44-2.93 7.07s1.07 5.21 2.93 7.07c1.86 1.86 4.44 2.93 7.07 2.93s5.21-1.07 7.07-2.93c1.86-1.86 2.93-4.44 2.93-7.07s-1.07-5.21-2.93-7.07zM200.997 118H152.33c-5.523 0-10 4.477-10 10s4.477 10 10 10h48.667c5.523 0 10-4.477 10-10s-4.477-10-10-10zM302.838 294H188.516c-5.523 0-10 4.477-10 10s4.477 10 10 10h114.321c5.523 0 10-4.477 10-10s-4.476-10-9.999-10z"></path></symbol><symbol viewBox="0 0 97.285 97.285" id="icon-arrow"><path d="M83.952 34.479L50.056.585a2 2 0 0 0-2.828 0L13.333 34.479a2 2 0 0 0 0 2.828l9.03 9.031a1.999 1.999 0 0 0 2.828 0l14.534-14.532v63.478a2 2 0 0 0 2 2H55.56a2 2 0 0 0 2-2V31.807l14.532 14.532c.75.75 2.078.75 2.828 0l9.031-9.031a2 2 0 0 0 .001-2.829z"></path></symbol><symbol viewBox="0 0 484.3 431.5" id="icon-bitcoin"><path d="M312.3 399.6H172.1c-3.8 0-6.9-3.1-6.9-6.9 0-13.8-11.2-25-25-25.1-4.4 0-8.8 1.2-12.6 3.4-3.3 1.9-7.5.8-9.5-2.5L48.2 247.4c-1.9-3.3-.8-7.5 2.5-9.5 0 0 .1 0 .1-.1 12.2-6.7 16.7-22 10-34.2-2.3-4.2-5.8-7.7-10-10-3.3-1.8-4.6-6-2.7-9.4 0 0 0-.1.1-.1L118.1 63c1.9-3.3 6.1-4.4 9.4-2.5 12 6.9 27.3 2.9 34.2-9.1 2.2-3.8 3.4-8.2 3.4-12.6 0-3.8 3.1-6.9 6.9-6.9h140.2c3.8 0 6.9 3.1 6.9 6.9 0 13.8 11.2 25 25 25.1 4.4 0 8.8-1.2 12.6-3.4 3.3-1.9 7.5-.8 9.5 2.5l69.9 121.1c1.9 3.3.8 7.5-2.5 9.4 0 0-.1 0-.1.1-12.2 6.6-16.6 21.9-10 34.1 2.3 4.2 5.8 7.7 10 10 3.3 1.8 4.6 6 2.7 9.4 0 0 0 .1-.1.1l-69.9 121.1c-1.9 3.3-6.1 4.4-9.4 2.5-12-6.9-27.3-2.9-34.2 9.1-2.2 3.8-3.4 8.2-3.4 12.6 0 4-3.1 7.1-6.9 7.1zm-133.9-13.9H306c3.8-21.1 24-35.2 45.1-31.4 2.2.4 4.3 1 6.3 1.7l63.5-110c-16.7-13.6-19.2-38.1-5.7-54.7 1.7-2.1 3.6-4 5.7-5.7L357.4 75.5c-20.2 7.3-42.5-3.2-49.7-23.4-.7-2.1-1.3-4.2-1.7-6.3H178.4c-3.8 21.1-24 35.2-45.1 31.4-2.2-.4-4.3-1-6.3-1.7l-63.6 110c16.7 13.6 19.2 38.2 5.6 54.9-1.7 2.1-3.6 3.9-5.6 5.6L127 356c20.2-7.3 42.5 3.2 49.7 23.3.7 2.1 1.3 4.2 1.7 6.4z"></path><path d="M140.1 77.8c-21.5 0-38.9-17.4-38.9-38.9S118.6 0 140.1 0 179 17.4 179 38.9s-17.4 38.8-38.9 38.9zm0-64c-13.8 0-25 11.2-25.1 25 0 13.8 11.2 25 25 25.1 13.8 0 25-11.2 25.1-25 0-13.8-11.2-25-25-25.1zM38.9 254.7C17.4 254.7 0 237.2 0 215.8s17.4-38.9 38.9-38.9 38.9 17.4 38.9 38.9c-.1 21.4-17.4 38.8-38.9 38.9zm0-64c-13.8 0-25 11.2-25.1 25 0 13.8 11.2 25 25 25.1 13.8 0 25-11.2 25.1-25 0-13.9-11.2-25.1-25-25.1zM140.1 431.5c-21.5 0-38.9-17.4-38.9-38.9s17.4-38.9 38.9-38.9 38.9 17.4 38.9 38.9-17.4 38.9-38.9 38.9zm0-63.9c-13.8 0-25 11.2-25.1 25 0 13.8 11.2 25 25 25.1 13.8 0 25-11.2 25.1-25 0-13.9-11.2-25.1-25-25.1zM344.3 77.8c-21.5 0-38.9-17.4-38.9-38.9S322.8 0 344.3 0s38.9 17.4 38.9 38.9c-.1 21.5-17.5 38.8-38.9 38.9zm0-64c-13.8 0-25 11.2-25.1 25 0 13.8 11.2 25 25 25.1 13.8 0 25-11.2 25.1-25 0-13.8-11.2-25-25-25.1zM445.5 254.7c-21.5 0-38.9-17.4-38.9-38.9s17.4-38.9 38.9-38.9 38.9 17.4 38.9 38.9c-.1 21.4-17.5 38.8-38.9 38.9zm0-64c-13.8 0-25 11.2-25.1 25 0 13.8 11.2 25 25 25.1 13.8 0 25-11.2 25.1-25 0-13.9-11.2-25.1-25-25.1zM344.3 431.5c-21.5 0-38.9-17.4-38.9-38.9s17.4-38.9 38.9-38.9 38.9 17.4 38.9 38.9c-.1 21.5-17.5 38.9-38.9 38.9zm0-63.9c-13.8 0-25 11.2-25.1 25 0 13.8 11.2 25 25 25.1 13.8 0 25-11.2 25.1-25 0-13.9-11.2-25.1-25-25.1z"></path><path d="M131.1 222.7H70.8c-3.8 0-6.9-3.1-6.9-6.9 0-3.8 3.1-6.9 6.9-6.9H131c3.8 0 6.9 3.1 6.9 6.9.1 3.8-3 6.9-6.8 6.9zM413.5 222.7h-60.2c-3.8 0-6.9-3.1-6.9-6.9 0-3.8 3.1-6.9 6.9-6.9h60.2c3.8 0 6.9 3.1 6.9 6.9 0 3.8-3.1 6.9-6.9 6.9zM297.5 126.3c-3.8 0-6.9-3.1-6.9-6.9 0-1.2.3-2.5 1-3.5l31.3-52.5c2-3.3 6.2-4.3 9.5-2.3 3.2 2 4.3 6.1 2.4 9.4L303.4 123c-1.2 2-3.5 3.3-5.9 3.3zM186.9 126.3c-2.4 0-4.7-1.3-6-3.4l-31.3-52.6c-1.9-3.3-.8-7.5 2.5-9.5 3.3-1.9 7.4-.8 9.4 2.4l31.3 52.5c2 3.3.9 7.5-2.4 9.5-1.1.7-2.3 1.1-3.5 1.1zM328.8 371.7c-2.4 0-4.7-1.3-6-3.4l-31.3-52.5c-2.1-3.2-1.1-7.5 2.1-9.6 3.2-2.1 7.5-1.1 9.6 2.1.1.1.2.2.2.4l31.3 52.5c2 3.3.9 7.5-2.4 9.5-1.1.7-2.3 1-3.5 1zM155.6 371.7c-3.8 0-6.9-3.1-6.9-6.9 0-1.2.3-2.5 1-3.5l31.3-52.5c1.8-3.3 6.1-4.6 9.4-2.7 3.3 1.8 4.6 6.1 2.7 9.4-.1.1-.1.3-.2.4l-31.3 52.5c-1.3 2-3.6 3.3-6 3.3z"></path><path d="M131.1 222.7H70.8c-3.8 0-6.9-3.1-6.9-6.9 0-3.8 3.1-6.9 6.9-6.9H131c3.8 0 6.9 3.1 6.9 6.9.1 3.8-3 6.9-6.8 6.9zM413.5 222.7h-60.2c-3.8 0-6.9-3.1-6.9-6.9 0-3.8 3.1-6.9 6.9-6.9h60.2c3.8 0 6.9 3.1 6.9 6.9 0 3.8-3.1 6.9-6.9 6.9z"></path><path d="M242.2 333.8c-65.2 0-118.1-52.9-118.1-118.1s52.9-118 118.1-118 118.1 52.9 118.1 118.1c-.1 65.1-53 117.9-118.1 118zm0-222.2c-57.6 0-104.2 46.7-104.2 104.2S184.6 320 242.2 320s104.2-46.7 104.2-104.2c-.1-57.6-46.7-104.2-104.2-104.2z"></path><path d="M250.6 222.7h-35.7c-3.8 0-6.9-3.1-6.9-6.9v-57.3c0-3.8 3.1-6.9 6.9-6.9h35.7c19.7-.3 35.8 15.4 36.1 35.1s-15.4 35.8-35.1 36.1c-.4-.1-.7-.1-1-.1zm-28.8-13.9h28.7c12 .2 21.9-9.3 22.1-21.4.2-12-9.3-21.9-21.4-22.1h-29.5v43.5z"></path><path d="M259.7 280h-44.8c-3.8 0-6.9-3.1-6.9-6.9v-57.3c0-3.8 3.1-6.9 6.9-6.9h44.8c19.7 0 35.6 15.9 35.6 35.6s-16 35.5-35.6 35.5zm-37.9-13.8h37.9c12 0 21.8-9.7 21.8-21.7s-9.7-21.8-21.7-21.8h-37.9v43.5zM214.9 165.3h-10.2c-3.8 0-6.9-3.1-6.9-6.9s3.1-6.9 6.9-6.9h10.2c3.8 0 6.9 3.1 6.9 6.9s-3.1 6.9-6.9 6.9z"></path><path d="M220.6 165.3c-3.8 0-6.9-3.1-6.9-6.9v-12.9c0-3.8 3.1-6.9 6.9-6.9s6.9 3.1 6.9 6.9v12.9c.1 3.9-3 6.9-6.9 6.9zM243 165.3c-3.8 0-6.9-3.1-6.9-6.9v-12.9c0-3.8 3.1-6.9 6.9-6.9s6.9 3.1 6.9 6.9v12.9c0 3.9-3.1 6.9-6.9 6.9zM220.6 292.9c-3.8 0-6.9-3.1-6.9-6.9v-12.9c0-3.8 3.1-6.9 6.9-6.9s6.9 3.1 6.9 6.9V286c.1 3.8-3 6.9-6.9 6.9zM243 292.9c-3.8 0-6.9-3.1-6.9-6.9v-12.9c0-3.8 3.1-6.9 6.9-6.9s6.9 3.1 6.9 6.9V286c0 3.8-3.1 6.9-6.9 6.9z"></path><path d="M214.9 280h-10.2c-3.8 0-6.9-3.1-6.9-6.9 0-3.8 3.1-6.9 6.9-6.9h10.2c3.8 0 6.9 3.1 6.9 6.9 0 3.8-3.1 6.9-6.9 6.9z"></path></symbol><symbol viewBox="0 0 480 416" id="icon-briefcase"><path d="M456 80h-88V56c0-30.9-25.1-56-56-56H168c-30.9 0-56 25.1-56 56v24H24C10.7 80 0 90.7 0 104v160c0 10.1 6.4 19.1 16 22.5V392c0 13.3 10.7 24 24 24h400c13.3 0 24-10.7 24-24V286.5c9.6-3.4 16-12.4 16-22.5V104c0-13.3-10.7-24-24-24zM128 56c0-22.1 17.9-40 40-40h144c22.1 0 40 17.9 40 40v24h-16.3l.3-24c0-13.2-10.8-24-24-24H167.7c-13.2 0-24 10.8-24 24v.1l.2 23.9H128V56zm192-.1l-.3 24.1H159.9l-.2-24c0-4.4 3.6-8 8-8H312c4.4 0 7.9 3.5 8 7.9zM448 392c0 4.4-3.6 8-8 8H40c-4.4 0-8-3.6-8-8V288h56v24c0 4.4 3.6 8 8 8h32c4.4 0 8-3.6 8-8v-24h208v24c0 4.4 3.6 8 8 8h32c4.4 0 8-3.6 8-8v-24h56v104zm-344-88v-40c0-2.2.9-4.2 2.5-5.7 1.5-1.5 3.5-2.3 5.5-2.3 4.4 0 8 3.6 8 8v40h-16zm256 0v-40c0-4.4 3.6-8 8-8 2.2 0 4.2.9 5.7 2.4s2.3 3.5 2.3 5.6v40h-16zm104-40c0 4.4-3.6 8-8 8h-64v-8c-.1-13.2-10.8-23.9-24-24-13.3 0-24 10.7-24 24v8H136v-8c0-13.3-10.7-24-24-24-13.2.1-23.9 10.8-24 24v8H24c-4.4 0-8-3.6-8-8V104c0-4.4 3.6-8 8-8h432c4.4 0 8 3.6 8 8v160z"></path></symbol><symbol viewBox="0 0 32 32" id="icon-cancel-button"><path d="M16 0C7.164 0 0 7.164 0 16s7.164 16 16 16 16-7.164 16-16S24.836 0 16 0zm7.914 21.086l-2.828 2.828L16 18.828l-5.086 5.086-2.828-2.828L13.172 16l-5.086-5.086 2.828-2.828L16 13.172l5.086-5.086 2.828 2.828L18.828 16l5.086 5.086z"></path></symbol><symbol viewBox="0 0 438.533 438.533" id="icon-checked-symbol"><path d="M409.133 109.203c-19.608-33.592-46.205-60.189-79.798-79.796C295.736 9.801 259.058 0 219.273 0c-39.781 0-76.47 9.801-110.063 29.407-33.595 19.604-60.192 46.201-79.8 79.796C9.801 142.8 0 179.489 0 219.267c0 39.78 9.804 76.463 29.407 110.062 19.607 33.592 46.204 60.189 79.799 79.798 33.597 19.605 70.283 29.407 110.063 29.407s76.47-9.802 110.065-29.407c33.593-19.602 60.189-46.206 79.795-79.798 19.603-33.596 29.403-70.284 29.403-110.062.001-39.782-9.8-76.472-29.399-110.064zm-47.688 76.66L206.42 340.889c-3.617 3.62-7.992 5.428-13.134 5.428-4.948 0-9.229-1.808-12.847-5.428L77.083 237.539c-3.422-3.429-5.137-7.703-5.137-12.847 0-5.328 1.709-9.709 5.137-13.136l25.981-25.693c3.621-3.616 7.898-5.424 12.85-5.424s9.235 1.809 12.85 5.424l64.525 64.523 116.485-116.199c3.617-3.617 7.898-5.426 12.847-5.426 4.945 0 9.233 1.809 12.847 5.426l25.981 25.697c3.432 3.424 5.14 7.801 5.14 13.129 0 5.141-1.708 9.424-5.144 12.85z"></path></symbol><symbol viewBox="0 0 411.6 512" id="icon-click"><path d="M296.8 512c-22.4 0-44.1-12.5-54.5-33.8l-30.2-56.5-17.1 32.7c-.4.8-.9 1.6-1.5 2.4-11.2 15.6-29.7 21.1-43.4 21.1h-.3c-15.3-.1-30.5-6.7-41.8-18-11.7-11.8-18.1-27.4-18.1-44V157c0-23.6 13.3-44.5 34.7-54.4 21.2-9.9 45.5-6.7 63.5 8.1L320 208.8c8.9 6.6 10.7 19.1 4.1 28-6.6 8.9-19.1 10.7-28 4.1l-132.2-98.4c-.3-.2-.6-.5-1-.8-9-7.6-18.6-4.1-21.3-2.9-2.7 1.3-11.6 6.3-11.6 18.1v259c0 12.9 10.6 21.9 20.1 22h.1c3.9 0 8.2-1.6 10.3-3.8l33.8-64.4c3.4-6.6 10.2-10.7 17.6-10.7h.1c7.4 0 14.2 4.1 17.6 10.6l48.2 90.2c.1.3.3.5.4.8 4.8 10 16.9 14.4 27 9.7 5-2.3 8.8-6.5 10.7-11.7 1.8-5 1.6-10.5-.6-15.3l-48.6-86.5c-3.5-6.2-3.4-13.8.2-19.9 3.6-6.1 10.2-9.9 17.3-9.9h68.6c11.6-.6 16.2-9.7 17.4-12.5 1.2-2.9 4.4-13-3.9-21.7-7.6-8-7.2-20.7.8-28.3 8-7.6 20.7-7.2 28.3.8 16.4 17.4 20.9 42.1 11.8 64.3-9.1 22.2-29.5 36.5-53.2 37.4h-35.5l32.2 57.3c.2.4.4.7.6 1.1 7.1 14.7 8 31.3 2.5 46.7-5.5 15.4-16.7 27.6-31.5 34.5-8.5 3.6-17 5.4-25.5 5.4zM112.6 78.5c9.7-5.3 13.2-17.5 7.9-27.2l-17-31C98.2 10.6 86 7.1 76.3 12.4s-13.2 17.5-7.9 27.2l17 31C89.1 77.3 96 81 103 81c3.3 0 6.6-.8 9.6-2.5zM70.3 124c4.4-10.1-.2-21.9-10.3-26.3l-32-14C17.9 79.3 6.1 83.9 1.7 94c-4.4 10.1.2 21.9 10.3 26.3l32 14c2.6 1.1 5.3 1.7 8 1.7 7.7 0 15-4.5 18.3-12zM195 59.3l11-33c3.5-10.5-2.2-21.8-12.6-25.3-10.5-3.5-21.8 2.2-25.3 12.6l-11 33c-3.5 10.5 2.2 21.8 12.6 25.3 2.1.7 4.2 1 6.3 1 8.4.1 16.2-5.2 19-13.6zm52.9 50.8l27-20c8.9-6.6 10.7-19.1 4.2-28-6.6-8.9-19.1-10.7-28-4.2l-27 20c-8.9 6.6-10.7 19.1-4.2 28 3.9 5.3 10 8.1 16.1 8.1 4.2 0 8.3-1.3 11.9-3.9zM29.4 222.6l30-12c10.3-4.1 15.2-15.7 11.1-26s-15.7-15.2-26-11.1l-30 12c-10.3 4.1-15.2 15.7-11.1 26C6.6 219.3 14.1 224 22 224c2.5 0 5-.4 7.4-1.4z"></path></symbol><symbol viewBox="0 0 512 433.3" id="icon-cloud"><path d="M488.3 197.3c-15.3-15.3-35.6-23.7-57.2-23.7h-7.6c.1-2 .1-4 .1-5.9C423.7 75.2 348.4 0 256 0 181.9 0 116.6 48.8 95.4 119.3c-10.7 1.3-21.2 4.1-31 8.5-3.8 1.7-5.5 6.1-3.8 9.9 1.7 3.8 6.1 5.5 9.9 3.8 9.9-4.4 20.4-7 31.3-7.8 3.2-.2 5.9-2.5 6.7-5.6C126.3 61.6 186.9 15 256 15c84.2 0 152.7 68.5 152.7 152.7 0 4.2-.2 8.5-.5 12.8-.2 2.1.5 4.2 2 5.7 1.4 1.5 3.4 2.4 5.5 2.4h15.6c17.6 0 34.1 6.8 46.6 19.3 12.4 12.4 19.3 29 19.3 46.6 0 36.3-29.5 65.9-65.8 65.9h-53.3c.2-3 .3-6.1.3-9.2 0-51.3-31.8-95.3-76.7-113.4v-35.7l19.5-19.5c4.2 2.5 9.2 3.9 14.4 3.9 15.9 0 28.9-13 28.9-28.9s-13-28.9-28.9-28.9-28.9 13-28.9 28.9c0 5.3 1.4 10.2 3.9 14.4l-21.7 21.7c-1.4 1.4-2.2 3.3-2.2 5.3v33.8c-7.4-1.9-15.1-3.1-23-3.6v-77.3c12.3-3.3 21.4-14.6 21.4-27.9 0-15.9-13-28.9-28.9-28.9s-28.9 13-28.9 28.9c0 13.3 9.1 24.6 21.4 27.9v77.3c-7.9.5-15.6 1.7-23 3.6V159c0-2-.8-3.9-2.2-5.3L201.6 132c2.5-4.2 3.9-9.2 3.9-14.4 0-15.9-13-28.9-28.9-28.9s-28.9 13-28.9 28.9 13 28.9 28.9 28.9c5.2 0 10.2-1.4 14.4-3.9l19.5 19.5v35.7c-44.9 18.1-76.7 62.1-76.7 113.4 0 3.1.1 6.2.3 9.2h-25.8c-24.9 0-48.4-9.7-66-27.4C24.7 275.4 15 251.9 15 227c0-27 11.7-52.7 32.1-70.5 3.1-2.7 3.5-7.5.7-10.6-2.7-3.1-7.5-3.5-10.6-.7C13.6 165.7 0 195.6 0 226.9c0 28.9 11.3 56.2 31.7 76.6 20.5 20.5 47.7 31.7 76.6 31.7h27.9c11.3 55.8 60.7 98 119.8 98s108.5-42.2 119.8-98h55.4c44.6 0 80.9-36.3 80.9-80.9-.1-21.4-8.5-41.7-23.8-57zm-152.9-93.6c7.7 0 13.9 6.2 13.9 13.9s-6.2 13.9-13.9 13.9-13.9-6.2-13.9-13.9 6.2-13.9 13.9-13.9zm-172.7 13.9c0-7.7 6.2-13.9 13.9-13.9s13.9 6.2 13.9 13.9-6.2 13.9-13.9 13.9-13.9-6.2-13.9-13.9zM242.1 84c0-7.7 6.2-13.9 13.9-13.9s13.9 6.2 13.9 13.9-6.2 13.9-13.9 13.9-13.9-6.2-13.9-13.9zM256 418.3c-59.1 0-107.2-48.1-107.2-107.2S196.9 204 256 204s107.2 48 107.2 107.1S315.1 418.3 256 418.3z"></path><path d="M256 218.4c-51.1 0-92.7 41.6-92.7 92.7s41.6 92.7 92.7 92.7c18.4 0 36.3-5.4 51.5-15.6 3.4-2.3 4.4-7 2.1-10.4-2.3-3.4-7-4.4-10.4-2.1-12.8 8.6-27.7 13.1-43.2 13.1-42.8 0-77.7-34.8-77.7-77.7 0-42.8 34.8-77.7 77.7-77.7s77.7 34.9 77.7 77.7c0 16.6-5.2 32.5-15 45.8-2.4 3.3-1.7 8 1.6 10.5 3.3 2.4 8 1.7 10.5-1.6 11.7-16 17.9-34.9 17.9-54.7 0-51.1-41.6-92.7-92.7-92.7z"></path><path d="M264.9 375.2c4.1 0 7.5-3.4 7.5-7.5v-11.5h.1c15.6 0 28.4-12.7 28.4-28.4 0-10.9-6.2-20.4-15.2-25.1 2.2-3.6 3.5-7.9 3.5-12.5 0-10.7-7-19.9-16.7-23v-12.7c0-4.1-3.4-7.5-7.5-7.5s-7.5 3.4-7.5 7.5V266h-7v-11.5c0-4.1-3.4-7.5-7.5-7.5s-7.5 3.4-7.5 7.5V266h-14.1c-4.1 0-7.5 3.4-7.5 7.5s3.4 7.5 7.5 7.5h5.5v60.2h-5.5c-4.1 0-7.5 3.4-7.5 7.5s3.4 7.5 7.5 7.5h14.1v11.5c0 4.1 3.4 7.5 7.5 7.5s7.5-3.4 7.5-7.5v-11.5h7v11.5c-.1 4.2 3.2 7.5 7.4 7.5zm7.6-34h-30.7v-26.8H272.5c7.4 0 13.4 6 13.4 13.4s-6 13.4-13.4 13.4zm-7.6-41.7h-23.1V281h23.1c5.1 0 9.2 4.1 9.2 9.2s-4.2 9.3-9.2 9.3z"></path></symbol><symbol viewBox="0 0 469.333 469.333" id="icon-copy"><path d="M330.667 0h-256C51.093 0 32 19.093 32 42.667v298.667h42.667V42.667h256V0z"></path><path d="M394.667 85.333H160c-23.573 0-42.667 19.093-42.667 42.667v298.667c0 23.573 19.093 42.667 42.667 42.667h234.667c23.573 0 42.667-19.093 42.667-42.667V128c-.001-23.573-19.094-42.667-42.667-42.667zm0 341.334H160V128h234.667v298.667z"></path></symbol><symbol viewBox="0 0 330 330" id="icon-copy2"><path d="M315 60h-45V15c0-8.284-6.716-15-15-15H15C6.716 0 0 6.716 0 15v240c0 8.284 6.716 15 15 15h45v45c0 8.284 6.716 15 15 15h240c8.284 0 15-6.716 15-15V75c0-8.284-6.716-15-15-15zM30 30h210v210H75.01l-.01-.001-.01.001H30V30zm270 270H90v-30h165c8.284 0 15-6.716 15-15V90h30v210z"></path></symbol><symbol viewBox="0 0 612 545.5" id="icon-credit-cards-payment"><path d="M588.6 80L213.8.6c-15.9-3.4-31.6 6.9-34.9 22.7l-7.1 45.8 432.5 91.5 7.1-45.8c3.3-15.8-6.9-31.5-22.8-34.8zM431 170.4c-4.4-15.8-20.9-25.1-36.6-20.7l-71.2 19.8L155.5 134l-18.4 87.2-115.3 32C6 257.4-3.3 273.9 1.1 289.7l65 234.1c4.4 15.8 20.9 25.1 36.6 20.7L475.3 441c15.8-4.4 25.1-20.8 20.7-36.6l-11.1-40.2 41.8 8.8c15.9 3.4 31.6-6.9 34.9-22.7L588 225.4l-150.5-31.9-6.5-23.1zm43 118.9l9.2-43.6c1.4-6.5 7.9-10.7 14.4-9.4l43.6 9.2c6.5 1.4 10.7 7.8 9.4 14.4l-9.2 43.6c-1.4 6.5-7.8 10.7-14.4 9.4l-43.6-9.2c-6.5-1.4-10.7-7.9-9.4-14.4zM28.3 276.4l103.1-28.6 243.3-67.5 26.2-7.3c.5-.1 1-.2 1.4-.2 2.1 0 4.6 1.4 5.3 4l3.1 11.1 9.6 34.7L37.1 329l-12.7-45.8c-.8-2.9 1-6 3.9-6.8zm444.3 134.5c.5 1.8 0 3.2-.5 4.2-.5.9-1.5 2.1-3.3 2.6L96.2 521.1c-.5.1-1 .2-1.4.2-2.1 0-4.6-1.4-5.3-4l-38-136.6 383.2-106.3 23.4 84.2 14.5 52.3z"></path><path d="M156.4 420.3c-1.8-6.4-8.5-10.2-14.9-8.4L98 424c-6.4 1.8-10.2 8.5-8.4 14.9l12.1 43.5c1.8 6.4 8.5 10.2 14.9 8.4l43.5-12.1c6.4-1.8 10.2-8.5 8.4-14.9l-12.1-43.5z"></path></symbol><symbol viewBox="0 0 32 32" id="icon-cross"><path d="M18.83 16l8.59-8.59a2 2 0 0 0-2.83-2.83L16 13.17 7.41 4.59a2 2 0 0 0-2.82 2.82L13.17 16l-8.58 8.59a2 2 0 1 0 2.83 2.83L16 18.83l8.59 8.59a2 2 0 0 0 2.83-2.83z" data-name="Layer 57"></path></symbol><symbol viewBox="0 0 512 467.5" id="icon-deposit"><path d="M478.6 203.2v-53c0-27.6-22.5-50.1-50.1-50.1h-64.6l-108-96c-6.3-5.6-15.9-5.6-22.2 0l-108 96H83.5c-46 0-83.5 37.4-83.5 83.5V384c0 46 37.4 83.5 83.5 83.5h345c27.6 0 50.1-22.5 50.1-50.1v-53C498 357.5 512 339 512 317.2v-66.8c0-21.7-14-40.3-33.4-47.2zM244.9 39l68.8 61.1H176.1L244.9 39zm200.3 378.4c0 9.2-7.5 16.7-16.7 16.7h-345c-27.6 0-50.1-22.5-50.1-50.1V183.7c0-27.6 22.5-50.1 50.1-50.1h345c9.2 0 16.7 7.5 16.7 16.7v50.1h-50.1c-46 0-83.5 37.4-83.5 83.5s37.4 83.5 83.5 83.5h50.1v50zm33.4-100.2c0 9.2-7.5 16.7-16.7 16.7h-66.8c-27.6 0-50.1-22.5-50.1-50.1s22.5-50.1 50.1-50.1h66.8c9.2 0 16.7 7.5 16.7 16.7v66.8z"></path><circle cx="395.1" cy="283.8" r="16.7"></circle></symbol><symbol viewBox="0 0 492 290.6" id="icon-down"><path d="M484.1 24.3L468 8.1C462.9 3 456.2.2 449 .2c-7.2 0-14 2.8-19 7.9L246.1 191.9l-184-184C57 2.8 50.2 0 43 0S29 2.8 24 7.9L7.9 24c-10.5 10.5-10.5 27.6 0 38L227 282c5.1 5.1 11.8 8.6 19.1 8.6h.1c7.2 0 14-3.6 19-8.6L484.1 62.6c5.1-5.1 7.9-12 7.9-19.2 0-7.2-2.8-14.1-7.9-19.1z"></path></symbol><symbol viewBox="0 0 12 21" id="icon-facebook"><style><![CDATA[.st0{fill:#231f20}]]></style><g id="facebook-Layer_2"><path class="st0" d="M6 21c-.6 0-1-.4-1-1V9H1c-.6 0-1-.4-1-1s.4-1 1-1h10c.6 0 1 .4 1 1s-.4 1-1 1H7v11c0 .6-.4 1-1 1zM6 4c-.6 0-1-.4-1-1 0-1.5 1.4-3 4-3h2c.6 0 1 .4 1 1s-.4 1-1 1H9c-1.3 0-2 .5-2 1 0 .6-.4 1-1 1z" id="facebook-Layer_3"></path></g></symbol><symbol viewBox="0 0 43.3 54.4" id="icon-file"><path d="M1.7 54.4h35.1c3.6 0 6.5-2.9 6.5-6.5V16.1 16c0-.2 0-.3-.1-.4 0-.1 0-.1-.1-.2-.1-.2-.2-.3-.3-.4l-.1-.1L27.7.5c-.1-.1-.3-.2-.5-.3H27c0-.1-.1-.2-.3-.2h-25C.8 0 0 .8 0 1.7v51c0 .9.8 1.7 1.7 1.7zM28.3 5.7l9.1 8.7h-6c-1.7 0-3.1-1.4-3.1-3.1V5.7zM3.4 3.4h21.5v7.9c0 3.6 2.9 6.5 6.5 6.5h8.5v30c0 1.7-1.4 3.1-3.1 3.1H3.4V3.4z"></path></symbol><symbol viewBox="0 0 480.002 480.002" id="icon-fluctuation"><path d="M80.006 328.002H16.002a7.998 7.998 0 0 0-8 7.996v136.004a7.998 7.998 0 0 0 7.996 8h64.004a7.998 7.998 0 0 0 8-7.996V336.002a7.998 7.998 0 0 0-7.996-8zm-8.005 136h-48v-120h48v120zM368.006 264.002h-64.004a7.998 7.998 0 0 0-8 7.996v200.004a7.998 7.998 0 0 0 7.996 8h64.004a7.998 7.998 0 0 0 8-7.996V272.002a7.998 7.998 0 0 0-7.996-8zm-8.005 200h-48v-184h48v184zM272.006 304.002h-64.004a7.998 7.998 0 0 0-8 7.996v160.004a7.998 7.998 0 0 0 7.996 8h64.004a7.998 7.998 0 0 0 8-7.996V312.002a7.998 7.998 0 0 0-7.996-8zm-8.005 160h-48v-144h48v144zM176.006 208.002h-64.004a7.998 7.998 0 0 0-8 7.996v256.004a7.998 7.998 0 0 0 7.996 8h64.004a7.998 7.998 0 0 0 8-7.996V216.002a7.998 7.998 0 0 0-7.996-8zm-8.005 256h-48v-240h48v240zM464.006 368.002h-64.004a7.998 7.998 0 0 0-8 7.996v96.004a7.998 7.998 0 0 0 7.996 8h64.004a7.998 7.998 0 0 0 8-7.996v-96.004a7.998 7.998 0 0 0-7.996-8zm-8.005 96h-48v-80h48v80z"></path><path d="M478.077 175.371a7.966 7.966 0 0 0-1.751-1.525l-32-20.57a7.997 7.997 0 0 0-12.325 6.726v16h-27.719l-61.625-92.438a8.303 8.303 0 0 0-13.312 0l-87.808 131.711L151.353 4.854a7.887 7.887 0 0 0-7.469-4.852 7.986 7.986 0 0 0-7.324 5.07L34.556 264.002H.001v16h40a7.992 7.992 0 0 0 7.441-5.07l96.871-245.891 88.336 206.109a7.995 7.995 0 0 0 14.008 1.289l89.344-134.016 57.344 86.016a7.994 7.994 0 0 0 6.656 3.562h32v16a7.997 7.997 0 0 0 13.207 6.07l32-27.43a7.991 7.991 0 0 0 .869-11.27zm-30.076 15.241v-15.953l10.637 6.836-10.637 9.117z"></path></symbol><symbol viewBox="0 0 22 22" id="icon-gift"><path d="M19 22H3c-.6 0-1-.4-1-1V11c0-.6.4-1 1-1s1 .4 1 1v9h14v-9c0-.6.4-1 1-1s1 .4 1 1v10c0 .6-.4 1-1 1z"></path><path d="M21 12H1c-.6 0-1-.4-1-1V6c0-.6.4-1 1-1h20c.6 0 1 .4 1 1v5c0 .6-.4 1-1 1zM2 10h18V7H2v3z"></path><path d="M11 22c-.6 0-1-.4-1-1V6c0-.6.4-1 1-1s1 .4 1 1v15c0 .6-.4 1-1 1z"></path><path d="M11 7H6.5C4.5 7 3 5.5 3 3.5S4.5 0 6.5 0c4.3 0 5.4 5.6 5.5 5.8.1.3 0 .6-.2.8-.2.3-.5.4-.8.4zM6.5 2C5.7 2 5 2.7 5 3.5S5.7 5 6.5 5h3.2c-.5-1.2-1.5-3-3.2-3z"></path><path d="M15.5 7H11c-.3 0-.6-.1-.8-.4-.2-.2-.2-.5-.2-.8 0-.2 1.2-5.8 5.5-5.8 2 0 3.5 1.5 3.5 3.5S17.5 7 15.5 7zm-3.2-2h3.2c.8 0 1.5-.7 1.5-1.5S16.3 2 15.5 2c-1.7 0-2.7 1.8-3.2 3z"></path></symbol><symbol viewBox="0 0 512 512" id="icon-graph"><path d="M251.988 512h-40c-19.851 0-36-16.149-36-36V228c0-19.851 16.149-36 36-36h40c19.851 0 36 16.149 36 36v248c0 19.851-16.15 36-36 36zM99.988 512h-40c-19.851 0-36-16.149-36-36V308c0-19.851 16.149-36 36-36h40c19.851 0 36 16.149 36 36v168c0 19.851-16.15 36-36 36zM403.988 512h-40c-19.851 0-36-16.149-36-36V144h-21.98c-10.276 0-19.328-5.8-23.622-15.136s-2.807-19.982 3.881-27.785c.076-.089.154-.178.232-.265l85.573-95.492a16 16 0 0 1 23.832 0l85.573 95.492c.079.087.156.176.232.265 6.688 7.802 8.175 18.449 3.881 27.785S472.244 144 461.968 144h-21.98v332c0 19.851-16.15 36-36 36z"></path></symbol><symbol viewBox="0 0 512 512" id="icon-group"><g fill="#90a4ae"><circle cx="95.995" cy="64" r="64"></circle><circle cx="415.995" cy="64" r="64"></circle></g><g fill="#455a64"><circle cx="255.995" cy="64" r="64"></circle><path d="M305.531 160h-99.04c-16.512 0-30.208 12.384-31.84 28.8l-14.56 145.6c-.448 4.512 1.024 8.96 4.064 12.352a15.994 15.994 0 0 0 11.84 5.248h17.504l13.12 131.2c1.632 16.384 15.36 28.8 31.872 28.8h35.04a31.91 31.91 0 0 0 31.84-28.8l13.12-131.2h17.504c4.544 0 8.832-1.92 11.872-5.248a15.889 15.889 0 0 0 4.032-12.352l-14.56-145.568C335.707 172.384 322.011 160 305.531 160z"></path></g><g fill="#90a4ae"><path d="M128.219 331.2l14.56-145.568c.896-9.056 4.192-17.12 8.384-24.576-1.888-.352-3.648-1.056-5.632-1.056h-99.04c-16.512 0-30.208 12.384-31.84 28.8L.091 334.4c-.448 4.512 1.024 8.96 4.064 12.352A15.994 15.994 0 0 0 15.995 352h17.504l13.12 99.2c1.632 16.384 15.36 28.8 31.872 28.8h35.04a31.91 31.91 0 0 0 31.84-28.8l9.6-72.512c-5.376-2.624-10.4-5.888-14.496-10.4-9.184-10.24-13.6-23.648-12.256-37.088zM497.339 188.832C495.707 172.384 482.043 160 465.531 160h-99.04c-2.016 0-3.776.704-5.696 1.056 4.192 7.456 7.488 15.52 8.384 24.576l14.56 145.568c1.376 13.312-3.008 26.816-12.064 36.896-4.16 4.576-9.248 7.872-14.624 10.528l9.6 72.512c1.632 16.416 15.328 28.8 31.84 28.8h35.04a31.91 31.91 0 0 0 31.84-28.8l13.12-99.2h17.504c4.544 0 8.832-1.92 11.872-5.248a15.889 15.889 0 0 0 4.032-12.352l-14.56-145.504z"></path></g></symbol><symbol viewBox="0 0 368 368" id="icon-grow"><path d="M360 352h-56v-24c0-22.055-17.945-40-40-40h-72v-8c0-13.23 10.77-24 24-24h48c22.055 0 40-17.945 40-40v-32c0-4.426-3.574-8-8-8h-32c-22.055 0-40 17.945-40 40v24h-8c-9.016 0-17.305 3.047-24 8.105v-72.503c44.785-4.067 80-41.778 80-87.602 0-48.52-39.48-88-88-88S96 39.48 96 88c0 45.824 35.215 83.535 80 87.594v72.504c-6.695-5.051-14.984-8.098-24-8.098h-8v-24c0-22.055-17.945-40-40-40H72c-4.414 0-8 3.574-8 8v32c0 22.055 17.945 40 40 40h48c13.23 0 24 10.77 24 24v8h-72c-22.055 0-40 17.945-40 40v24H8c-4.414 0-8 3.574-8 8s3.586 8 8 8h352c4.426 0 8-3.574 8-8s-3.574-8-8-8zM240 216c0-13.23 10.77-24 24-24h24v24c0 13.23-10.77 24-24 24h-24zm-160 0v-24h24c13.23 0 24 10.77 24 24v24h-24c-13.23 0-24-10.77-24-24zm32-128c0-39.703 32.305-72 72-72 39.703 0 72 32.297 72 72s-32.297 72-72 72c-39.695 0-72-32.297-72-72zM80 352v-24c0-13.23 10.77-24 24-24h160c13.23 0 24 10.77 24 24v24zm0 0"></path></symbol><symbol viewBox="0 0 67.9 56.6" id="icon-heart"><path d="M62.5 5.5c-7.4-7.4-19.4-7.4-26.8 0L34 7.3l-1.7-1.7c-7.4-7.4-19.4-7.4-26.8 0-7.2 7.2-7.3 18.7-.1 26.7 6.5 7.3 25.8 23 26.7 23.7.6.5 1.2.7 1.9.7h.1c.7 0 1.4-.2 2-.7.8-.7 20.1-16.4 26.7-23.7 7-8 6.9-19.5-.3-26.8zm-4.4 22.7C53 33.9 39 45.6 34 49.7c-5-4.1-19.1-15.8-24.2-21.5-5-5.6-5.1-13.5-.1-18.4C12.2 7.3 15.5 6 18.9 6s6.6 1.3 9.2 3.8l3.8 3.8c.4.4 1 .7 1.6.8 1 .2 2-.1 2.8-.8l3.8-3.8c5.1-5 13.3-5 18.3 0 4.8 4.9 4.7 12.9-.3 18.4z"></path></symbol><symbol viewBox="0 0 22 22" id="icon-instagram"><style><![CDATA[.st0{fill:#231f20}]]></style><g id="instagram-Layer_2"><g id="instagram-Layer_3"><path class="st0" d="M19.4 17.5v2.1H2.6V2.9h16.7v11.5c0 .6.5 1 1 1 .6 0 1-.5 1-1V2.9c0-1.1-.9-2.1-2.1-2.1H2.6C1.5.8.5 1.7.5 2.9v16.7c0 1.1.9 2.1 2.1 2.1h16.7c1.1 0 2.1-.9 2.1-2.1v-2.1c0-.6-.5-1-1-1-.6 0-1 .5-1 1z"></path><path class="st0" d="M11 7.5c2.2-.1 4 1.6 4 3.8.1 2.2-1.6 4-3.8 4-2.2.1-4-1.6-4-3.8v-.1c0-2.1 1.7-3.9 3.8-3.9m0-1.9C7.8 5.5 5.1 8 5.1 11.3s2.5 5.9 5.7 5.9c3.2.1 5.9-2.5 5.9-5.7v-.1c0-3.2-2.6-5.8-5.7-5.8zM16.7 4.2c-.6 0-.9.4-.9.9s.4.9.9.9c.6 0 .9-.4.9-.9s-.3-.9-.9-.9z"></path></g></g></symbol><symbol viewBox="0 0 30.051 30.051" id="icon-play-button"><path d="M19.982 14.438l-6.24-4.536a.752.752 0 0 0-1.195.607v9.069a.75.75 0 0 0 1.195.606l6.24-4.532a.747.747 0 0 0 0-1.214z"></path><path d="M15.026.002C6.726.002 0 6.728 0 15.028c0 8.297 6.726 15.021 15.026 15.021 8.298 0 15.025-6.725 15.025-15.021.001-8.3-6.727-15.026-15.025-15.026zm0 27.54c-6.912 0-12.516-5.601-12.516-12.514 0-6.91 5.604-12.518 12.516-12.518 6.911 0 12.514 5.607 12.514 12.518.001 6.913-5.603 12.514-12.514 12.514z"></path></symbol><symbol viewBox="0 0 512.008 512.008" id="icon-profits"><path d="M510.352 108.04a21.559 21.559 0 0 0-4.668-6.992c-.129-.129-.258-.151-.366-.258-1.936-1.829-4.152-3.356-6.647-4.389-2.044-.839-4.195-1.097-6.346-1.291-.645-.043-1.183-.344-1.829-.344H318.395c-11.896 0-21.513 9.616-21.513 21.513s9.616 21.513 21.513 21.513H438.78L268.485 309.054l-64.796-82.953a21.49 21.49 0 0 0-15.338-8.218c-6.26-.452-12.026 1.678-16.414 5.83L6.72 380.132c-8.627 8.175-8.992 21.792-.839 30.419a21.562 21.562 0 0 0 15.64 6.69 21.484 21.484 0 0 0 14.779-5.873l148.028-140.155 65.248 83.533a21.468 21.468 0 0 0 15.683 8.239 21.65 21.65 0 0 0 16.543-6.303l187.181-188.257V288.38c0 11.896 9.616 21.513 21.513 21.513 11.896 0 21.513-9.616 21.513-21.513V116.258a22.087 22.087 0 0 0-1.657-8.218z"></path></symbol><symbol viewBox="0 0 512 248" id="icon-right-arrow"><path d="M506.1 109.8L401.6 5.8c-7.8-7.8-20.5-7.8-28.3.1-7.8 7.8-7.8 20.5.1 28.3l70.2 69.8H20c-11 0-20 9-20 20s9 20 20 20h423.6l-70.2 69.8c-7.8 7.8-7.9 20.5-.1 28.3 7.8 7.8 20.5 7.9 28.3.1l104.5-104c7.9-7.9 7.8-20.6 0-28.4z"></path></symbol><symbol viewBox="0 0 512.009 512.009" id="icon-sprout"><path d="M271.004 302.23v-91.891c21.301-1.41 59.587-7.784 86.004-34.203 37.555-37.557 34.614-99.132 34.471-101.735-.421-7.634-6.516-13.73-14.151-14.151-2.601-.145-64.177-3.085-101.733 34.471-3.996 3.996-7.529 8.266-10.66 12.705-5.502-22.109-15.842-46.81-35.17-66.138C184.906-3.571 111.087-.044 107.968.13c-7.634.421-13.73 6.517-14.151 14.151-.172 3.121-3.701 76.94 41.159 121.8 32.865 32.865 81.265 39.758 106.028 41.027V302.23c4.967-.558 9.975-.846 15-.846 5.026 0 10.033.289 15 .846zM376.502 391.634a75.12 75.12 0 0 0-23.568 3.781c-6.777-15.826-17.421-29.947-30.965-40.832-18.614-14.96-42.041-23.199-65.965-23.199-23.923 0-47.35 8.239-65.965 23.199-13.544 10.885-24.188 25.006-30.965 40.832a75.125 75.125 0 0 0-23.568-3.781c-41.492 0-75.249 33.757-75.249 75.25v30.125c0 8.284 6.716 15 15 15H436.75c8.284 0 15-6.716 15-15v-30.125c.001-41.493-33.755-75.25-75.248-75.25z"></path></symbol><symbol viewBox="0 0 511.96 511.96" id="icon-telegram"><path d="M371.763 511.892c-15.619 0-31.121-4.567-44.594-13.531l-107.352-71.428c-9.196-6.119-11.69-18.534-5.572-27.73 6.119-9.195 18.535-11.691 27.73-5.572l107.352 71.428c11.664 7.762 25.729 9.025 38.587 3.467 12.858-5.556 21.576-16.662 23.917-30.471l59.454-350.679c2.544-15.007-3.121-29.532-15.154-38.854-12.035-9.323-27.517-11.178-41.416-4.966L63.912 200.41c-13.698 6.125-22.621 18.707-23.869 33.657-1.249 14.951 5.463 28.839 17.955 37.15l48.979 32.588c9.196 6.119 11.69 18.534 5.572 27.73-6.119 9.194-18.535 11.69-27.73 5.572L35.84 304.52c-52.669-33.74-45.777-116.101 11.745-140.626L398.387 7.039a80.447 80.447 0 0 1 82.24 9.86 80.44 80.44 0 0 1 30.096 77.161l-59.454 350.679c-4.58 27.017-22.333 49.635-47.487 60.504-10.302 4.451-21.189 6.649-32.019 6.649zM173.897 491.96v-92.351c0-17.991 7.33-35.572 20.111-48.234l187.964-186.207c7.848-7.773 7.907-20.437.133-28.283-7.773-7.847-20.438-7.908-28.283-.133L165.857 322.959c-20.311 20.122-31.96 48.06-31.96 76.65v92.351c0 11.046 8.954 20 20 20s20-8.954 20-20z"></path></symbol><symbol viewBox="0 0 475.9 383.6" id="icon-youtube"><path d="M458.3 68.7c-6.6-25-25.9-44.6-50.5-51.3-25.4-6.9-72.6-9.5-127.5-10.4-5.5-.1-10.1 4.3-10.2 9.8s4.3 10.1 9.8 10.2c76 1.3 104.3 4.7 122.6 9.7 17.7 4.8 31.7 19 36.5 37.1 9.8 37.3 10 117 10 117.8 0 .8-.1 80.5-10 117.8-4.8 18.1-18.7 32.3-36.5 37.1-36.7 10-138 10.1-139.5 10.1s-152.9-.1-189.6-10.1c-17.7-4.8-31.7-19-36.5-37.1-9.8-37.3-9.9-117-9.9-117.8s.1-80.5 10-117.8c4.8-18.1 18.7-32.3 36.5-37.1 18.6-5.1 21.1-8.5 99.4-9.7 5.5-.1 9.9-4.6 9.8-10.2-.1-5.5-4.6-9.9-10.2-9.8-56.6.9-78.4 3.4-104.3 10.4-24.6 6.7-44 26.3-50.5 51.3C7.1 108.5 7 188.2 7 191.6s.1 83.1 10.6 122.9c6.6 25 25.9 44.6 50.5 51.3 39.3 10.7 188.6 10.8 194.9 10.8s105.5-.1 144.7-10.8c24.6-6.7 44-26.3 50.5-51.3 10.6-39.8 10.7-119.5 10.7-122.9s-.1-83.1-10.6-122.9z"></path><path d="M263 383.6c-16 0-157.3-.3-196.7-11-27-7.3-48.2-28.9-55.4-56.3C.1 275.7 0 195 0 191.6s.1-84.1 10.9-124.7C18 39.6 39.3 18 66.4 10.6 94 3.2 116.8.9 172.4 0c9.4-.2 17.1 7.3 17.3 16.7.2 9.4-7.3 17.2-16.7 17.3-68.8 1.1-78 3.7-91.9 7.8-1.8.5-3.7 1.1-5.8 1.6C60 47.6 47.9 59.9 43.8 75.6 34.1 112 34 190.8 34 191.6s.1 79.6 9.7 116c4.2 15.7 16.2 28 31.6 32.1 35.8 9.7 186.3 9.9 187.8 9.9 1 0 101.9-.1 137.7-9.9 15.3-4.1 27.4-16.4 31.6-32.1 9.7-36.4 9.8-115.2 9.8-116 0-.8-.3-79.9-9.8-116-4.2-15.7-16.2-28-31.6-32.1-17.3-4.7-44.5-8.2-120.9-9.5-4.5-.1-8.8-1.9-11.9-5.2-3.1-3.3-4.8-7.6-4.7-12.1.1-4.5 1.9-8.8 5.2-11.9 3.3-3.1 7.6-4.8 12.1-4.7C346 1.2 387 4.6 409.8 10.7c27 7.3 48.2 28.9 55.4 56.3 10.7 40.6 10.8 121.3 10.8 124.7 0 3.4-.1 84.1-10.9 124.7-7.1 27.3-28.3 48.9-55.4 56.3-39.5 10.6-135.8 10.9-146.7 10.9zM172.7 14s-.1 0 0 0c-54.3.9-76.4 3-102.7 10.2-22.2 6-39.7 23.8-45.5 46.3C14.1 109.3 14 188.3 14 191.6c0 3.3.1 82.3 10.4 121.1 6 22.5 23.4 40.3 45.6 46.3 38.3 10.4 186.8 10.6 193.1 10.6 38.7 0 112.3-2.2 142.9-10.6 22.3-6.1 39.7-23.8 45.6-46.3 10.4-38.9 10.5-117.8 10.5-121.1 0-3.3-.1-82.3-10.4-121.1-6-22.5-23.4-40.3-45.6-46.3-21.6-5.9-61.6-9.1-125.8-10.2h-.1c-1.1 0-1.8.5-2.1.9-.3.3-.9 1-.9 2.1s.5 1.8.9 2.2c.3.3 1 .9 2.1.9 77.8 1.3 106 4.9 124.3 9.9 20.1 5.5 36 21.6 41.4 42.1 10.1 38.5 10.2 118.8 10.2 119.6 0 .8-.1 81.5-10.2 119.6-5.4 20.5-21.3 36.6-41.4 42.1-37.5 10.2-137.1 10.3-141.3 10.3-6.3 0-153.9-.1-191.4-10.3-20.1-5.5-36-21.6-41.4-42.1C20.1 273.1 20 192.4 20 191.6c0-.8.1-81.5 10.2-119.6 5.4-20.5 21.3-36.6 41.4-42.1 2-.5 3.8-1.1 5.5-1.6 15-4.4 24.9-7.3 95.6-8.4 1.7 0 2.9-1.4 2.9-3.1.1-1.5-1.2-2.8-2.9-2.8z"></path><g><path d="M326.8 184.5l-124-72c-3.1-1.8-6.9-1.8-10 0s-5 5.1-5 8.7v144c0 3.6 1.9 6.9 5 8.7 1.5.9 3.3 1.3 5 1.3s3.5-.5 5-1.4l124-72c3.1-1.8 5-5.1 5-8.6s-1.9-6.9-5-8.7zm-119 63.3V138.5l94.1 54.6-94.1 54.7z"></path><path d="M197.8 282.2c-3.1 0-6.1-.8-8.6-2.3-5.2-3-8.4-8.7-8.4-14.7v-144c0-6.1 3.3-11.7 8.5-14.8 5.3-3 11.8-3 17 0l124 72c5.2 3 8.5 8.7 8.5 14.8 0 6-3.3 11.6-8.5 14.7l-124 72c-2.5 1.5-5.5 2.3-8.5 2.3zm0-164c-.5 0-1 .1-1.5.4-.9.6-1.5 1.5-1.5 2.6v144c0 1.1.6 2.1 1.5 2.6l.1.1c.2.1.7.3 1.4.3.4 0 1-.2 1.4-.4l124.1-72c.9-.5 1.5-1.5 1.5-2.5 0-1.1-.6-2.1-1.5-2.6l-124-72c-.5-.4-1-.5-1.5-.5zm3 141.8V126.3l115 66.7-115 67zm14-109.3v85l73.2-42.5-73.2-42.5z"></path></g></symbol></svg>