<?xml version="1.0" encoding="UTF-8"?>
<svg fill="#dddddd" xmlns="http://www.w3.org/2000/svg" id="Layer_1" data-name="Layer 1" viewBox="0 0 24 24">
  <path d="m6,12c3.309,0,6-2.691,6-6S9.309,0,6,0,0,2.691,0,6s2.691,6,6,6Zm2-1.424c-.614.269-1.288.424-2,.424s-1.386-.154-2-.424v-1.576c0-.552.449-1,1-1h2c.551,0,1,.448,1,1v1.576ZM6,1c2.757,0,5,2.243,5,5,0,1.627-.793,3.061-2,3.974v-.974c0-1.103-.897-2-2-2h-2c-1.103,0-2,.897-2,2v.974c-1.207-.914-2-2.348-2-3.974C1,3.243,3.243,1,6,1Zm0,5c1.103,0,2-.897,2-2s-.897-2-2-2-2,.897-2,2,.897,2,2,2Zm0-3c.551,0,1,.448,1,1s-.449,1-1,1-1-.448-1-1,.449-1,1-1Zm18.016,3.05l-.932.363-1.844-4.725c-1.499,4.398-8.294,14.632-21.241,17.212v-1.024C12.749,15.243,19.231,5.021,20.381,1.08l-5.005,1.952-.363-.932L20.087.121c.375-.146.785-.138,1.152.023.368.162.651.457.797.832l1.979,5.073Zm-7.042,5.705l.026,12.244-1,.002-.024-11.252c.345-.329.677-.661.998-.994ZM1,20.711c.34-.075.669-.161,1-.245v3.534h-1v-3.289Zm20-12.711h1v16h-1V8Zm-9.017,7.985l.017,8.014-1,.002-.016-7.373c.336-.212.677-.422.999-.643Zm-4.996,2.767l.013,5.246-1,.002-.012-4.812c.342-.137.667-.289.999-.436Z"/>
</svg>
