<?xml version="1.0" standalone="no"?><svg xmlns="http://www.w3.org/2000/svg" viewBox="0 0 1440 320"><path fill="#fff" fill-opacity="1" d="M0,224L30,208C60,192,120,160,180,138.7C240,117,300,107,360,117.3C420,128,480,160,540,181.3C600,203,660,213,720,186.7C780,160,840,96,900,96C960,96,1020,160,1080,181.3C1140,203,1200,181,1260,181.3C1320,181,1380,203,1410,213.3L1440,224L1440,0L1410,0C1380,0,1320,0,1260,0C1200,0,1140,0,1080,0C1020,0,960,0,900,0C840,0,780,0,720,0C660,0,600,0,540,0C480,0,420,0,360,0C300,0,240,0,180,0C120,0,60,0,30,0L0,0Z"></path></svg>